<?xml version="1.0" encoding="UTF-8"?>
<!DOCTYPE svg PUBLIC "-//W3C//DTD SVG 1.1//EN" "http://www.w3.org/Graphics/SVG/1.1/DTD/svg11.dtd">
<svg xmlns="http://www.w3.org/2000/svg" version="1.1" width="64px" height="64px" style="shape-rendering:geometricPrecision; text-rendering:geometricPrecision; image-rendering:optimizeQuality; fill-rule:evenodd; clip-rule:evenodd" xmlns:xlink="http://www.w3.org/1999/xlink">
<g><path style="opacity:0.996" fill="#74def2" d="M 36.5,8.5 C 36.1412,10.371 35.1412,11.871 33.5,13C 30.456,13.3629 27.456,13.8629 24.5,14.5C 22.9106,13.3789 21.2439,13.5456 19.5,15C 16.716,17.1122 14.716,19.7788 13.5,23C 13.5699,23.7648 13.9033,24.2648 14.5,24.5C 13.8629,27.456 13.3629,30.456 13,33.5C 11.871,35.1412 10.371,36.1412 8.5,36.5C 7.5,16.8333 16.8333,7.5 36.5,8.5 Z"/></g>
<g><path style="opacity:0.944" fill="#37cfed" d="M 36.5,8.5 C 46.1667,10.8333 52.1667,16.8333 54.5,26.5C 52.9102,26.6282 51.5769,27.2949 50.5,28.5C 49.906,33.4489 48.406,38.1156 46,42.5C 44.1433,45.1998 41.6433,46.8665 38.5,47.5C 37.5084,47.6716 36.8417,47.3382 36.5,46.5C 47.7498,39.5339 49.4165,30.7006 41.5,20C 35.7842,15.9687 29.7842,15.4687 23.5,18.5C 22.8333,18.1667 22.1667,17.8333 21.5,17.5C 22.6935,16.7281 23.6935,15.7281 24.5,14.5C 27.456,13.8629 30.456,13.3629 33.5,13C 35.1412,11.871 36.1412,10.371 36.5,8.5 Z"/></g>
<g><path style="opacity:1" fill="#f6fcfe" d="M 24.5,14.5 C 23.6935,15.7281 22.6935,16.7281 21.5,17.5C 18.8061,19.5272 16.4728,21.8605 14.5,24.5C 13.9033,24.2648 13.5699,23.7648 13.5,23C 14.716,19.7788 16.716,17.1122 19.5,15C 21.2439,13.5456 22.9106,13.3789 24.5,14.5 Z"/></g>
<g><path style="opacity:0.981" fill="#008aa9" d="M 28.5,19.5 C 36.2204,20.8908 40.5538,25.5575 41.5,33.5C 39.8333,33.5 38.1667,33.5 36.5,33.5C 36.5,37.1667 36.5,40.8333 36.5,44.5C 33.1667,44.5 29.8333,44.5 26.5,44.5C 26.5,40.8333 26.5,37.1667 26.5,33.5C 24.8333,33.5 23.1667,33.5 21.5,33.5C 21.3398,31.8008 21.5065,30.1341 22,28.5C 24.41,25.6032 26.5767,22.6032 28.5,19.5 Z"/></g>
<g><path style="opacity:0.94" fill="#38d0ee" d="M 21.5,17.5 C 22.1667,17.8333 22.8333,18.1667 23.5,18.5C 13.8524,27.7723 14.1857,36.6056 24.5,45C 28.3628,46.3537 32.3628,46.8537 36.5,46.5C 36.8417,47.3382 37.5084,47.6716 38.5,47.5C 35.4044,48.9185 32.0711,49.9185 28.5,50.5C 27.2949,51.5769 26.6282,52.9102 26.5,54.5C 16.8333,52.1667 10.8333,46.1667 8.5,36.5C 10.371,36.1412 11.871,35.1412 13,33.5C 13.3629,30.456 13.8629,27.456 14.5,24.5C 16.4728,21.8605 18.8061,19.5272 21.5,17.5 Z"/></g>
<g><path style="opacity:0.955" fill="#2fb2cb" d="M 54.5,26.5 C 55.5,46.1667 46.1667,55.5 26.5,54.5C 26.6282,52.9102 27.2949,51.5769 28.5,50.5C 32.0711,49.9185 35.4044,48.9185 38.5,47.5C 41.6433,46.8665 44.1433,45.1998 46,42.5C 48.406,38.1156 49.906,33.4489 50.5,28.5C 51.5769,27.2949 52.9102,26.6282 54.5,26.5 Z"/></g>
<g><path style="opacity:0.258" fill="#000000" d="M 45.5,63.5 C 36.1667,63.5 26.8333,63.5 17.5,63.5C 16.1225,62.7656 14.6225,62.0989 13,61.5C 12.3828,60.5509 12.5494,59.7175 13.5,59C 25.5,57 37.5,57 49.5,59C 50.4506,59.7175 50.6172,60.5509 50,61.5C 48.3775,62.0989 46.8775,62.7656 45.5,63.5 Z"/></g>
</svg>
