<?xml version="1.0" encoding="UTF-8"?>
<!DOCTYPE svg PUBLIC "-//W3C//DTD SVG 1.1//EN" "http://www.w3.org/Graphics/SVG/1.1/DTD/svg11.dtd">
<svg xmlns="http://www.w3.org/2000/svg" version="1.1" width="69px" height="66px"
     style="shape-rendering:geometricPrecision; text-rendering:geometricPrecision; image-rendering:optimizeQuality; fill-rule:evenodd; clip-rule:evenodd"
>
    <g>
        <path style="opacity:0.012" fill="#6fd8de"
              d="M 64.5,0.5 C 64.5,0.166667 64.5,-0.166667 64.5,-0.5C 65.1667,-0.5 65.8333,-0.5 66.5,-0.5C 66.1583,0.338246 65.4916,0.67158 64.5,0.5 Z"/>
    </g>
    <g>
        <path style="opacity:0.012" fill="#8ff0f4"
              d="M 64.5,0.5 C 64.5,0.833333 64.5,1.16667 64.5,1.5C 63.8299,1.01865 63.8299,0.68532 64.5,0.5 Z"/>
    </g>
    <g>
        <path style="opacity:0.004" fill="#2a949c"
              d="M 68.5,0.5 C 68.5,0.833333 68.5,1.16667 68.5,1.5C 67.8299,1.01865 67.8299,0.68532 68.5,0.5 Z"/>
    </g>
    <g>
        <path style="opacity:0.998" fill="#81e6eb"
              d="M 47.5,-0.5 C 47.8333,-0.5 48.1667,-0.5 48.5,-0.5C 50.7912,0.764998 53.1246,2.09833 55.5,3.5C 57.1667,4.83333 58.8333,4.83333 60.5,3.5C 61.4916,3.67158 62.1583,3.33825 62.5,2.5C 63.4916,2.67158 64.1583,2.33825 64.5,1.5C 65.1667,1.5 65.8333,1.5 66.5,1.5C 64.4509,4.54969 61.7843,6.88302 58.5,8.5C 56.4862,8.60849 54.8195,7.94183 53.5,6.5C 52.653,5.03374 51.3197,4.20041 49.5,4C 45.1132,3.29375 40.7799,3.46042 36.5,4.5C 40.1382,2.57464 43.8049,0.907975 47.5,-0.5 Z"/>
    </g>
    <g>
        <path style="opacity:0.012" fill="#88f1f5" d="M 62.5,2.5 C 61.8333,1.16667 61.8333,1.16667 62.5,2.5 Z"/>
    </g>
    <g>
        <path style="opacity:0.012" fill="#89e7eb" d="M 55.5,2.5 C 56.8333,3.16667 56.8333,3.16667 55.5,2.5 Z"/>
    </g>
    <g>
        <path style="opacity:0.012" fill="#86eff3"
              d="M 60.5,3.5 C 59.7611,3.63101 59.0944,3.46434 58.5,3C 59.4368,2.30831 60.1034,2.47498 60.5,3.5 Z"/>
    </g>
    <g>
        <path style="opacity:0.012" fill="#7ee5eb"
              d="M -0.5,2.5 C 0.434475,3.56764 0.767809,4.90097 0.5,6.5C 0.166667,6.5 -0.166667,6.5 -0.5,6.5C -0.5,5.16667 -0.5,3.83333 -0.5,2.5 Z"/>
    </g>
    <g>
        <path style="opacity:0.999" fill="#6bdae1"
              d="M 53.5,6.5 C 53.5,7.83333 53.5,9.16667 53.5,10.5C 51.0712,10.585 49.0712,11.585 47.5,13.5C 44.9824,12.4181 42.9824,13.0848 41.5,15.5C 39.8333,15.5 38.1667,15.5 36.5,15.5C 37.7175,14.8386 39.0508,14.1719 40.5,13.5C 38.8569,10.5549 37.5236,7.55494 36.5,4.5C 40.7799,3.46042 45.1132,3.29375 49.5,4C 51.3197,4.20041 52.653,5.03374 53.5,6.5 Z"/>
    </g>
    <g>
        <path style="opacity:0.995" fill="#80e5eb"
              d="M 16.5,13.5 C 17.5137,14.6737 18.847,15.3404 20.5,15.5C 20.5,15.8333 20.5,16.1667 20.5,16.5C 21.9418,17.8195 22.6085,19.4862 22.5,21.5C 20.4049,18.7245 17.7383,16.5578 14.5,15C 12.6476,14.2274 11.3143,14.7274 10.5,16.5C 9.76109,16.369 9.09442,16.5357 8.5,17C 7.9152,18.3024 7.24853,19.469 6.5,20.5C 4.98261,20.4894 3.81595,19.8228 3,18.5C 1.56989,15.6473 0.73656,12.6473 0.5,9.5C 0.5,8.5 0.5,7.5 0.5,6.5C 1.19927,4.44404 2.19927,2.44404 3.5,0.5C 6.82437,3.99388 9.99103,7.66055 13,11.5C 13.8159,12.8228 14.9826,13.4894 16.5,13.5 Z"/>
    </g>
    <g>
        <path style="opacity:0.008" fill="#31a0aa"
              d="M 67.5,3.5 C 67.8333,3.5 68.1667,3.5 68.5,3.5C 68.5,4.16667 68.5,4.83333 68.5,5.5C 68.1667,5.5 67.8333,5.5 67.5,5.5C 67.5,4.83333 67.5,4.16667 67.5,3.5 Z"/>
    </g>
    <g>
        <path style="opacity:0.016" fill="#54c4cd"
              d="M 66.5,5.5 C 66.8333,5.5 67.1667,5.5 67.5,5.5C 67.5,6.16667 67.8333,6.5 68.5,6.5C 68.5,6.83333 68.5,7.16667 68.5,7.5C 67.1667,7.5 66.5,6.83333 66.5,5.5 Z"/>
    </g>
    <g>
        <path style="opacity:1" fill="#38b2bf"
              d="M 66.5,1.5 C 66.8333,1.5 67.1667,1.5 67.5,1.5C 67.5,2.16667 67.5,2.83333 67.5,3.5C 66.6618,3.84171 66.3284,4.50838 66.5,5.5C 65.197,7.14226 63.8637,8.80893 62.5,10.5C 58.5635,13.8585 57.2302,13.1918 58.5,8.5C 61.7843,6.88302 64.4509,4.54969 66.5,1.5 Z"/>
    </g>
    <g>
        <path style="opacity:0.439" fill="#7fecf1"
              d="M 40.5,-0.5 C 42.8333,-0.5 45.1667,-0.5 47.5,-0.5C 43.8049,0.907975 40.1382,2.57464 36.5,4.5C 34.5905,5.97457 33.4238,7.97457 33,10.5C 31.9847,14.4402 31.4847,18.4402 31.5,22.5C 28.6085,21.5975 25.6085,21.2641 22.5,21.5C 22.6085,19.4862 21.9418,17.8195 20.5,16.5C 21.8333,16.5 23.1667,16.5 24.5,16.5C 25.209,17.404 26.209,17.7373 27.5,17.5C 28.3023,18.8847 28.9689,18.718 29.5,17C 30.313,9.17375 33.9797,3.34042 40.5,-0.5 Z"/>
    </g>
    <g>
        <path style="opacity:0.016" fill="#88e9ef" d="M 16.5,12.5 C 17.8333,13.1667 17.8333,13.1667 16.5,12.5 Z"/>
    </g>
    <g>
        <path style="opacity:1" fill="#77e0e6"
              d="M 53.5,6.5 C 54.8195,7.94183 56.4862,8.60849 58.5,8.5C 57.2302,13.1918 58.5635,13.8585 62.5,10.5C 64.5,9.83333 66.5,9.16667 68.5,8.5C 68.5,8.83333 68.5,9.16667 68.5,9.5C 65.9566,11.9395 62.9566,13.6062 59.5,14.5C 56.3161,15.6427 52.9827,16.3094 49.5,16.5C 46.7628,16.5987 44.0961,16.2653 41.5,15.5C 42.9824,13.0848 44.9824,12.4181 47.5,13.5C 49.0712,11.585 51.0712,10.585 53.5,10.5C 53.5,9.16667 53.5,7.83333 53.5,6.5 Z"/>
    </g>
    <g>
        <path style="opacity:0.012" fill="#84ecf2"
              d="M 20.5,15.5 C 21.2506,14.4265 22.2506,14.2599 23.5,15C 22.552,15.4828 21.552,15.6495 20.5,15.5 Z"/>
    </g>
    <g>
        <path style="opacity:0.009" fill="#81edf3"
              d="M 24.5,16.5 C 25.7082,15.218 27.0416,15.218 28.5,16.5C 28.3764,17.1067 28.0431,17.44 27.5,17.5C 26.791,16.596 25.791,16.2627 24.5,16.5 Z"/>
    </g>
    <g>
        <path style="opacity:1" fill="#65d7dd"
              d="M 36.5,15.5 C 38.1667,15.5 39.8333,15.5 41.5,15.5C 44.0961,16.2653 46.7628,16.5987 49.5,16.5C 49.4828,18.5648 49.1495,20.5648 48.5,22.5C 45.5787,23.1939 42.5787,24.0272 39.5,25C 41.0718,27.8981 40.4052,30.0648 37.5,31.5C 36.5,31.5 35.5,31.5 34.5,31.5C 34.4001,28.333 35.0668,25.333 36.5,22.5C 33.8521,20.1316 33.8521,17.7983 36.5,15.5 Z"/>
    </g>
    <g>
        <path style="opacity:1" fill="#67d8df"
              d="M 59.5,14.5 C 58.6851,15.8366 57.5185,16.8366 56,17.5C 55.5017,20.8168 55.335,24.1501 55.5,27.5C 53.4392,29.3807 51.1059,31.0474 48.5,32.5C 48.0181,35.7028 46.6848,38.3694 44.5,40.5C 45.516,37.8004 45.516,35.1337 44.5,32.5C 46.9372,31.0744 49.4372,29.741 52,28.5C 53.392,24.7796 52.2253,22.7796 48.5,22.5C 49.1495,20.5648 49.4828,18.5648 49.5,16.5C 52.9827,16.3094 56.3161,15.6427 59.5,14.5 Z"/>
    </g>
    <g>
        <path style="opacity:0.008" fill="#4eb1b8" d="M 63.5,17.5 C 64.8333,18.1667 64.8333,18.1667 63.5,17.5 Z"/>
    </g>
    <g>
        <path style="opacity:0.004" fill="#68dde4"
              d="M -0.5,17.5 C -0.166667,17.5 0.166667,17.5 0.5,17.5C 0.67158,18.4916 0.338246,19.1583 -0.5,19.5C -0.5,18.8333 -0.5,18.1667 -0.5,17.5 Z"/>
    </g>
    <g>
        <path style="opacity:1" fill="#67d7de"
              d="M 13.5,31.5 C 10.8633,32.6303 8.19668,32.6303 5.5,31.5C 5.42305,27.7852 5.75638,24.1185 6.5,20.5C 7.24853,19.469 7.9152,18.3024 8.5,17C 9.09442,16.5357 9.76109,16.369 10.5,16.5C 11.4959,16.5858 12.3292,16.2524 13,15.5C 14.1493,18.1356 15.9826,20.1356 18.5,21.5C 22.1224,22.3253 25.789,22.8253 29.5,23C 26.2577,26.781 22.2577,28.9477 17.5,29.5C 17.8841,27.3352 17.2174,25.6685 15.5,24.5C 14.0562,26.6079 13.3896,28.9412 13.5,31.5 Z"/>
    </g>
    <g>
        <path style="opacity:0.999" fill="#71dee4"
              d="M 36.5,4.5 C 37.5236,7.55494 38.8569,10.5549 40.5,13.5C 39.0508,14.1719 37.7175,14.8386 36.5,15.5C 33.8521,17.7983 33.8521,20.1316 36.5,22.5C 35.0668,25.333 34.4001,28.333 34.5,31.5C 35.5,31.5 36.5,31.5 37.5,31.5C 37.0825,32.2216 36.4158,32.7216 35.5,33C 39.6508,34.1382 40.9841,36.6382 39.5,40.5C 40.8333,40.5 42.1667,40.5 43.5,40.5C 42.0101,42.2798 40.0101,42.9465 37.5,42.5C 37.838,39.9885 37.838,37.6552 37.5,35.5C 35.9052,34.5661 34.2385,34.5661 32.5,35.5C 32.9528,34.5416 33.6195,33.7083 34.5,33C 33.1993,29.5965 32.1993,26.0965 31.5,22.5C 31.4847,18.4402 31.9847,14.4402 33,10.5C 33.4238,7.97457 34.5905,5.97457 36.5,4.5 Z"/>
    </g>
    <g>
        <path style="opacity:0.004" fill="#67b2b9"
              d="M 62.5,18.5 C 62.8333,18.5 63.1667,18.5 63.5,18.5C 63.1667,29.1667 62.8333,29.1667 62.5,18.5 Z"/>
    </g>
    <g>
        <path style="opacity:0.004" fill="#6adde5"
              d="M -0.5,25.5 C 0.338246,25.8417 0.67158,26.5084 0.5,27.5C 0.166667,27.5 -0.166667,27.5 -0.5,27.5C -0.5,26.8333 -0.5,26.1667 -0.5,25.5 Z"/>
    </g>
    <g>
        <path style="opacity:1" fill="#76dfe5"
              d="M 48.5,22.5 C 52.2253,22.7796 53.392,24.7796 52,28.5C 49.4372,29.741 46.9372,31.0744 44.5,32.5C 45.516,35.1337 45.516,37.8004 44.5,40.5C 44.1667,40.5 43.8333,40.5 43.5,40.5C 42.1667,40.5 40.8333,40.5 39.5,40.5C 40.9841,36.6382 39.6508,34.1382 35.5,33C 36.4158,32.7216 37.0825,32.2216 37.5,31.5C 40.4052,30.0648 41.0718,27.8981 39.5,25C 42.5787,24.0272 45.5787,23.1939 48.5,22.5 Z"/>
    </g>
    <g>
        <path style="opacity:0.004" fill="#68d9e0"
              d="M 0.5,27.5 C 0.833333,27.5 1.16667,27.5 1.5,27.5C 1.16667,30.1667 0.833333,30.1667 0.5,27.5 Z"/>
    </g>
    <g>
        <path style="opacity:0.012" fill="#2d949b"
              d="M 61.5,28.5 C 62.5735,29.2506 62.7401,30.2506 62,31.5C 61.5172,30.552 61.3505,29.552 61.5,28.5 Z"/>
    </g>
    <g>
        <path style="opacity:0.999" fill="#51c0c8"
              d="M 68.5,9.5 C 68.5,10.1667 68.5,10.8333 68.5,11.5C 66.1097,12.8908 64.4431,14.8908 63.5,17.5C 62.8333,17.5 62.5,17.8333 62.5,18.5C 61.5206,21.6248 61.1872,24.9581 61.5,28.5C 61.1667,28.5 60.8333,28.5 60.5,28.5C 60.5,24.8333 60.5,21.1667 60.5,17.5C 59.5,17.5 58.5,17.5 57.5,17.5C 57.8245,24.6866 57.4912,31.6866 56.5,38.5C 55.5,38.5 54.5,38.5 53.5,38.5C 53.5086,36.6916 53.0086,35.0249 52,33.5C 51.6174,34.056 51.1174,34.3893 50.5,34.5C 52.3713,32.3724 54.038,30.0391 55.5,27.5C 55.335,24.1501 55.5017,20.8168 56,17.5C 57.5185,16.8366 58.6851,15.8366 59.5,14.5C 62.9566,13.6062 65.9566,11.9395 68.5,9.5 Z"/>
    </g>
    <g>
        <path style="opacity:0.004" fill="#6adae1"
              d="M 3.5,30.5 C 3.63101,31.2389 3.46434,31.9056 3,32.5C 2.30831,31.5632 2.47498,30.8966 3.5,30.5 Z"/>
    </g>
    <g>
        <path style="opacity:0.995" fill="#69dce3"
              d="M -0.5,9.5 C -0.166667,9.5 0.166667,9.5 0.5,9.5C 0.73656,12.6473 1.56989,15.6473 3,18.5C 3.81595,19.8228 4.98261,20.4894 6.5,20.5C 5.75638,24.1185 5.42305,27.7852 5.5,31.5C 8.19668,32.6303 10.8633,32.6303 13.5,31.5C 12.4123,33.5825 11.4123,35.7492 10.5,38C 8.84254,38.7252 7.84254,38.2252 7.5,36.5C 8.43873,35.6726 8.10539,35.0059 6.5,34.5C 5.48837,33.1283 4.48837,31.795 3.5,30.5C 3.06795,29.2905 2.40128,28.2905 1.5,27.5C 1.37959,25.8014 1.04626,24.1347 0.5,22.5C 0.817772,21.3527 1.48444,20.5194 2.5,20C 1.93406,19.0053 1.26739,18.172 0.5,17.5C 0.737305,16.209 0.403972,15.209 -0.5,14.5C -0.5,12.8333 -0.5,11.1667 -0.5,9.5 Z"/>
    </g>
    <g>
        <path style="opacity:0.008" fill="#66dee4" d="M 6.5,34.5 C 5.83333,35.1667 5.83333,35.1667 6.5,34.5 Z"/>
    </g>
    <g>
        <path style="opacity:0.004" fill="#44a5ad"
              d="M 60.5,32.5 C 61.8333,34.1667 61.8333,35.8333 60.5,37.5C 60.5,35.8333 60.5,34.1667 60.5,32.5 Z"/>
    </g>
    <g>
        <path style="opacity:1" fill="#75e0e6"
              d="M 22.5,21.5 C 25.6085,21.2641 28.6085,21.5975 31.5,22.5C 32.1993,26.0965 33.1993,29.5965 34.5,33C 33.6195,33.7083 32.9528,34.5416 32.5,35.5C 30.4632,36.8465 28.4632,38.1798 26.5,39.5C 24.5165,39.3832 22.8498,40.0499 21.5,41.5C 20.9752,43.9879 20.1419,46.3213 19,48.5C 18.5,48 18,47.5 17.5,47C 18.8448,44.6757 19.1782,42.3423 18.5,40C 17.2068,39.51 15.8734,39.3433 14.5,39.5C 14.628,41.6547 14.128,43.6547 13,45.5C 11.4645,42.7063 9.29784,40.7063 6.5,39.5C 6.5,38.8333 6.16667,38.5 5.5,38.5C 5.83333,37.5 6.5,36.8333 7.5,36.5C 7.84254,38.2252 8.84254,38.7252 10.5,38C 11.4123,35.7492 12.4123,33.5825 13.5,31.5C 13.3896,28.9412 14.0562,26.6079 15.5,24.5C 17.2174,25.6685 17.8841,27.3352 17.5,29.5C 22.2577,28.9477 26.2577,26.781 29.5,23C 25.789,22.8253 22.1224,22.3253 18.5,21.5C 15.9826,20.1356 14.1493,18.1356 13,15.5C 12.3292,16.2524 11.4959,16.5858 10.5,16.5C 11.3143,14.7274 12.6476,14.2274 14.5,15C 17.7383,16.5578 20.4049,18.7245 22.5,21.5 Z"/>
    </g>
    <g>
        <path style="opacity:1" fill="#80e4ea"
              d="M 28.5,26.5 C 29.8699,26.8565 30.8699,27.6898 31.5,29C 30.534,30.8288 30.3673,32.6621 31,34.5C 26.726,38.8782 22.226,39.3782 17.5,36C 20.8653,32.3426 24.532,29.176 28.5,26.5 Z"/>
    </g>
    <g>
        <path style="opacity:0.004" fill="#6de0e6"
              d="M 5.5,38.5 C 5.5,39.1667 5.5,39.8333 5.5,40.5C 4.16667,39.8333 4.16667,39.1667 5.5,38.5 Z"/>
    </g>
    <g>
        <path style="opacity:0.961" fill="#6cdde3"
              d="M 6.5,40.5 C 6.5,40.1667 6.5,39.8333 6.5,39.5C 9.29784,40.7063 11.4645,42.7063 13,45.5C 14.128,43.6547 14.628,41.6547 14.5,39.5C 15.8734,39.3433 17.2068,39.51 18.5,40C 19.1782,42.3423 18.8448,44.6757 17.5,47C 18,47.5 18.5,48 19,48.5C 20.1419,46.3213 20.9752,43.9879 21.5,41.5C 22.8498,40.0499 24.5165,39.3832 26.5,39.5C 24.023,42.1268 22.3564,45.1268 21.5,48.5C 20.5416,48.9528 19.7083,49.6195 19,50.5C 17.2111,48.771 15.0444,48.1043 12.5,48.5C 11.8333,48.1667 11.1667,47.8333 10.5,47.5C 9.73685,45.6316 8.73685,43.9649 7.5,42.5C 7.67158,41.5084 7.33825,40.8417 6.5,40.5 Z"/>
    </g>
    <g>
        <path style="opacity:1" fill="#4fc2c9"
              d="M 56.5,38.5 C 55.5606,41.241 53.7272,43.241 51,44.5C 50.6667,46.5 50.3333,48.5 50,50.5C 49.2917,51.3805 48.4584,52.0472 47.5,52.5C 47.4285,49.8067 47.0951,47.1401 46.5,44.5C 48.2235,41.331 49.5568,37.9977 50.5,34.5C 51.1174,34.3893 51.6174,34.056 52,33.5C 53.0086,35.0249 53.5086,36.6916 53.5,38.5C 54.5,38.5 55.5,38.5 56.5,38.5 Z"/>
    </g>
    <g>
        <path style="opacity:0.004" fill="#41a4ac"
              d="M 59.5,37.5 C 59.8333,37.5 60.1667,37.5 60.5,37.5C 60.7678,39.099 60.4345,40.4324 59.5,41.5C 59.5,40.1667 59.5,38.8333 59.5,37.5 Z"/>
    </g>
    <g>
        <path style="opacity:0.004" fill="#6ee0e7"
              d="M 5.5,40.5 C 5.83333,40.5 6.16667,40.5 6.5,40.5C 6.5,41.1667 6.5,41.8333 6.5,42.5C 5.66175,42.1583 5.32842,41.4916 5.5,40.5 Z"/>
    </g>
    <g>
        <path style="opacity:1" fill="#60d3da"
              d="M 55.5,27.5 C 54.038,30.0391 52.3713,32.3724 50.5,34.5C 49.5568,37.9977 48.2235,41.331 46.5,44.5C 47.0951,47.1401 47.4285,49.8067 47.5,52.5C 47.0269,53.9063 46.0269,54.573 44.5,54.5C 44.8355,49.6441 42.5022,47.4774 37.5,48C 36.4293,47.1482 35.4293,46.3149 34.5,45.5C 36.3878,43.0122 37.0545,40.0122 36.5,36.5C 33.1968,37.4386 29.8635,38.4386 26.5,39.5C 28.4632,38.1798 30.4632,36.8465 32.5,35.5C 34.2385,34.5661 35.9052,34.5661 37.5,35.5C 37.838,37.6552 37.838,39.9885 37.5,42.5C 40.0101,42.9465 42.0101,42.2798 43.5,40.5C 43.8333,40.5 44.1667,40.5 44.5,40.5C 46.6848,38.3694 48.0181,35.7028 48.5,32.5C 51.1059,31.0474 53.4392,29.3807 55.5,27.5 Z"/>
    </g>
    <g>
        <path style="opacity:0.631" fill="#45abb2"
              d="M 60.5,28.5 C 60.5,29.8333 60.5,31.1667 60.5,32.5C 59.5489,33.9187 59.2155,35.5853 59.5,37.5C 58.5655,38.5676 58.2322,39.901 58.5,41.5C 57.596,42.209 57.2627,43.209 57.5,44.5C 56.6618,44.8417 56.3284,45.5084 56.5,46.5C 55.8333,46.5 55.5,46.8333 55.5,47.5C 54.0937,47.9731 53.427,48.9731 53.5,50.5C 52.8333,50.5 52.5,50.8333 52.5,51.5C 51.8333,51.5 51.5,51.8333 51.5,52.5C 50.8333,52.5 50.5,52.8333 50.5,53.5C 48.5,54.8333 46.8333,56.5 45.5,58.5C 44.8333,58.5 44.5,58.8333 44.5,59.5C 43.8333,59.5 43.5,59.8333 43.5,60.5C 42.8333,60.5 42.1667,60.5 41.5,60.5C 40.448,60.6495 39.448,60.4828 38.5,60C 40.7632,58.383 42.7632,56.5497 44.5,54.5C 46.0269,54.573 47.0269,53.9063 47.5,52.5C 48.4584,52.0472 49.2917,51.3805 50,50.5C 50.3333,48.5 50.6667,46.5 51,44.5C 53.7272,43.241 55.5606,41.241 56.5,38.5C 57.4912,31.6866 57.8245,24.6866 57.5,17.5C 58.5,17.5 59.5,17.5 60.5,17.5C 60.5,21.1667 60.5,24.8333 60.5,28.5 Z"/>
    </g>
    <g>
        <path style="opacity:0.008" fill="#44a6ae"
              d="M 58.5,41.5 C 58.8333,41.5 59.1667,41.5 59.5,41.5C 59.1667,44.1667 58.8333,44.1667 58.5,41.5 Z"/>
    </g>
    <g>
        <path style="opacity:0.004" fill="#6ee1e7"
              d="M 6.5,42.5 C 6.83333,42.5 7.16667,42.5 7.5,42.5C 7.16667,45.1667 6.83333,45.1667 6.5,42.5 Z"/>
    </g>
    <g>
        <path style="opacity:1" fill="#5dd0d7"
              d="M 34.5,45.5 C 31.7527,44.5718 29.2527,45.2385 27,47.5C 26.8281,50.8255 26.9947,54.1589 27.5,57.5C 25.5316,58.819 23.5316,58.819 21.5,57.5C 20.6789,54.5535 20.6789,51.5535 21.5,48.5C 22.3564,45.1268 24.023,42.1268 26.5,39.5C 29.8635,38.4386 33.1968,37.4386 36.5,36.5C 37.0545,40.0122 36.3878,43.0122 34.5,45.5 Z"/>
    </g>
    <g>
        <path style="opacity:0.004" fill="#4cacb4"
              d="M 57.5,44.5 C 58.8333,45.1667 58.8333,45.8333 57.5,46.5C 57.5,45.8333 57.5,45.1667 57.5,44.5 Z"/>
    </g>
    <g>
        <path style="opacity:0.012" fill="#48aab1"
              d="M 56.5,46.5 C 56.8333,46.5 57.1667,46.5 57.5,46.5C 57.3147,47.1701 56.9813,47.1701 56.5,46.5 Z"/>
    </g>
    <g>
        <path style="opacity:0.008" fill="#63dee3" d="M 10.5,47.5 C 9.83333,48.1667 9.83333,48.1667 10.5,47.5 Z"/>
    </g>
    <g>
        <path style="opacity:0.008" fill="#38a3aa"
              d="M 55.5,47.5 C 55.8333,47.5 56.1667,47.5 56.5,47.5C 56.3147,48.1701 55.9813,48.1701 55.5,47.5 Z"/>
    </g>
    <g>
        <path style="opacity:0.008" fill="#53afb7" d="M 54.5,49.5 C 55.8333,50.1667 55.8333,50.1667 54.5,49.5 Z"/>
    </g>
    <g>
        <path style="opacity:0.012" fill="#4fadb4"
              d="M 53.5,50.5 C 53.8333,50.5 54.1667,50.5 54.5,50.5C 54.3147,51.1701 53.9813,51.1701 53.5,50.5 Z"/>
    </g>
    <g>
        <path style="opacity:0.004" fill="#7fecf1"
              d="M -0.5,52.5 C -0.5,52.1667 -0.5,51.8333 -0.5,51.5C 0.491622,51.3284 1.15829,51.6618 1.5,52.5C 0.833333,52.5 0.166667,52.5 -0.5,52.5 Z"/>
    </g>
    <g>
        <path style="opacity:0.012" fill="#72e7ed"
              d="M 13.5,50.5 C 13.5,51.1667 13.5,51.8333 13.5,52.5C 11.0673,52.2144 11.0673,51.5477 13.5,50.5 Z"/>
    </g>
    <g>
        <path style="opacity:0.016" fill="#4dadb4"
              d="M 52.5,51.5 C 52.8333,51.5 53.1667,51.5 53.5,51.5C 53.3147,52.1701 52.9813,52.1701 52.5,51.5 Z"/>
    </g>
    <g>
        <path style="opacity:0.01" fill="#7eedf2"
              d="M 1.5,53.5 C 1.5,53.1667 1.5,52.8333 1.5,52.5C 5.5,52.8333 5.5,53.1667 1.5,53.5 Z"/>
    </g>
    <g>
        <path style="opacity:0.998" fill="#6bdbe2"
              d="M 12.5,48.5 C 15.0444,48.1043 17.2111,48.771 19,50.5C 19.7083,49.6195 20.5416,48.9528 21.5,48.5C 20.6789,51.5535 20.6789,54.5535 21.5,57.5C 23.5316,58.819 25.5316,58.819 27.5,57.5C 30.0873,56.1462 31.4206,57.1462 31.5,60.5C 31.3918,61.4419 31.0585,62.2753 30.5,63C 22.4328,63.4821 14.4328,62.9821 6.5,61.5C 3.86465,60.1891 1.53131,58.5224 -0.5,56.5C -0.5,55.5 -0.5,54.5 -0.5,53.5C 0.166667,53.5 0.833333,53.5 1.5,53.5C 2.96402,54.1599 4.63069,54.4932 6.5,54.5C 9.20457,54.6839 11.5379,54.0173 13.5,52.5C 16.1667,51.8333 16.1667,51.1667 13.5,50.5C 13.1667,49.8333 12.8333,49.1667 12.5,48.5 Z"/>
    </g>
    <g>
        <path style="opacity:0.016" fill="#4aadb4"
              d="M 51.5,52.5 C 51.8333,52.5 52.1667,52.5 52.5,52.5C 52.3147,53.1701 51.9813,53.1701 51.5,52.5 Z"/>
    </g>
    <g>
        <path style="opacity:0.012" fill="#41a9b1"
              d="M 50.5,53.5 C 50.8333,53.5 51.1667,53.5 51.5,53.5C 51.3147,54.1701 50.9813,54.1701 50.5,53.5 Z"/>
    </g>
    <g>
        <path style="opacity:0.999" fill="#62d0d6"
              d="M 34.5,45.5 C 35.4293,46.3149 36.4293,47.1482 37.5,48C 42.5022,47.4774 44.8355,49.6441 44.5,54.5C 42.7632,56.5497 40.7632,58.383 38.5,60C 39.448,60.4828 40.448,60.6495 41.5,60.5C 41.5,60.8333 41.5,61.1667 41.5,61.5C 40.8333,61.5 40.5,61.8333 40.5,62.5C 39.5084,62.3284 38.8417,62.6618 38.5,63.5C 37.209,63.2627 36.209,63.596 35.5,64.5C 34.209,64.2627 33.209,64.596 32.5,65.5C 28.1667,65.5 23.8333,65.5 19.5,65.5C 18.791,64.596 17.791,64.2627 16.5,64.5C 14.0521,63.5269 11.3854,63.1936 8.5,63.5C 7.83333,62.8333 7.16667,62.1667 6.5,61.5C 14.4328,62.9821 22.4328,63.4821 30.5,63C 31.0585,62.2753 31.3918,61.4419 31.5,60.5C 31.4206,57.1462 30.0873,56.1462 27.5,57.5C 26.9947,54.1589 26.8281,50.8255 27,47.5C 29.2527,45.2385 31.7527,44.5718 34.5,45.5 Z"/>
    </g>
    <g>
        <path style="opacity:1" fill="#6ddbe2"
              d="M 28.5,47.5 C 32.6938,47.5498 36.6938,48.3831 40.5,50C 42.032,50.6995 43.032,51.8662 43.5,53.5C 41.3279,54.2048 39.3279,55.2048 37.5,56.5C 35.7583,54.0266 33.925,54.0266 32,56.5C 28.361,54.4112 27.1944,51.4112 28.5,47.5 Z"/>
    </g>
    <g>
        <path style="opacity:0.012" fill="#4db3b9" d="M 45.5,58.5 C 46.8333,59.1667 46.8333,59.1667 45.5,58.5 Z"/>
    </g>
    <g>
        <path style="opacity:0.016" fill="#52b6bd"
              d="M 44.5,59.5 C 44.8333,59.5 45.1667,59.5 45.5,59.5C 45.3147,60.1701 44.9813,60.1701 44.5,59.5 Z"/>
    </g>
    <g>
        <path style="opacity:0.012" fill="#58b8bf"
              d="M 43.5,60.5 C 43.8333,60.5 44.1667,60.5 44.5,60.5C 44.3147,61.1701 43.9813,61.1701 43.5,60.5 Z"/>
    </g>
    <g>
        <path style="opacity:0.004" fill="#58b8c0"
              d="M 41.5,62.5 C 41.5,62.1667 41.5,61.8333 41.5,61.5C 42.1667,61.5 42.8333,61.5 43.5,61.5C 43.1583,62.3382 42.4916,62.6716 41.5,62.5 Z"/>
    </g>
    <g>
        <path style="opacity:0.008" fill="#57b9c0"
              d="M 40.5,62.5 C 40.8333,62.5 41.1667,62.5 41.5,62.5C 41.3147,63.1701 40.9813,63.1701 40.5,62.5 Z"/>
    </g>
    <g>
        <path style="opacity:0.012" fill="#65cfd5"
              d="M 8.5,63.5 C 8.10343,64.525 7.43677,64.6917 6.5,64C 7.09442,63.5357 7.76109,63.369 8.5,63.5 Z"/>
    </g>
    <g>
        <path style="opacity:0.012" fill="#5cbbc2" d="M 38.5,63.5 C 39.8333,64.1667 39.8333,64.1667 38.5,63.5 Z"/>
    </g>
    <g>
        <path style="opacity:0.008" fill="#5ec3ca"
              d="M 9.5,65.5 C 11.6074,64.5318 13.9407,64.1984 16.5,64.5C 16.5,64.8333 16.5,65.1667 16.5,65.5C 14.1667,65.5 11.8333,65.5 9.5,65.5 Z"/>
    </g>
    <g>
        <path style="opacity:0.008" fill="#52b9c0"
              d="M 35.5,65.5 C 35.5,65.1667 35.5,64.8333 35.5,64.5C 36.4916,64.3284 37.1583,64.6618 37.5,65.5C 36.8333,65.5 36.1667,65.5 35.5,65.5 Z"/>
    </g>
</svg>
