<svg width="50" height="50" viewBox="0 0 50 50" fill="none" xmlns="http://www.w3.org/2000/svg">

    <!-- skills -->
    <g id="code">
        <path fill-rule="evenodd" clip-rule="evenodd"
              d="M18.3125 42.0645L27.2623 6.6875L31.4375 7.87241L22.4878 43.3125L18.3125 42.0645Z" fill="#7572D5"/>
        <path fill-rule="evenodd" clip-rule="evenodd"
              d="M13.5025 12.6875L16.5625 15.9278L7.99501 25.0001L16.5625 34.0721L13.5025 37.3125L1.875 25.0001L13.5025 12.6875Z"
              fill="#7572D5"/>
        <path fill-rule="evenodd" clip-rule="evenodd"
              d="M36.4976 12.6875L33.4375 15.9278L42.0051 25.0001L33.4375 34.0721L36.4976 37.3125L48.125 25.0001L36.4976 12.6875Z"
              fill="#7572D5"/>
    </g>

    <!-- icon header -->
    <g id="icn">
        <g>
            <path style="opacity:0.938" fill="#3a4a52"
                  d="M 83.5,87.5 C 83.3893,86.8826 83.056,86.3826 82.5,86C 75.7498,85.6145 69.0831,84.7812 62.5,83.5C 62.5,82.1667 62.5,80.8333 62.5,79.5C 58.4557,80.0421 54.789,79.2088 51.5,77C 46.3333,71.8333 41.1667,66.6667 36,61.5C 34.6409,57.5948 33.8076,53.5948 33.5,49.5C 34.8333,49.5 36.1667,49.5 37.5,49.5C 37.605,53.3189 38.4383,56.9855 40,60.5C 44.5323,65.3671 49.3656,69.8671 54.5,74C 64.6601,77.1713 71.1601,73.6713 74,63.5C 78.7437,59.0296 80.2437,53.6963 78.5,47.5C 75.667,46.0668 72.667,45.4001 69.5,45.5C 69.2865,43.8561 69.6198,42.3561 70.5,41C 73.1873,39.8049 75.854,39.6382 78.5,40.5C 80.3624,36.9322 79.3624,34.7655 75.5,34C 72.6529,33.0561 70.1529,33.5561 68,35.5C 65.9851,33.5217 66.1517,31.6884 68.5,30C 71.146,29.5026 73.8127,29.3359 76.5,29.5C 76.2465,22.4014 72.9132,17.2347 66.5,14C 54.2645,7.90341 42.2645,8.23675 30.5,15C 24.6596,22.8733 22.493,31.7067 24,41.5C 29.5664,52.3173 30.8998,63.6506 28,75.5C 25.1668,81.5067 20.6668,85.5067 14.5,87.5C 12.1667,87.5 9.83333,87.5 7.5,87.5C 7.5,86.1667 7.5,84.8333 7.5,83.5C 19.4327,82.3607 25.4327,75.694 25.5,63.5C 23.9752,56.7574 22.1418,50.0907 20,43.5C 17.6303,31.4493 20.1303,20.616 27.5,11C 39.7292,4.88784 52.3959,3.88784 65.5,8C 77.1913,14.1925 83.1913,24.0259 83.5,37.5C 83.2934,44.0863 83.1268,50.7529 83,57.5C 80.253,62.8792 77.5864,68.2125 75,73.5C 72.5925,75.9561 69.7591,77.7894 66.5,79C 72.3232,80.895 78.3232,81.895 84.5,82C 87.0352,82.9282 88.0352,84.7615 87.5,87.5C 86.1667,87.5 84.8333,87.5 83.5,87.5 Z"/>
        </g>
        <g>
            <path style="opacity:1" fill="#fafbfb"
                  d="M 83.5,87.5 C 75.5,87.5 67.5,87.5 59.5,87.5C 59.5,86.1667 59.5,84.8333 59.5,83.5C 56.5683,83.2843 53.9017,83.951 51.5,85.5C 48.4291,83.82 45.0958,83.1533 41.5,83.5C 41.5,84.8333 41.5,86.1667 41.5,87.5C 32.5,87.5 23.5,87.5 14.5,87.5C 20.6668,85.5067 25.1668,81.5067 28,75.5C 30.8998,63.6506 29.5664,52.3173 24,41.5C 22.493,31.7067 24.6596,22.8733 30.5,15C 42.2645,8.23675 54.2645,7.90341 66.5,14C 72.9132,17.2347 76.2465,22.4014 76.5,29.5C 73.8127,29.3359 71.146,29.5026 68.5,30C 66.1517,31.6884 65.9851,33.5217 68,35.5C 70.1529,33.5561 72.6529,33.0561 75.5,34C 79.3624,34.7655 80.3624,36.9322 78.5,40.5C 75.854,39.6382 73.1873,39.8049 70.5,41C 69.6198,42.3561 69.2865,43.8561 69.5,45.5C 72.667,45.4001 75.667,46.0668 78.5,47.5C 80.2437,53.6963 78.7437,59.0296 74,63.5C 71.1601,73.6713 64.6601,77.1713 54.5,74C 49.3656,69.8671 44.5323,65.3671 40,60.5C 38.4383,56.9855 37.605,53.3189 37.5,49.5C 36.1667,49.5 34.8333,49.5 33.5,49.5C 33.8076,53.5948 34.6409,57.5948 36,61.5C 41.1667,66.6667 46.3333,71.8333 51.5,77C 54.789,79.2088 58.4557,80.0421 62.5,79.5C 62.5,80.8333 62.5,82.1667 62.5,83.5C 69.0831,84.7812 75.7498,85.6145 82.5,86C 83.056,86.3826 83.3893,86.8826 83.5,87.5 Z"/>
        </g>
        <g>
            <path style="opacity:1" fill="#3e4d55"
                  d="M 49.5,21.5 C 56.734,22.7655 64.0673,23.4322 71.5,23.5C 71.5,24.8333 71.5,26.1667 71.5,27.5C 65.3559,27.8223 59.3559,27.1556 53.5,25.5C 48.2759,26.9695 42.9426,27.6361 37.5,27.5C 37.5,26.1667 37.5,24.8333 37.5,23.5C 41.7643,23.6558 45.7643,22.9891 49.5,21.5 Z"/>
        </g>
        <g>
            <path style="opacity:1" fill="#3c4b53"
                  d="M 48.5,29.5 C 51.5,29.5 54.5,29.5 57.5,29.5C 57.5,30.8333 57.5,32.1667 57.5,33.5C 52.6632,33.1162 47.9966,33.7829 43.5,35.5C 42.3861,34.277 42.2195,32.9437 43,31.5C 44.9483,30.8906 46.7816,30.224 48.5,29.5 Z"/>
        </g>
        <g>
            <path style="opacity:1" fill="#405057"
                  d="M 45.5,37.5 C 49.3913,37.6085 53.058,38.6085 56.5,40.5C 57.4519,42.0453 57.7852,43.712 57.5,45.5C 53.8183,45.6653 50.1516,45.4986 46.5,45C 42.9719,43.0157 42.6386,40.5157 45.5,37.5 Z"/>
        </g>
        <g>
            <path style="opacity:1" fill="#f1f2f3"
                  d="M 46.5,39.5 C 47.5,39.5 48.5,39.5 49.5,39.5C 49.762,40.9778 49.4287,42.3112 48.5,43.5C 46.8888,42.6798 46.2222,41.3464 46.5,39.5 Z"/>
        </g>
        <g>
            <path style="opacity:1" fill="#e6e8e9"
                  d="M 71.5,43.5 C 72.7082,42.218 74.0416,42.218 75.5,43.5C 74.4425,43.9059 73.1092,43.9059 71.5,43.5 Z"/>
        </g>
        <g>
            <path style="opacity:1" fill="#3e4e56"
                  d="M 63.5,45.5 C 64.8333,45.5 66.1667,45.5 67.5,45.5C 66.9454,49.3872 68.2787,52.3872 71.5,54.5C 70.0541,56.6179 69.3874,58.9512 69.5,61.5C 67.5,61.5 65.5,61.5 63.5,61.5C 63.5,60.1667 63.5,58.8333 63.5,57.5C 64.5,57.5 65.5,57.5 66.5,57.5C 64.3574,53.8518 63.3574,49.8518 63.5,45.5 Z"/>
        </g>
        <g>
            <path style="opacity:1" fill="#3c4b53"
                  d="M 55.5,52.5 C 56.5,52.5 57.5,52.5 58.5,52.5C 58.5792,53.9305 58.2458,55.2638 57.5,56.5C 59.0049,57.8415 59.6715,59.5082 59.5,61.5C 53.564,60.625 52.2307,57.625 55.5,52.5 Z"/>
        </g>
        <g>
            <path style="opacity:1" fill="#394951"
                  d="M 53.5,64.5 C 58.8049,65.1942 64.1383,65.5276 69.5,65.5C 69.5,66.8333 69.5,68.1667 69.5,69.5C 64.0873,69.7712 58.7539,69.2712 53.5,68C 52.3157,66.8545 52.3157,65.6879 53.5,64.5 Z"/>
        </g>
        <g>
            <path style="opacity:0.969" fill="#384850"
                  d="M 59.5,87.5 C 57.0023,88.627 54.3356,89.2937 51.5,89.5C 48.1581,88.8262 44.8248,88.1595 41.5,87.5C 41.5,86.1667 41.5,84.8333 41.5,83.5C 45.0958,83.1533 48.4291,83.82 51.5,85.5C 53.9017,83.951 56.5683,83.2843 59.5,83.5C 59.5,84.8333 59.5,86.1667 59.5,87.5 Z"/>
        </g>
    </g>

    <g id="css">
        <path d="M22.1325 101.154L13.71 7.4375H106.29L97.8562 101.139L59.9437 111.562L22.1325 101.154Z" fill="#1572B6"/>
        <path d="M60 103.597L90.6375 95.1739L97.845 15.1018H60V103.597Z" fill="#33A9DC"/>
        <path d="M60 49.054H75.3375L76.395 37.2842H60V25.7896H89.0625L88.785 28.8724L85.9387 60.5487H60V49.054Z"
              fill="white"/>
        <path d="M60.0713 78.9045L60.0188 78.9193L47.1113 75.4609L46.2863 66.2942H34.65L36.2738 84.3413L60.015 90.8788L60.0713 90.864V78.9045Z"
              fill="#EBEBEB"/>
        <path d="M74.3513 60.0615L72.9563 75.4534L60.03 78.9119V90.8714L83.79 84.3412L83.9663 82.4001L85.98 60.0615H74.3513Z"
              fill="white"/>
        <path d="M60.0413 25.7896V37.2842H32.0438L31.8113 34.6997L31.2825 28.8724L31.005 25.7896H60.0413ZM60 49.054V60.5487H47.2538L47.0213 57.9642L46.4963 52.1369L46.2188 49.054H60Z"
              fill="#EBEBEB"/>

    </g>
    <g id="html">
        <path d="M22.1325 102.004L13.7063 7.5H106.294L97.8563 101.989L59.9438 112.5L22.1325 102.004Z" fill="#E44F26"/>
        <path d="M60 104.468L90.6375 95.9738L97.845 15.2288H60V104.468Z" fill="#F1662A"/>
        <path d="M60 50.2763H44.6625L43.605 38.4075H60V26.8163H30.9375L31.215 29.9288L34.0613 61.8675H60V50.2763ZM60 80.3775L59.9475 80.3925L47.04 76.9088L46.215 67.665H34.5787L36.2025 85.86L59.9475 92.4525L60 92.4375V80.3775Z"
              fill="#EBEBEB"/>
        <path d="M59.9587 50.2763V61.8675H74.2312L72.8887 76.9013L59.9587 80.3888V92.4488L83.7225 85.86L83.895 83.9025L86.6175 53.3888L86.9025 50.2763H59.9587ZM59.9587 26.8163V38.4075H87.9562L88.1887 35.805L88.7175 29.9288L88.995 26.8163H59.9587Z"
              fill="white"/>
    </g>
    <g id="js">
        <path d="M7.5 7.5H112.5V112.5H7.5V7.5Z" fill="#F5DE19"/>
        <path d="M78.0338 89.5312C78.9284 91.3485 80.3183 92.8759 82.0434 93.9375C83.7684 94.9991 85.7584 95.5515 87.7838 95.5313C91.8713 95.5313 94.485 93.4875 94.485 90.6562C94.485 87.2812 91.8 86.0738 87.3 84.105L84.8325 83.0475C77.7075 80.0138 72.9825 76.215 72.9825 68.1825C72.9825 60.7838 78.6075 55.1475 87.4313 55.1475C90.2877 54.9412 93.1416 55.5805 95.637 56.9856C98.1324 58.3907 100.159 60.4994 101.464 63.0488L93.75 67.98C93.2476 66.716 92.3728 65.6345 91.2416 64.879C90.1105 64.1236 88.7764 63.7298 87.4163 63.75C86.8229 63.6906 86.2236 63.7555 85.6567 63.9404C85.0897 64.1254 84.5675 64.4265 84.1234 64.8244C83.6792 65.2224 83.3228 65.7085 83.0769 66.2518C82.831 66.7951 82.7009 67.3837 82.695 67.98C82.695 70.9388 84.5288 72.1388 88.7625 73.98L91.23 75.0375C99.615 78.6338 104.355 82.2975 104.355 90.5363C104.355 99.42 97.3763 104.287 88.005 104.287C84.3537 104.52 80.713 103.691 77.5223 101.901C74.3317 100.11 71.7274 97.4342 70.0238 94.1963L78.0338 89.5312ZM43.1775 90.3863C44.7263 93.135 46.1363 95.46 49.5263 95.46C52.7663 95.46 54.8138 94.1925 54.8138 89.2612V55.71H64.68V89.3925C64.68 99.6075 58.68 104.257 49.9463 104.257C46.8591 104.426 43.7931 103.657 41.1513 102.051C38.5096 100.444 36.4157 98.0761 35.145 95.2575L43.1775 90.3863Z"
              fill="black"/>
    </g>
    <g id="git">
        <path d="M103.02 47.8219L57.1758 1.98038C54.5372 -0.6598 50.2552 -0.6598 47.6134 1.98038L38.0937 11.5001L50.1699 23.5763C52.9762 22.6281 56.1943 23.2642 58.4313 25.5012C60.6789 27.7525 61.3106 30.9981 60.3393 33.8134L71.9775 45.452C74.7932 44.482 78.0421 45.1095 80.291 47.3621C83.434 50.5039 83.434 55.596 80.291 58.7399C77.1471 61.8841 72.055 61.8841 68.9095 58.7399C66.5454 56.3733 65.9613 52.9013 67.1582 49.9888L56.3046 39.1352L56.3034 67.6973C57.0902 68.0863 57.8088 68.6002 58.4313 69.2189C61.5743 72.3607 61.5743 77.4532 58.4313 80.5995C55.2874 83.7422 50.1929 83.7422 47.0535 80.5995C43.9105 77.4532 43.9105 72.3611 47.0535 69.2193C47.8067 68.4658 48.7019 67.869 49.6871 67.4635V38.6352C48.7004 38.2324 47.8048 37.6353 47.0535 36.8793C44.6722 34.5013 44.0996 31.0071 45.3198 28.0831L33.4154 16.1775L1.98105 47.6099C-0.660352 50.2525 -0.660352 54.5349 1.98105 57.1755L47.8259 103.018C50.4652 105.658 54.7464 105.658 57.3891 103.018L103.019 57.3884C105.66 54.747 105.66 50.4621 103.019 47.8219"
              fill="#DE4C36"/>
    </g>
    <g id="react">
        <path d="M92.9056 32.7028C91.7031 32.2887 90.4904 31.9051 89.2687 31.5524C89.4739 30.7107 89.6628 29.8792 89.8306 29.0624C92.5838 15.6484 90.7839 4.84184 84.6361 1.28381C78.7416 -2.12716 69.1016 1.42955 59.3659 9.93348C58.4064 10.7731 57.4682 11.6369 56.5522 12.524C55.9389 11.9341 55.3149 11.3556 54.6803 10.7889C44.4767 1.69623 34.2493 -2.13602 28.1081 1.43221C22.2189 4.8538 20.475 15.0127 22.9538 27.7254C23.2004 28.9845 23.4788 30.2371 23.7888 31.4819C22.3412 31.8948 20.9442 32.3342 19.6073 32.802C7.64443 36.9882 0.00476074 43.5483 0.00476074 50.353C0.00476074 57.3809 8.20629 64.4301 20.6662 68.7044C21.6763 69.0495 22.6949 69.3693 23.7209 69.6635C23.3877 71.0042 23.0918 72.3541 22.8337 73.7114C20.4706 86.2035 22.316 96.1224 28.1893 99.5223C34.2555 103.033 44.437 99.4248 54.3506 90.7268C55.1545 90.0197 55.9407 89.2925 56.7084 88.546C57.7004 89.5067 58.7189 90.4394 59.7627 91.343C69.366 99.6365 78.8502 102.985 84.7177 99.5763C90.7782 96.055 92.748 85.3995 90.1907 72.4357C89.9893 71.42 89.7634 70.4094 89.5132 69.4048C90.2282 69.1921 90.93 68.9733 91.6141 68.7456C104.567 64.4385 112.995 57.4748 112.995 50.353C112.995 43.5235 105.109 36.9191 92.9056 32.7028ZM90.0963 64.1474C89.4783 64.3525 88.8445 64.5506 88.1984 64.7433C86.7683 60.1996 84.8387 55.3684 82.4769 50.3764C84.7305 45.5036 86.586 40.7341 87.9759 36.2201C89.1319 36.5558 90.2534 36.9098 91.3347 37.2832C101.791 40.8962 108.169 46.2372 108.169 50.353C108.169 54.7367 101.281 60.4277 90.0963 64.1474ZM85.4557 73.3765C86.5865 79.1087 86.7476 84.2916 85.9986 88.3436C85.3259 91.9845 83.9727 94.4116 82.299 95.3839C78.7385 97.4526 71.1235 94.7637 62.911 87.6707C61.9401 86.8305 60.9927 85.9634 60.0699 85.0704C63.2539 81.5757 66.4358 77.5131 69.5412 73.0009C75.0036 72.5145 80.1641 71.7189 84.844 70.6332C85.0694 71.5426 85.2734 72.4574 85.4557 73.3765ZM38.5257 95.0264C35.0469 96.2592 32.2759 96.2947 30.6009 95.3254C27.0369 93.2625 25.5552 85.2981 27.5762 74.6151C27.8165 73.3527 28.0916 72.0973 28.4012 70.8502C33.0294 71.8779 38.1523 72.6168 43.6275 73.0625C46.7542 77.4777 50.0278 81.5358 53.3271 85.0894C52.6259 85.7704 51.9082 86.4339 51.1745 87.0793C46.7904 90.9253 42.3974 93.6541 38.5257 95.0264ZM22.2277 64.1204C16.7181 62.2302 12.168 59.7739 9.04931 57.0934C6.24661 54.6849 4.83202 52.2932 4.83202 50.353C4.83202 46.2235 10.9657 40.9564 21.1962 37.3767C22.4378 36.9426 23.7372 36.5328 25.0856 36.1483C26.4997 40.7642 28.3544 45.5905 30.5926 50.4708C28.3252 55.4233 26.4441 60.3267 25.0163 64.9971C24.0798 64.7278 23.15 64.4355 22.2277 64.1204ZM27.691 26.7947C25.5676 15.9031 26.9777 7.68712 30.5268 5.62504C34.3067 3.42873 42.6653 6.56017 51.4755 14.4116C52.05 14.9247 52.6152 15.4483 53.1708 15.982C49.8879 19.5201 46.6443 23.5481 43.5454 27.9372C38.2313 28.4315 33.1446 29.2254 28.4678 30.289C28.1797 29.1311 27.9206 27.9661 27.691 26.7952V26.7947ZM76.4301 38.874C75.3255 36.9589 74.1799 35.068 72.9941 33.2025C76.5992 33.6601 80.0533 34.2674 83.297 35.0098C82.3233 38.1426 81.1095 41.4176 79.6808 44.7754C78.6365 42.7867 77.5527 40.8192 76.4301 38.874ZM56.5544 19.4443C58.7806 21.8652 61.0104 24.5679 63.2036 27.5004C58.7546 27.2895 54.2982 27.2886 49.8491 27.4977C52.0445 24.5922 54.2932 21.8931 56.5544 19.4443ZM36.5511 38.9072C35.4425 40.8368 34.3789 42.792 33.3613 44.7714C31.956 41.4255 30.7532 38.1355 29.7712 34.9584C32.9949 34.2346 36.4328 33.6428 40.0149 33.1936C38.8159 35.0705 37.661 36.9754 36.5511 38.9067V38.9072ZM40.1178 67.857C36.4169 67.4424 32.9274 66.8811 29.7045 66.1768C30.702 62.943 31.9312 59.583 33.367 56.1653C34.3887 58.1462 35.4567 60.1026 36.57 62.0331C37.7149 64.0177 38.9005 65.9615 40.1178 67.857ZM56.6877 81.6027C54.3996 79.1256 52.1177 76.3848 49.8892 73.4372C52.0528 73.5223 54.2584 73.5657 56.5001 73.5657C58.8031 73.5657 61.0797 73.5139 63.3206 73.4138C61.1203 76.4145 58.8989 79.1592 56.6877 81.6027ZM79.7263 55.9908C81.2366 59.4461 82.5096 62.7884 83.5203 65.9668C80.2444 66.7172 76.7073 67.3214 72.9804 67.7702C74.1746 65.87 75.3311 63.9462 76.4491 61.9999C77.5858 60.0215 78.6784 58.018 79.7263 55.9908ZM72.268 59.5794C70.5565 62.5635 68.7487 65.491 66.8475 68.3571C63.4038 68.6019 59.9525 68.7235 56.5001 68.7217C52.9837 68.7217 49.5635 68.6118 46.27 68.3974C44.3193 65.5379 42.477 62.6053 40.7472 59.606H40.7476C39.0259 56.6225 37.4177 53.5745 35.9265 50.4686C37.4139 47.3619 39.0172 44.3125 40.733 41.3268L40.7326 41.3272C42.4478 38.3407 44.2753 35.4207 46.2113 32.5734C49.5715 32.3183 53.0172 32.1854 56.4996 32.1854H56.5001C59.9984 32.1854 63.4486 32.3196 66.8078 32.5765C68.7243 35.4195 70.5402 38.3295 72.2521 41.3011C73.9736 44.2802 75.5982 47.3148 77.1231 50.3999C75.6138 53.5166 73.9944 56.5784 72.268 59.5794ZM82.2253 5.48062C86.0087 7.67073 87.4803 16.5025 85.103 28.0842C84.9512 28.8231 84.7808 29.5758 84.5955 30.339C79.9072 29.2528 74.8169 28.4453 69.4874 27.9434C66.3828 23.506 63.1656 19.4718 59.9361 15.9793C60.7825 15.1605 61.6491 14.3628 62.5349 13.5872C70.8768 6.30147 78.6732 3.42474 82.2253 5.48062ZM56.5001 40.2264C62.0724 40.2264 66.5898 44.7603 66.5898 50.353C66.5898 55.9456 62.0724 60.4796 56.5001 60.4796C50.9278 60.4796 46.4104 55.9456 46.4104 50.353C46.4104 44.7603 50.9278 40.2264 56.5001 40.2264Z"
              fill="#00D8FF"/>
    </g>
    <g id="tailwind">
        <path d="M36.8438 56.0844C40.6646 40.8011 50.2167 33.1594 65.5 33.1594C88.425 33.1594 91.2906 50.3532 102.753 53.2188C110.395 55.1292 117.081 52.2636 122.812 44.6219C118.992 59.9053 109.44 67.5469 94.1562 67.5469C71.2313 67.5469 68.3656 50.3532 56.9031 47.4875C49.2615 45.5771 42.575 48.4428 36.8438 56.0844ZM8.1875 90.4719C12.0083 75.1886 21.5604 67.5469 36.8438 67.5469C59.7687 67.5469 62.6344 84.7407 74.0969 87.6063C81.7385 89.5167 88.425 86.6511 94.1562 79.0094C90.3354 94.2928 80.7833 101.934 65.5 101.934C42.575 101.934 39.7094 84.7407 28.2469 81.875C20.6052 79.9646 13.9187 82.8303 8.1875 90.4719Z"
              fill="#44A8B3"/>
    </g>
    <g id="vscode">
        <path d="M101.535 17.605L81.354 7.88899C80.2143 7.33948 78.9319 7.15814 77.6845 7.37011C76.4372 7.58208 75.2867 8.17686 74.3925 9.07199L8.32998 69.3C7.52845 70.0273 7.04865 71.0432 6.99614 72.1243C6.94363 73.2053 7.32271 74.2629 8.04998 75.0645C8.13748 75.159 8.22498 75.25 8.31948 75.334L13.713 80.234C14.4178 80.8754 15.3249 81.2497 16.277 81.2919C17.229 81.3341 18.1657 81.0416 18.9245 80.465L98.497 20.125C99.098 19.6689 99.8144 19.3897 100.566 19.3186C101.317 19.2476 102.073 19.3877 102.749 19.7231C103.424 20.0585 103.993 20.5758 104.391 21.217C104.789 21.8581 105 22.5975 105 23.352V23.1175C105 21.9656 104.675 20.8372 104.062 19.862C103.449 18.8868 102.573 18.1045 101.535 17.605Z"
              fill="#0065A9"/>
        <path d="M101.535 94.395L81.354 104.115C80.214 104.662 78.9319 104.843 77.6849 104.631C76.4379 104.419 75.2875 103.825 74.3925 102.932L8.32998 42.7C7.52845 41.9727 7.04865 40.9568 6.99614 39.8758C6.94363 38.7947 7.32271 37.7371 8.04998 36.9355C8.13748 36.841 8.22498 36.75 8.31948 36.666L13.713 31.766C14.4185 31.1219 15.3277 30.7459 16.2821 30.7037C17.2365 30.6615 18.1754 30.9557 18.935 31.535L98.497 91.875C99.098 92.3311 99.8144 92.6104 100.566 92.6814C101.317 92.7524 102.073 92.6123 102.749 92.2769C103.424 91.9415 103.993 91.4242 104.391 90.783C104.789 90.1419 105 89.4025 105 88.648V88.9C104.996 90.0488 104.669 91.1733 104.057 92.1451C103.444 93.1168 102.57 93.8965 101.535 94.395Z"
              fill="#007ACC"/>
        <path d="M81.354 104.115C80.214 104.662 78.932 104.843 77.685 104.631C76.438 104.419 75.2876 103.825 74.3925 102.932C74.8952 103.428 75.533 103.764 76.2261 103.899C76.9193 104.035 77.6369 103.962 78.289 103.691C78.9412 103.42 79.4988 102.963 79.8921 102.376C80.2855 101.79 80.4969 101.1 80.5 100.394V11.606C80.5006 10.8965 80.2906 10.2028 79.8966 9.61281C79.5026 9.02277 78.9424 8.56294 78.2868 8.29158C77.6313 8.02022 76.91 7.94953 76.2142 8.08846C75.5184 8.2274 74.8796 8.56971 74.3785 9.07204C75.2729 8.17723 76.4232 7.58242 77.6703 7.36986C78.9174 7.1573 80.1998 7.3375 81.34 7.88554L101.518 17.5875C102.559 18.0845 103.438 18.8658 104.054 19.8412C104.671 20.8166 104.998 21.9463 105 23.1V88.9C105 90.0528 104.675 91.1823 104.061 92.1582C103.448 93.1341 102.571 93.9168 101.532 94.416L81.354 104.115Z"
              fill="#1F9CF0"/>
    </g>
    <!-- arrows-->
    <g id="arrowGoTop">
        <path style="opacity:0.996" fill="#74def2"
              d="M 36.5,8.5 C 36.1412,10.371 35.1412,11.871 33.5,13C 30.456,13.3629 27.456,13.8629 24.5,14.5C 22.9106,13.3789 21.2439,13.5456 19.5,15C 16.716,17.1122 14.716,19.7788 13.5,23C 13.5699,23.7648 13.9033,24.2648 14.5,24.5C 13.8629,27.456 13.3629,30.456 13,33.5C 11.871,35.1412 10.371,36.1412 8.5,36.5C 7.5,16.8333 16.8333,7.5 36.5,8.5 Z"/>
    </g>
    <g>
        <path style="opacity:0.944" fill="#37cfed"
              d="M 36.5,8.5 C 46.1667,10.8333 52.1667,16.8333 54.5,26.5C 52.9102,26.6282 51.5769,27.2949 50.5,28.5C 49.906,33.4489 48.406,38.1156 46,42.5C 44.1433,45.1998 41.6433,46.8665 38.5,47.5C 37.5084,47.6716 36.8417,47.3382 36.5,46.5C 47.7498,39.5339 49.4165,30.7006 41.5,20C 35.7842,15.9687 29.7842,15.4687 23.5,18.5C 22.8333,18.1667 22.1667,17.8333 21.5,17.5C 22.6935,16.7281 23.6935,15.7281 24.5,14.5C 27.456,13.8629 30.456,13.3629 33.5,13C 35.1412,11.871 36.1412,10.371 36.5,8.5 Z"/>
    </g>
    <g>
        <path style="opacity:1" fill="#f6fcfe"
              d="M 24.5,14.5 C 23.6935,15.7281 22.6935,16.7281 21.5,17.5C 18.8061,19.5272 16.4728,21.8605 14.5,24.5C 13.9033,24.2648 13.5699,23.7648 13.5,23C 14.716,19.7788 16.716,17.1122 19.5,15C 21.2439,13.5456 22.9106,13.3789 24.5,14.5 Z"/>
    </g>
    <g>
        <path style="opacity:0.981" fill="#008aa9"
              d="M 28.5,19.5 C 36.2204,20.8908 40.5538,25.5575 41.5,33.5C 39.8333,33.5 38.1667,33.5 36.5,33.5C 36.5,37.1667 36.5,40.8333 36.5,44.5C 33.1667,44.5 29.8333,44.5 26.5,44.5C 26.5,40.8333 26.5,37.1667 26.5,33.5C 24.8333,33.5 23.1667,33.5 21.5,33.5C 21.3398,31.8008 21.5065,30.1341 22,28.5C 24.41,25.6032 26.5767,22.6032 28.5,19.5 Z"/>
    </g>
    <g>
        <path style="opacity:0.94" fill="#38d0ee"
              d="M 21.5,17.5 C 22.1667,17.8333 22.8333,18.1667 23.5,18.5C 13.8524,27.7723 14.1857,36.6056 24.5,45C 28.3628,46.3537 32.3628,46.8537 36.5,46.5C 36.8417,47.3382 37.5084,47.6716 38.5,47.5C 35.4044,48.9185 32.0711,49.9185 28.5,50.5C 27.2949,51.5769 26.6282,52.9102 26.5,54.5C 16.8333,52.1667 10.8333,46.1667 8.5,36.5C 10.371,36.1412 11.871,35.1412 13,33.5C 13.3629,30.456 13.8629,27.456 14.5,24.5C 16.4728,21.8605 18.8061,19.5272 21.5,17.5 Z"/>
    </g>
    <g>
        <path style="opacity:0.955" fill="#2fb2cb"
              d="M 54.5,26.5 C 55.5,46.1667 46.1667,55.5 26.5,54.5C 26.6282,52.9102 27.2949,51.5769 28.5,50.5C 32.0711,49.9185 35.4044,48.9185 38.5,47.5C 41.6433,46.8665 44.1433,45.1998 46,42.5C 48.406,38.1156 49.906,33.4489 50.5,28.5C 51.5769,27.2949 52.9102,26.6282 54.5,26.5 Z"/>
    </g>
    <g>
        <path style="opacity:0.258" fill="#000000"
              d="M 45.5,63.5 C 36.1667,63.5 26.8333,63.5 17.5,63.5C 16.1225,62.7656 14.6225,62.0989 13,61.5C 12.3828,60.5509 12.5494,59.7175 13.5,59C 25.5,57 37.5,57 49.5,59C 50.4506,59.7175 50.6172,60.5509 50,61.5C 48.3775,62.0989 46.8775,62.7656 45.5,63.5 Z"/>
    </g>
    <!-- social-->
    <path id="facebook" d="M119 781 c-97 -32 -109 -67 -113 -334 -6 -362 7 -380 289 -424 203
-31 316 -18 359 40 20 26 21 46 27 275 11 406 2 422 -230 433 -75 4 -174 10
-221 13 -47 3 -97 2 -111 -3z m290 -175 c7 -8 11 -27 9 -43 -2 -22 -9 -29 -30
-31 -32 -4 -43 -29 -29 -66 8 -20 17 -26 41 -26 26 0 30 -4 30 -26 0 -36 -17
-64 -40 -64 -30 0 -34 -18 -35 -145 0 -114 -1 -120 -21 -123 -11 -2 -32 6 -45
17 -26 21 -30 64 -19 195 5 57 4 60 -20 66 -21 5 -25 12 -25 45 0 34 3 40 23
43 19 3 22 9 22 47 0 52 14 95 37 113 23 17 88 15 102 -2z"/>
    <path id="instagram" d="M552 650 c-6 -26 -6 -55 0 -86 8 -36 7 -55 -7 -89 -32 -86 -56 -78
-53 20 1 51 -17 100 -47 125 -13 11 -12 6 4 -21 17 -30 20 -55 23 -214 3 -175
2 -181 -22 -230 -21 -42 -31 -52 -65 -62 l-40 -11 46 -1 c48 -1 91 -22 71 -35
-7 -4 -12 -14 -12 -23 0 -13 11 -15 63 -11 70 5 126 27 145 59 23 37 26 123 7
194 -13 48 -14 69 -6 78 14 18 27 152 13 143 -17 -10 -23 25 -7 47 8 12 15 41
15 64 0 43 -12 56 -27 28 -7 -11 -14 -6 -33 25 -32 52 -55 52 -68 0z"/>
    <path d="M94 609 l-29 -30 -3 -146 c-2 -80 -1 -156 2 -169 7 -28 54 -84 69
-84 7 0 4 5 -5 10 -9 6 -24 30 -34 55 -14 38 -16 64 -10 167 8 129 21 179 55
200 26 16 27 28 3 28 -10 0 -31 -14 -48 -31z"/>
    <path d="M191 626 c2 -2 42 -6 89 -9 48 -3 76 -1 65 3 -19 8 -163 14 -154 6z"/>
    <path d="M405 552 c4 -13 1 -29 -5 -37 -10 -12 -9 -15 9 -15 25 0 28 27 5 56
-15 18 -15 18 -9 -4z"/>
    <path d="M347 473 c28 -55 27 -107 -3 -169 -15 -30 -29 -43 -64 -56 l-45 -17
37 0 c80 -2 109 31 116 129 5 70 -7 108 -46 143 -18 16 -17 13 5 -30z"/>
    <path d="M186 469 c-37 -43 -37 -115 0 -150 l26 -24 -17 30 c-15 26 -16 36 -5
74 13 50 53 96 76 87 9 -3 12 -1 9 4 -13 22 -63 10 -89 -21z"/>
    <path d="M160 121 c13 -10 99 -16 89 -7 -2 2 -26 6 -54 10 -36 5 -46 4 -35 -3z"/>
    <path d="M318 93 c7 -3 16 -2 19 1 4 3 -2 6 -13 5 -11 0 -14 -3 -6 -6z"/>
    <path id="twitter"
          d="M 64.5,0.5 C 64.5,0.166667 64.5,-0.166667 64.5,-0.5C 65.1667,-0.5 65.8333,-0.5 66.5,-0.5C 66.1583,0.338246 65.4916,0.67158 64.5,0.5 Z"/>
    <path id="pinterest"
          d="M 18.5,-0.5 C 18.8333,-0.5 19.1667,-0.5 19.5,-0.5C 19.5,-0.166667 19.5,0.166667 19.5,0.5C 19.1667,0.166667 18.8333,-0.166667 18.5,-0.5 Z"/>

</svg>