<?xml version="1.0" encoding="UTF-8"?>
<!DOCTYPE svg PUBLIC "-//W3C//DTD SVG 1.1//EN" "http://www.w3.org/Graphics/SVG/1.1/DTD/svg11.dtd">
<svg xmlns="http://www.w3.org/2000/svg" version="1.1" width="69px" height="67px" style="shape-rendering:geometricPrecision; text-rendering:geometricPrecision; image-rendering:optimizeQuality; fill-rule:evenodd; clip-rule:evenodd" xmlns:xlink="http://www.w3.org/1999/xlink">
<g><path style="opacity:0.979" fill="#f298b4" d="M 28.5,-0.5 C 31.8333,-0.5 35.1667,-0.5 38.5,-0.5C 35.0786,3.88742 30.7453,5.38742 25.5,4C 23.3907,5.64555 21.0573,6.81221 18.5,7.5C 18.8588,5.62901 19.8588,4.12901 21.5,3C 24.0691,2.10163 26.4024,0.934959 28.5,-0.5 Z"/></g>
<g><path style="opacity:0.012" fill="#eba2b6" d="M 46.5,-0.5 C 46.8333,-0.5 47.1667,-0.5 47.5,-0.5C 47.3147,0.170143 46.9813,0.170143 46.5,-0.5 Z"/></g>
<g><path style="opacity:0.012" fill="#eda0b5" d="M 48.5,0.5 C 49.8333,1.16667 49.8333,1.16667 48.5,0.5 Z"/></g>
<g><path style="opacity:1" fill="#f09cb6" d="M 38.5,-0.5 C 39.1667,-0.5 39.8333,-0.5 40.5,-0.5C 40.5,-0.166667 40.5,0.166667 40.5,0.5C 35.8566,2.97883 32.3566,6.64549 30,11.5C 26.5781,15.0929 23.0781,18.4262 19.5,21.5C 18.5139,17.03 18.1805,12.3633 18.5,7.5C 21.0573,6.81221 23.3907,5.64555 25.5,4C 30.7453,5.38742 35.0786,3.88742 38.5,-0.5 Z"/></g>
<g><path style="opacity:0.999" fill="#ea96ae" d="M 40.5,0.5 C 40.369,1.23891 40.5357,1.90558 41,2.5C 43.3256,4.06571 45.4922,5.73238 47.5,7.5C 45.8333,7.5 44.1667,7.5 42.5,7.5C 42.6882,9.10326 42.1882,10.4366 41,11.5C 38.6194,10.565 36.1194,10.2317 33.5,10.5C 33.67,11.8221 33.3366,12.9887 32.5,14C 29.0284,16.1541 25.695,18.4874 22.5,21C 23.056,21.3826 23.3893,21.8826 23.5,22.5C 22.609,23.1098 21.609,23.4431 20.5,23.5C 19.6618,23.1583 19.3284,22.4916 19.5,21.5C 23.0781,18.4262 26.5781,15.0929 30,11.5C 32.3566,6.64549 35.8566,2.97883 40.5,0.5 Z"/></g>
<g><path style="opacity:0.998" fill="#ea9eb2" d="M 40.5,-0.5 C 41.5,-0.5 42.5,-0.5 43.5,-0.5C 44.209,0.403972 45.209,0.737305 46.5,0.5C 46.8417,1.33825 47.5084,1.67158 48.5,1.5C 50.9266,3.55755 53.5932,5.39089 56.5,7C 57.8228,7.81595 58.4894,8.98261 58.5,10.5C 56.5,10.5 54.5,10.5 52.5,10.5C 50.9991,9.24848 49.3325,8.24848 47.5,7.5C 45.4922,5.73238 43.3256,4.06571 41,2.5C 40.5357,1.90558 40.369,1.23891 40.5,0.5C 40.5,0.166667 40.5,-0.166667 40.5,-0.5 Z"/></g>
<g><path style="opacity:1" fill="#e587a0" d="M 47.5,7.5 C 49.3325,8.24848 50.9991,9.24848 52.5,10.5C 52.5,10.8333 52.5,11.1667 52.5,11.5C 42.1002,13.4084 32.4335,17.0751 23.5,22.5C 23.3893,21.8826 23.056,21.3826 22.5,21C 25.695,18.4874 29.0284,16.1541 32.5,14C 33.3366,12.9887 33.67,11.8221 33.5,10.5C 36.1194,10.2317 38.6194,10.565 41,11.5C 42.1882,10.4366 42.6882,9.10326 42.5,7.5C 44.1667,7.5 45.8333,7.5 47.5,7.5 Z"/></g>
<g><path style="opacity:0.004" fill="#f69fbc" d="M 6.5,9.5 C 7.83333,10.1667 7.83333,10.1667 6.5,9.5 Z"/></g>
<g><path style="opacity:0.012" fill="#f39bb8" d="M 6.5,12.5 C 5.83333,11.1667 5.83333,11.1667 6.5,12.5 Z"/></g>
<g><path style="opacity:0.937" fill="#d57272" d="M 52.5,11.5 C 52.5,11.1667 52.5,10.8333 52.5,10.5C 54.5,10.5 56.5,10.5 58.5,10.5C 61.204,10.6696 62.8707,12.0029 63.5,14.5C 59.6449,13.9543 55.9782,12.9543 52.5,11.5 Z"/></g>
<g><path style="opacity:0.012" fill="#cf7373" d="M 64.5,14.5 C 64.369,13.7611 64.5357,13.0944 65,12.5C 65.6917,13.4368 65.525,14.1034 64.5,14.5 Z"/></g>
<g><path style="opacity:0.008" fill="#f194b2" d="M 5.5,15.5 C 4.47498,15.1034 4.30831,14.4368 5,13.5C 5.46434,14.0944 5.63101,14.7611 5.5,15.5 Z"/></g>
<g><path style="opacity:1" fill="#dd6580" d="M 17.5,7.5 C 17.8333,7.5 18.1667,7.5 18.5,7.5C 18.1805,12.3633 18.5139,17.03 19.5,21.5C 19.3284,22.4916 19.6618,23.1583 20.5,23.5C 19.8333,24.1667 19.1667,24.8333 18.5,25.5C 17.5104,19.69 17.1771,13.69 17.5,7.5 Z"/></g>
<g><path style="opacity:0.01" fill="#f093b1" d="M 4.5,18.5 C 3.47498,18.1034 3.30831,17.4368 4,16.5C 4.46434,17.0944 4.63101,17.7611 4.5,18.5 Z"/></g>
<g><path style="opacity:1" fill="#b22d2d" d="M 52.5,11.5 C 55.9782,12.9543 59.6449,13.9543 63.5,14.5C 63.8333,14.5 64.1667,14.5 64.5,14.5C 63.7659,15.7079 63.4326,17.0413 63.5,18.5C 62.5,17.8333 61.5,17.1667 60.5,16.5C 57.3752,15.5206 54.0419,15.1872 50.5,15.5C 49.8333,15.5 49.1667,15.5 48.5,15.5C 44.0344,17.5665 39.701,19.8998 35.5,22.5C 35.5569,21.391 35.8902,20.391 36.5,19.5C 41.4033,15.7149 46.7366,13.0482 52.5,11.5 Z"/></g>
<g><path style="opacity:1" fill="#eb5d5d" d="M 19.5,-0.5 C 22.5,-0.5 25.5,-0.5 28.5,-0.5C 26.4024,0.934959 24.0691,2.10163 21.5,3C 19.8588,4.12901 18.8588,5.62901 18.5,7.5C 18.1667,7.5 17.8333,7.5 17.5,7.5C 16.5088,14.3134 16.1755,21.3134 16.5,28.5C 12.1206,31.7459 7.45393,32.2459 2.5,30C 3.4158,29.7216 4.08247,29.2216 4.5,28.5C 7.44753,28.7771 10.2809,28.4438 13,27.5C 12.2702,20.4934 12.4369,13.4934 13.5,6.5C 14.8103,3.5268 16.8103,1.19347 19.5,-0.5 Z"/></g>
<g><path style="opacity:1" fill="#cb788a" d="M 50.5,15.5 C 54.0419,15.1872 57.3752,15.5206 60.5,16.5C 59.325,16.281 58.325,16.6143 57.5,17.5C 59.0707,19.8822 59.904,22.5488 60,25.5C 61.4737,28.3249 62.9737,28.6582 64.5,26.5C 65.1835,26.8627 65.8501,27.1961 66.5,27.5C 66.5,28.5 66.5,29.5 66.5,30.5C 65.6908,32.0276 65.0241,33.6943 64.5,35.5C 61.6937,35.1778 59.1937,34.1778 57,32.5C 55.3419,28.8315 53.8419,25.1648 52.5,21.5C 51.8262,19.9755 50.8262,18.6422 49.5,17.5C 49.8627,16.8165 50.1961,16.1499 50.5,15.5 Z"/></g>
<g><path style="opacity:0.859" fill="#f296b1" d="M 13.5,6.5 C 12.4369,13.4934 12.2702,20.4934 13,27.5C 10.2809,28.4438 7.44753,28.7771 4.5,28.5C 2.95186,28.1788 2.28519,27.1788 2.5,25.5C 2.5,25.1667 2.5,24.8333 2.5,24.5C 3.73838,22.7857 4.40505,20.7857 4.5,18.5C 5.40397,17.791 5.73731,16.791 5.5,15.5C 6.40397,14.791 6.73731,13.791 6.5,12.5C 8.21351,9.78718 10.5468,7.78718 13.5,6.5 Z"/></g>
<g><path style="opacity:1" fill="#992c3c" d="M 48.5,15.5 C 44.9431,19.7401 40.6098,22.7401 35.5,24.5C 33.5648,25.1495 31.5648,25.4828 29.5,25.5C 31.2504,24.1302 33.2504,23.1302 35.5,22.5C 39.701,19.8998 44.0344,17.5665 48.5,15.5 Z"/></g>
<g><path style="opacity:1" fill="#c25b74" d="M 48.5,15.5 C 49.1667,15.5 49.8333,15.5 50.5,15.5C 50.1961,16.1499 49.8627,16.8165 49.5,17.5C 50.8262,18.6422 51.8262,19.9755 52.5,21.5C 51.5,21.5 50.5,21.5 49.5,21.5C 49.7271,23.9328 48.7271,25.5994 46.5,26.5C 46.5,25.5 46.5,24.5 46.5,23.5C 42.8455,23.9422 39.1788,24.2756 35.5,24.5C 40.6098,22.7401 44.9431,19.7401 48.5,15.5 Z"/></g>
<g><path style="opacity:0.016" fill="#f48094" d="M 2.5,24.5 C 0.354427,24.3036 0.18776,23.3036 2,21.5C 2.48278,22.448 2.64945,23.448 2.5,24.5 Z"/></g>
<g><path style="opacity:1" fill="#e86263" d="M 52.5,11.5 C 46.7366,13.0482 41.4033,15.7149 36.5,19.5C 35.1266,19.3433 33.7932,19.51 32.5,20C 28.5657,22.884 24.399,25.384 20,27.5C 18.9701,27.1639 18.4701,26.4972 18.5,25.5C 19.1667,24.8333 19.8333,24.1667 20.5,23.5C 21.609,23.4431 22.609,23.1098 23.5,22.5C 32.4335,17.0751 42.1002,13.4084 52.5,11.5 Z"/></g>
<g><path style="opacity:1" fill="#cb607a" d="M 46.5,26.5 C 41.9553,27.7464 38.622,30.413 36.5,34.5C 35.5084,34.3284 34.8417,34.6618 34.5,35.5C 30.6002,36.4299 26.6002,36.7633 22.5,36.5C 22.5,36.1667 22.5,35.8333 22.5,35.5C 29.4188,36.8985 33.7522,34.2318 35.5,27.5C 34.5,27.1667 33.5,26.8333 32.5,26.5C 29.5627,27.4698 26.5627,28.1365 23.5,28.5C 25.1815,26.9925 27.1815,25.9925 29.5,25.5C 31.5648,25.4828 33.5648,25.1495 35.5,24.5C 39.1788,24.2756 42.8455,23.9422 46.5,23.5C 46.5,24.5 46.5,25.5 46.5,26.5 Z"/></g>
<g><path style="opacity:0.995" fill="#d494a2" d="M 60.5,16.5 C 61.5,17.1667 62.5,17.8333 63.5,18.5C 65.0951,21.2854 66.0951,24.2854 66.5,27.5C 65.8501,27.1961 65.1835,26.8627 64.5,26.5C 62.9737,28.6582 61.4737,28.3249 60,25.5C 59.904,22.5488 59.0707,19.8822 57.5,17.5C 58.325,16.6143 59.325,16.281 60.5,16.5 Z"/></g>
<g><path style="opacity:1" fill="#b64e65" d="M 52.5,21.5 C 53.8419,25.1648 55.3419,28.8315 57,32.5C 59.1937,34.1778 61.6937,35.1778 64.5,35.5C 63.791,36.404 62.791,36.7373 61.5,36.5C 53.3578,34.8226 45.0245,34.156 36.5,34.5C 38.622,30.413 41.9553,27.7464 46.5,26.5C 48.7271,25.5994 49.7271,23.9328 49.5,21.5C 50.5,21.5 51.5,21.5 52.5,21.5 Z"/></g>
<g><path style="opacity:0.012" fill="#cc8390" d="M 68.5,24.5 C 68.5,26.5 68.5,28.5 68.5,30.5C 68.1667,30.5 67.8333,30.5 67.5,30.5C 67.2053,28.2646 67.5386,26.2646 68.5,24.5 Z"/></g>
<g><path style="opacity:1" fill="#cb3133" d="M 17.5,7.5 C 17.1771,13.69 17.5104,19.69 18.5,25.5C 18.4701,26.4972 18.9701,27.1639 20,27.5C 24.399,25.384 28.5657,22.884 32.5,20C 33.7932,19.51 35.1266,19.3433 36.5,19.5C 35.8902,20.391 35.5569,21.391 35.5,22.5C 33.2504,23.1302 31.2504,24.1302 29.5,25.5C 27.1815,25.9925 25.1815,26.9925 23.5,28.5C 22.5084,28.3284 21.8417,28.6618 21.5,29.5C 20.325,29.281 19.325,29.6143 18.5,30.5C 19.304,33.0328 20.6373,35.0328 22.5,36.5C 26.6002,36.7633 30.6002,36.4299 34.5,35.5C 41.5463,35.8925 48.5463,36.5592 55.5,37.5C 55.5,37.8333 55.5,38.1667 55.5,38.5C 50.8333,38.5 46.1667,38.5 41.5,38.5C 40.7261,37.8529 39.7261,37.5195 38.5,37.5C 34.9664,39.0438 31.2997,40.0438 27.5,40.5C 24.7527,40.5371 22.586,39.5371 21,37.5C 20.7216,38.4158 20.2216,39.0825 19.5,39.5C 19.3456,35.5473 18.3456,31.8806 16.5,28.5C 16.1755,21.3134 16.5088,14.3134 17.5,7.5 Z"/></g>
<g><path style="opacity:1" fill="#dd7c95" d="M 22.5,35.5 C 21.8505,33.5648 21.5172,31.5648 21.5,29.5C 21.8417,28.6618 22.5084,28.3284 23.5,28.5C 26.5627,28.1365 29.5627,27.4698 32.5,26.5C 33.5,26.8333 34.5,27.1667 35.5,27.5C 33.7522,34.2318 29.4188,36.8985 22.5,35.5 Z"/></g>
<g><path style="opacity:0.996" fill="#e0494a" d="M 2.5,25.5 C 2.28519,27.1788 2.95186,28.1788 4.5,28.5C 4.08247,29.2216 3.4158,29.7216 2.5,30C 7.45393,32.2459 12.1206,31.7459 16.5,28.5C 18.3456,31.8806 19.3456,35.5473 19.5,39.5C 16.4824,39.7038 13.4824,40.0371 10.5,40.5C 11.8484,39.3994 13.3484,38.3994 15,37.5C 15.7203,35.8876 15.5536,34.3876 14.5,33C 11.2217,33.2847 7.88833,33.7847 4.5,34.5C 3.07546,34.3767 1.74213,34.0434 0.5,33.5C 0.166667,33.5 -0.166667,33.5 -0.5,33.5C -0.5,31.5 -0.5,29.5 -0.5,27.5C 0.222348,26.4489 1.22235,25.7822 2.5,25.5 Z"/></g>
<g><path style="opacity:1" fill="#b9384a" d="M 21.5,29.5 C 21.5172,31.5648 21.8505,33.5648 22.5,35.5C 22.5,35.8333 22.5,36.1667 22.5,36.5C 20.6373,35.0328 19.304,33.0328 18.5,30.5C 19.325,29.6143 20.325,29.281 21.5,29.5 Z"/></g>
<g><path style="opacity:1" fill="#b23749" d="M 34.5,35.5 C 34.8417,34.6618 35.5084,34.3284 36.5,34.5C 45.0245,34.156 53.3578,34.8226 61.5,36.5C 59.7354,37.4614 57.7354,37.7947 55.5,37.5C 48.5463,36.5592 41.5463,35.8925 34.5,35.5 Z"/></g>
<g><path style="opacity:1" fill="#cd5455" d="M 66.5,30.5 C 66.8333,30.5 67.1667,30.5 67.5,30.5C 67.5,31.1667 67.8333,31.5 68.5,31.5C 68.5,33.8333 68.5,36.1667 68.5,38.5C 67.8333,38.5 67.5,38.8333 67.5,39.5C 66.8333,39.5 66.5,39.8333 66.5,40.5C 65.609,41.1098 64.609,41.4431 63.5,41.5C 63.5,40.5 63.5,39.5 63.5,38.5C 60.6717,39.4967 58.005,39.4967 55.5,38.5C 55.5,38.1667 55.5,37.8333 55.5,37.5C 57.7354,37.7947 59.7354,37.4614 61.5,36.5C 62.791,36.7373 63.791,36.404 64.5,35.5C 65.0241,33.6943 65.6908,32.0276 66.5,30.5 Z"/></g>
<g><path style="opacity:0.938" fill="#e6819e" d="M 10.5,40.5 C 7.6952,42.7922 5.36186,45.4589 3.5,48.5C 3.5,47.8333 3.16667,47.5 2.5,47.5C 2.73731,46.209 2.40397,45.209 1.5,44.5C 1.27558,40.8212 0.942246,37.1545 0.5,33.5C 1.74213,34.0434 3.07546,34.3767 4.5,34.5C 7.88833,33.7847 11.2217,33.2847 14.5,33C 15.5536,34.3876 15.7203,35.8876 15,37.5C 13.3484,38.3994 11.8484,39.3994 10.5,40.5 Z"/></g>
<g><path style="opacity:0.01" fill="#e682a0" d="M -0.5,39.5 C 0.451145,40.9187 0.784479,42.5853 0.5,44.5C 0.166667,44.5 -0.166667,44.5 -0.5,44.5C -0.5,42.8333 -0.5,41.1667 -0.5,39.5 Z"/></g>
<g><path style="opacity:1" fill="#a92424" d="M 41.5,38.5 C 46.1667,38.5 50.8333,38.5 55.5,38.5C 58.005,39.4967 60.6717,39.4967 63.5,38.5C 63.5,39.5 63.5,40.5 63.5,41.5C 63.1583,42.3382 62.4916,42.6716 61.5,42.5C 53.8522,43.4578 46.1856,43.4578 38.5,42.5C 37.1667,42.5 35.8333,42.5 34.5,42.5C 33.5,42.5 32.5,42.5 31.5,42.5C 31.5,42.1667 31.5,41.8333 31.5,41.5C 34.4267,39.3822 37.76,38.3822 41.5,38.5 Z"/></g>
<g><path style="opacity:0.004" fill="#c06873" d="M 67.5,39.5 C 67.8333,39.5 68.1667,39.5 68.5,39.5C 68.5,40.5 68.5,41.5 68.5,42.5C 68.1667,42.5 67.8333,42.5 67.5,42.5C 67.5,41.5 67.5,40.5 67.5,39.5 Z"/></g>
<g><path style="opacity:0.009" fill="#be6d7f" d="M 66.5,42.5 C 66.8333,42.5 67.1667,42.5 67.5,42.5C 67.1667,46.5 66.8333,46.5 66.5,42.5 Z"/></g>
<g><path style="opacity:1" fill="#b8536a" d="M 31.5,42.5 C 32.5,42.5 33.5,42.5 34.5,42.5C 35.2066,44.1344 36.3732,45.4677 38,46.5C 38.4966,48.8098 38.6633,51.1432 38.5,53.5C 40.2161,53.6287 41.8828,53.962 43.5,54.5C 45.309,57.1393 47.6424,59.3059 50.5,61C 49.1667,61.6667 47.8333,62.3333 46.5,63C 46.7284,63.3988 47.0618,63.5654 47.5,63.5C 45.5,64.8333 43.5,64.8333 41.5,63.5C 41.5021,57.9996 39.0021,55.6663 34,56.5C 30.4774,52.4552 28.3107,47.7885 27.5,42.5C 28.8333,42.5 30.1667,42.5 31.5,42.5 Z"/></g>
<g><path style="opacity:0.008" fill="#e584a1" d="M 0.5,44.5 C 0.833333,44.5 1.16667,44.5 1.5,44.5C 1.5,45.5 1.5,46.5 1.5,47.5C 0.596028,46.791 0.262695,45.791 0.5,44.5 Z"/></g>
<g><path style="opacity:0.996" fill="#d54040" d="M 19.5,39.5 C 19.313,42.2144 18.1463,42.881 16,41.5C 13.7647,42.3679 11.598,43.3679 9.5,44.5C 8.87277,45.4168 8.53944,46.4168 8.5,47.5C 8.21552,49.4147 8.54885,51.0813 9.5,52.5C 10.242,54.9798 11.242,57.3131 12.5,59.5C 11.1667,59.1667 9.83333,58.8333 8.5,58.5C 7.20733,56.7041 5.70733,55.0375 4,53.5C 3.50649,51.8659 3.33982,50.1992 3.5,48.5C 5.36186,45.4589 7.6952,42.7922 10.5,40.5C 13.4824,40.0371 16.4824,39.7038 19.5,39.5 Z"/></g>
<g><path style="opacity:0.997" fill="#b25468" d="M 66.5,40.5 C 66.5,41.1667 66.5,41.8333 66.5,42.5C 65.5655,43.5676 65.2322,44.901 65.5,46.5C 64.6618,46.8417 64.3284,47.5084 64.5,48.5C 63.6618,48.8417 63.3284,49.5084 63.5,50.5C 63.1667,50.5 62.8333,50.5 62.5,50.5C 60.5107,51.4814 58.5107,52.4814 56.5,53.5C 54.528,52.9796 54.528,51.8129 56.5,50C 54.4127,49.2078 52.5793,48.0412 51,46.5C 50.6174,47.056 50.1174,47.3893 49.5,47.5C 49.5,46.8333 49.5,46.1667 49.5,45.5C 51.4352,44.8505 53.4352,44.5172 55.5,44.5C 55.238,45.9778 55.5713,47.3112 56.5,48.5C 58.1747,46.4691 59.8414,44.4691 61.5,42.5C 62.4916,42.6716 63.1583,42.3382 63.5,41.5C 64.609,41.4431 65.609,41.1098 66.5,40.5 Z"/></g>
<g><path style="opacity:1" fill="#ad465b" d="M 38.5,42.5 C 46.1856,43.4578 53.8522,43.4578 61.5,42.5C 59.8414,44.4691 58.1747,46.4691 56.5,48.5C 55.5713,47.3112 55.238,45.9778 55.5,44.5C 53.4352,44.5172 51.4352,44.8505 49.5,45.5C 45.5911,44.7366 44.2578,46.0699 45.5,49.5C 43.9255,50.6309 42.2588,50.7975 40.5,50C 39.889,47.8054 39.2223,45.3054 38.5,42.5 Z"/></g>
<g><path style="opacity:1" fill="#af4d62" d="M 34.5,42.5 C 35.8333,42.5 37.1667,42.5 38.5,42.5C 39.2223,45.3054 39.889,47.8054 40.5,50C 42.2588,50.7975 43.9255,50.6309 45.5,49.5C 44.2578,46.0699 45.5911,44.7366 49.5,45.5C 49.5,46.1667 49.5,46.8333 49.5,47.5C 49.2537,51.4086 47.2537,53.7419 43.5,54.5C 41.8828,53.962 40.2161,53.6287 38.5,53.5C 38.6633,51.1432 38.4966,48.8098 38,46.5C 36.3732,45.4677 35.2066,44.1344 34.5,42.5 Z"/></g>
<g><path style="opacity:0.999" fill="#b4576a" d="M 62.5,50.5 C 62.5,50.8333 62.5,51.1667 62.5,51.5C 61.8333,51.5 61.5,51.8333 61.5,52.5C 60.8333,52.5 60.5,52.8333 60.5,53.5C 59.6618,53.8417 59.3284,54.5084 59.5,55.5C 58.6618,55.8417 58.3284,56.5084 58.5,57.5C 57.8333,57.5 57.5,57.8333 57.5,58.5C 56.6618,58.8417 56.3284,59.5084 56.5,60.5C 55.8333,60.5 55.5,60.8333 55.5,61.5C 55.1667,61.5 54.8333,61.5 54.5,61.5C 52.079,61.8782 49.7457,62.5448 47.5,63.5C 47.0618,63.5654 46.7284,63.3988 46.5,63C 47.8333,62.3333 49.1667,61.6667 50.5,61C 47.6424,59.3059 45.309,57.1393 43.5,54.5C 47.2537,53.7419 49.2537,51.4086 49.5,47.5C 50.1174,47.3893 50.6174,47.056 51,46.5C 52.5793,48.0412 54.4127,49.2078 56.5,50C 54.528,51.8129 54.528,52.9796 56.5,53.5C 58.5107,52.4814 60.5107,51.4814 62.5,50.5 Z"/></g>
<g><path style="opacity:0.004" fill="#bb6276" d="M 65.5,46.5 C 66.8333,47.1667 66.8333,47.8333 65.5,48.5C 65.5,47.8333 65.5,47.1667 65.5,46.5 Z"/></g>
<g><path style="opacity:1" fill="#c22d2d" d="M 41.5,38.5 C 37.76,38.3822 34.4267,39.3822 31.5,41.5C 28.8333,41.5 26.1667,41.5 23.5,41.5C 22.2334,40.913 21.2334,40.913 20.5,41.5C 24.9413,45.4677 26.2747,50.1344 24.5,55.5C 23.7281,54.3065 22.7281,53.3065 21.5,52.5C 20.3937,42.5432 16.0604,40.8765 8.5,47.5C 8.53944,46.4168 8.87277,45.4168 9.5,44.5C 11.598,43.3679 13.7647,42.3679 16,41.5C 18.1463,42.881 19.313,42.2144 19.5,39.5C 20.2216,39.0825 20.7216,38.4158 21,37.5C 22.586,39.5371 24.7527,40.5371 27.5,40.5C 31.2997,40.0438 34.9664,39.0438 38.5,37.5C 39.7261,37.5195 40.7261,37.8529 41.5,38.5 Z"/></g>
<g><path style="opacity:0.998" fill="#d4758d" d="M 19.5,61.5 C 19.5,61.8333 19.5,62.1667 19.5,62.5C 17.5,61.8333 15.5,61.1667 13.5,60.5C 13.5,59.8333 13.1667,59.5 12.5,59.5C 11.242,57.3131 10.242,54.9798 9.5,52.5C 9.52584,48.1555 11.5258,46.8222 15.5,48.5C 15.0797,52.1936 15.5797,55.8603 17,59.5C 17.7083,60.3805 18.5416,61.0472 19.5,61.5 Z"/></g>
<g><path style="opacity:0.004" fill="#bb5e73" d="M 64.5,48.5 C 64.8333,48.5 65.1667,48.5 65.5,48.5C 65.6716,49.4916 65.3382,50.1583 64.5,50.5C 64.5,49.8333 64.5,49.1667 64.5,48.5 Z"/></g>
<g><path style="opacity:0.008" fill="#e54e50" d="M 1.5,47.5 C 1.83333,47.5 2.16667,47.5 2.5,47.5C 2.16667,54.1667 1.83333,54.1667 1.5,47.5 Z"/></g>
<g><path style="opacity:0.008" fill="#bc6074" d="M 63.5,50.5 C 63.8333,50.5 64.1667,50.5 64.5,50.5C 64.3147,51.1701 63.9813,51.1701 63.5,50.5 Z"/></g>
<g><path style="opacity:0.997" fill="#d06781" d="M 21.5,52.5 C 20.5,52.5 19.5,52.5 18.5,52.5C 18.9629,55.4824 19.2962,58.4824 19.5,61.5C 18.5416,61.0472 17.7083,60.3805 17,59.5C 15.5797,55.8603 15.0797,52.1936 15.5,48.5C 11.5258,46.8222 9.52584,48.1555 9.5,52.5C 8.54885,51.0813 8.21552,49.4147 8.5,47.5C 16.0604,40.8765 20.3937,42.5432 21.5,52.5 Z"/></g>
<g><path style="opacity:0.016" fill="#bb6073" d="M 62.5,51.5 C 62.8333,51.5 63.1667,51.5 63.5,51.5C 63.3147,52.1701 62.9813,52.1701 62.5,51.5 Z"/></g>
<g><path style="opacity:0.997" fill="#c8667d" d="M 21.5,52.5 C 22.7281,53.3065 23.7281,54.3065 24.5,55.5C 27.5271,59.1938 30.8604,62.5271 34.5,65.5C 29.3646,65.7076 24.3646,65.0409 19.5,63.5C 19.5,63.1667 19.5,62.8333 19.5,62.5C 19.5,62.1667 19.5,61.8333 19.5,61.5C 19.2962,58.4824 18.9629,55.4824 18.5,52.5C 19.5,52.5 20.5,52.5 21.5,52.5 Z"/></g>
<g><path style="opacity:0.016" fill="#ba5d71" d="M 61.5,52.5 C 61.8333,52.5 62.1667,52.5 62.5,52.5C 62.3147,53.1701 61.9813,53.1701 61.5,52.5 Z"/></g>
<g><path style="opacity:0.008" fill="#ba5d71" d="M 60.5,53.5 C 60.8333,53.5 61.1667,53.5 61.5,53.5C 61.6716,54.4916 61.3382,55.1583 60.5,55.5C 60.5,54.8333 60.5,54.1667 60.5,53.5 Z"/></g>
<g><path style="opacity:1" fill="#b2475d" d="M 23.5,41.5 C 26.1667,41.5 28.8333,41.5 31.5,41.5C 31.5,41.8333 31.5,42.1667 31.5,42.5C 30.1667,42.5 28.8333,42.5 27.5,42.5C 28.3107,47.7885 30.4774,52.4552 34,56.5C 39.0021,55.6663 41.5021,57.9996 41.5,63.5C 32.1956,58.863 26.1956,51.5297 23.5,41.5 Z"/></g>
<g><path style="opacity:0.008" fill="#c06579" d="M 59.5,55.5 C 59.8333,55.5 60.1667,55.5 60.5,55.5C 60.6716,56.4916 60.3382,57.1583 59.5,57.5C 59.5,56.8333 59.5,56.1667 59.5,55.5 Z"/></g>
<g><path style="opacity:0.012" fill="#be6274" d="M 58.5,57.5 C 58.8333,57.5 59.1667,57.5 59.5,57.5C 59.3147,58.1701 58.9813,58.1701 58.5,57.5 Z"/></g>
<g><path style="opacity:0.008" fill="#ca5250" d="M 8.5,58.5 C 8.5,58.8333 8.5,59.1667 8.5,59.5C 7.82986,59.0187 7.82986,58.6853 8.5,58.5 Z"/></g>
<g><path style="opacity:0.004" fill="#c95150" d="M 8.5,59.5 C 9.83333,60.1667 9.83333,60.1667 8.5,59.5 Z"/></g>
<g><path style="opacity:0.998" fill="#b12b2b" d="M 23.5,41.5 C 26.1956,51.5297 32.1956,58.863 41.5,63.5C 43.5,64.8333 45.5,64.8333 47.5,63.5C 49.7457,62.5448 52.079,61.8782 54.5,61.5C 54.5,61.8333 54.5,62.1667 54.5,62.5C 53.8333,62.5 53.5,62.8333 53.5,63.5C 52.8333,63.5 52.5,63.8333 52.5,64.5C 51.8333,64.5 51.5,64.8333 51.5,65.5C 50.5084,65.3284 49.8417,65.6618 49.5,66.5C 44.8333,66.5 40.1667,66.5 35.5,66.5C 35.5,65.8333 35.1667,65.5 34.5,65.5C 30.8604,62.5271 27.5271,59.1938 24.5,55.5C 26.2747,50.1344 24.9413,45.4677 20.5,41.5C 21.2334,40.913 22.2334,40.913 23.5,41.5 Z"/></g>
<g><path style="opacity:0.004" fill="#bb4e54" d="M 57.5,58.5 C 57.8333,58.5 58.1667,58.5 58.5,58.5C 58.6716,59.4916 58.3382,60.1583 57.5,60.5C 57.5,59.8333 57.5,59.1667 57.5,58.5 Z"/></g>
<g><path style="opacity:0.008" fill="#c34748" d="M 13.5,60.5 C 12.7494,61.5735 11.7494,61.7401 10.5,61C 11.448,60.5172 12.448,60.3505 13.5,60.5 Z"/></g>
<g><path style="opacity:0.008" fill="#b73f3c" d="M 56.5,60.5 C 56.8333,60.5 57.1667,60.5 57.5,60.5C 57.3147,61.1701 56.9813,61.1701 56.5,60.5 Z"/></g>
<g><path style="opacity:0.008" fill="#b73f3c" d="M 55.5,61.5 C 55.8333,61.5 56.1667,61.5 56.5,61.5C 56.3147,62.1701 55.9813,62.1701 55.5,61.5 Z"/></g>
<g><path style="opacity:0.012" fill="#b8413e" d="M 54.5,62.5 C 54.8333,62.5 55.1667,62.5 55.5,62.5C 55.3147,63.1701 54.9813,63.1701 54.5,62.5 Z"/></g>
<g><path style="opacity:0.004" fill="#ce7489" d="M 19.5,63.5 C 19.5,63.8333 19.5,64.1667 19.5,64.5C 16.8333,64.1667 16.8333,63.8333 19.5,63.5 Z"/></g>
<g><path style="opacity:0.012" fill="#b84341" d="M 53.5,63.5 C 53.8333,63.5 54.1667,63.5 54.5,63.5C 54.3147,64.1701 53.9813,64.1701 53.5,63.5 Z"/></g>
<g><path style="opacity:0.008" fill="#cb7a8b" d="M 19.5,64.5 C 20.8333,65.1667 20.8333,65.1667 19.5,64.5 Z"/></g>
<g><path style="opacity:0.012" fill="#b74342" d="M 52.5,64.5 C 52.8333,64.5 53.1667,64.5 53.5,64.5C 53.3147,65.1701 52.9813,65.1701 52.5,64.5 Z"/></g>
<g><path style="opacity:0.012" fill="#c77083" d="M 21.5,66.5 C 22.5,65.1667 23.5,65.1667 24.5,66.5C 23.5,66.5 22.5,66.5 21.5,66.5 Z"/></g>
<g><path style="opacity:0.008" fill="#b74140" d="M 51.5,65.5 C 51.8333,65.5 52.1667,65.5 52.5,65.5C 52.5,65.8333 52.5,66.1667 52.5,66.5C 52.1667,66.1667 51.8333,65.8333 51.5,65.5 Z"/></g>
</svg>
