<?xml version="1.0" standalone="no"?>
<!DOCTYPE svg PUBLIC "-//W3C//DTD SVG 20010904//EN"
        "http://www.w3.org/TR/2001/REC-SVG-20010904/DTD/svg10.dtd">
<svg version="1.0" xmlns="http://www.w3.org/2000/svg"
     width="69.000000pt" height="79.000000pt" viewBox="0 0 69.000000 79.000000"
     preserveAspectRatio="xMidYMid meet">

    <g transform="translate(0.000000,79.000000) scale(0.100000,-0.100000)"
       fill="#000000" stroke="none">
        <path d="M119 781 c-97 -32 -109 -67 -113 -334 -6 -362 7 -380 289 -424 203
-31 316 -18 359 40 20 26 21 46 27 275 11 406 2 422 -230 433 -75 4 -174 10
-221 13 -47 3 -97 2 -111 -3z m290 -175 c7 -8 11 -27 9 -43 -2 -22 -9 -29 -30
-31 -32 -4 -43 -29 -29 -66 8 -20 17 -26 41 -26 26 0 30 -4 30 -26 0 -36 -17
-64 -40 -64 -30 0 -34 -18 -35 -145 0 -114 -1 -120 -21 -123 -11 -2 -32 6 -45
17 -26 21 -30 64 -19 195 5 57 4 60 -20 66 -21 5 -25 12 -25 45 0 34 3 40 23
43 19 3 22 9 22 47 0 52 14 95 37 113 23 17 88 15 102 -2z"/>
    </g>
</svg>
