<?xml version="1.0" standalone="no"?>
<!DOCTYPE svg PUBLIC "-//W3C//DTD SVG 20010904//EN"
        "http://www.w3.org/TR/2001/REC-SVG-20010904/DTD/svg10.dtd">
<svg version="1.0" xmlns="http://www.w3.org/2000/svg"
     width="69.000000pt" height="80.000000pt" viewBox="0 0 69.000000 80.000000"
     preserveAspectRatio="xMidYMid meet">

    <g transform="translate(0.000000,80.000000) scale(0.100000,-0.100000)"
       fill="#000000" stroke="none">
        <path d="M552 650 c-6 -26 -6 -55 0 -86 8 -36 7 -55 -7 -89 -32 -86 -56 -78
-53 20 1 51 -17 100 -47 125 -13 11 -12 6 4 -21 17 -30 20 -55 23 -214 3 -175
2 -181 -22 -230 -21 -42 -31 -52 -65 -62 l-40 -11 46 -1 c48 -1 91 -22 71 -35
-7 -4 -12 -14 -12 -23 0 -13 11 -15 63 -11 70 5 126 27 145 59 23 37 26 123 7
194 -13 48 -14 69 -6 78 14 18 27 152 13 143 -17 -10 -23 25 -7 47 8 12 15 41
15 64 0 43 -12 56 -27 28 -7 -11 -14 -6 -33 25 -32 52 -55 52 -68 0z"/>
        <path d="M94 609 l-29 -30 -3 -146 c-2 -80 -1 -156 2 -169 7 -28 54 -84 69
-84 7 0 4 5 -5 10 -9 6 -24 30 -34 55 -14 38 -16 64 -10 167 8 129 21 179 55
200 26 16 27 28 3 28 -10 0 -31 -14 -48 -31z"/>
        <path d="M191 626 c2 -2 42 -6 89 -9 48 -3 76 -1 65 3 -19 8 -163 14 -154 6z"/>
        <path d="M405 552 c4 -13 1 -29 -5 -37 -10 -12 -9 -15 9 -15 25 0 28 27 5 56
-15 18 -15 18 -9 -4z"/>
        <path d="M347 473 c28 -55 27 -107 -3 -169 -15 -30 -29 -43 -64 -56 l-45 -17
37 0 c80 -2 109 31 116 129 5 70 -7 108 -46 143 -18 16 -17 13 5 -30z"/>
        <path d="M186 469 c-37 -43 -37 -115 0 -150 l26 -24 -17 30 c-15 26 -16 36 -5
74 13 50 53 96 76 87 9 -3 12 -1 9 4 -13 22 -63 10 -89 -21z"/>
        <path d="M160 121 c13 -10 99 -16 89 -7 -2 2 -26 6 -54 10 -36 5 -46 4 -35 -3z"/>
        <path d="M318 93 c7 -3 16 -2 19 1 4 3 -2 6 -13 5 -11 0 -14 -3 -6 -6z"/>
    </g>
</svg>
