<?xml version="1.0" encoding="UTF-8"?>
<!DOCTYPE svg PUBLIC "-//W3C//DTD SVG 1.1//EN" "http://www.w3.org/Graphics/SVG/1.1/DTD/svg11.dtd">
<svg xmlns="http://www.w3.org/2000/svg" version="1.1" width="69px" height="79px" style="shape-rendering:geometricPrecision; text-rendering:geometricPrecision; image-rendering:optimizeQuality; fill-rule:evenodd; clip-rule:evenodd" xmlns:xlink="http://www.w3.org/1999/xlink">
<g><path style="opacity:0.807" fill="#b165f6" d="M 12.5,-0.5 C 21.1667,-0.5 29.8333,-0.5 38.5,-0.5C 40.6074,0.468218 42.9407,0.801552 45.5,0.5C 46.9361,1.42857 48.2695,2.59524 49.5,4C 45.422,5.66036 41.422,5.32703 37.5,3C 32.6462,2.38029 27.8128,2.54695 23,3.5C 20.4994,3.41621 18.166,2.74955 16,1.5C 15.2352,1.56993 14.7352,1.90326 14.5,2.5C 10.1316,2.27884 6.7983,3.94551 4.5,7.5C 4.16667,7.5 3.83333,7.5 3.5,7.5C 3.5,7.16667 3.5,6.83333 3.5,6.5C 5.66519,2.99109 8.66519,0.657752 12.5,-0.5 Z"/></g>
<g><path style="opacity:0.009" fill="#b472f5" d="M 48.5,0.5 C 48.5,0.166667 48.5,-0.166667 48.5,-0.5C 50.5,-0.5 52.5,-0.5 54.5,-0.5C 52.7354,0.461384 50.7354,0.794717 48.5,0.5 Z"/></g>
<g><path style="opacity:0.008" fill="#b27df3" d="M 55.5,1.5 C 55.8966,0.474981 56.5632,0.308314 57.5,1C 56.9056,1.46434 56.2389,1.63101 55.5,1.5 Z"/></g>
<g><path style="opacity:0.012" fill="#b186f0" d="M 58.5,1.5 C 59.8333,2.16667 59.8333,2.16667 58.5,1.5 Z"/></g>
<g><path style="opacity:0.004" fill="#b65efb" d="M 3.5,2.5 C 4.83333,3.16667 4.83333,3.16667 3.5,2.5 Z"/></g>
<g><path style="opacity:0.997" fill="#ae72f1" d="M 45.5,0.5 C 46.5,0.5 47.5,0.5 48.5,0.5C 52.4065,1.10009 56.0732,2.43343 59.5,4.5C 60.1667,6.16667 60.8333,7.83333 61.5,9.5C 60.2921,8.76589 58.9587,8.43255 57.5,8.5C 56.609,7.89022 55.609,7.55688 54.5,7.5C 53.1266,7.34332 51.7932,7.50999 50.5,8C 49.2668,9.66668 47.9335,11.1667 46.5,12.5C 46.5,10.8333 46.5,9.16667 46.5,7.5C 43.6146,7.8064 40.9479,7.47307 38.5,6.5C 34.3683,3.40351 29.7017,2.73684 24.5,4.5C 20.9706,4.59948 17.6373,3.93281 14.5,2.5C 14.7352,1.90326 15.2352,1.56993 16,1.5C 18.166,2.74955 20.4994,3.41621 23,3.5C 27.8128,2.54695 32.6462,2.38029 37.5,3C 41.422,5.32703 45.422,5.66036 49.5,4C 48.2695,2.59524 46.9361,1.42857 45.5,0.5 Z"/></g>
<g><path style="opacity:1" fill="#af76f1" d="M 14.5,2.5 C 17.6373,3.93281 20.9706,4.59948 24.5,4.5C 29.7017,2.73684 34.3683,3.40351 38.5,6.5C 36.5853,6.21552 34.9187,6.54885 33.5,7.5C 30.7311,6.78512 28.0644,7.11846 25.5,8.5C 21.5435,8.99159 17.8768,8.32492 14.5,6.5C 12.6512,8.17422 10.4845,9.17422 8,9.5C 6.30085,9.61345 5.13419,8.94678 4.5,7.5C 6.7983,3.94551 10.1316,2.27884 14.5,2.5 Z"/></g>
<g><path style="opacity:0.012" fill="#a856f2" d="M -0.5,8.5 C 0.338246,8.84171 0.67158,9.50838 0.5,10.5C 0.166667,10.5 -0.166667,10.5 -0.5,10.5C -0.5,9.83333 -0.5,9.16667 -0.5,8.5 Z"/></g>
<g><path style="opacity:0.999" fill="#a266eb" d="M 25.5,8.5 C 23.6996,9.69285 22.0329,10.8595 20.5,12C 22.0581,12.21 23.3915,12.71 24.5,13.5C 22.8333,13.5 21.1667,13.5 19.5,13.5C 19.5,14.5 19.5,15.5 19.5,16.5C 19.5,17.1667 19.1667,17.5 18.5,17.5C 18.4386,15.4078 17.4386,13.9078 15.5,13C 11.0331,13.1217 7.03308,11.9551 3.5,9.5C 3.5,8.83333 3.5,8.16667 3.5,7.5C 3.83333,7.5 4.16667,7.5 4.5,7.5C 5.13419,8.94678 6.30085,9.61345 8,9.5C 10.4845,9.17422 12.6512,8.17422 14.5,6.5C 17.8768,8.32492 21.5435,8.99159 25.5,8.5 Z"/></g>
<g><path style="opacity:1" fill="#995ae8" d="M 25.5,8.5 C 27.8669,9.16369 29.8669,10.497 31.5,12.5C 29.914,17.3743 30.2473,22.0409 32.5,26.5C 31.3112,27.4287 29.9778,27.762 28.5,27.5C 28.9308,22.968 28.4308,18.6346 27,14.5C 26.501,18.8206 26.3343,23.1539 26.5,27.5C 26.1667,27.5 25.8333,27.5 25.5,27.5C 25.8195,22.6367 25.4861,17.97 24.5,13.5C 23.3915,12.71 22.0581,12.21 20.5,12C 22.0329,10.8595 23.6996,9.69285 25.5,8.5 Z"/></g>
<g><path style="opacity:0.012" fill="#a086d9" d="M 68.5,11.5 C 68.5,12.5 68.5,13.5 68.5,14.5C 68.1667,14.5 67.8333,14.5 67.5,14.5C 67.2627,13.209 67.596,12.209 68.5,11.5 Z"/></g>
<g><path style="opacity:1" fill="#ac79ee" d="M 38.5,6.5 C 40.9479,7.47307 43.6146,7.8064 46.5,7.5C 46.5,9.16667 46.5,10.8333 46.5,12.5C 46.5,12.8333 46.5,13.1667 46.5,13.5C 45.4168,13.5394 44.4168,13.8728 43.5,14.5C 42.6099,16.8261 42.4433,19.1594 43,21.5C 41.149,19.2189 39.4823,19.2189 38,21.5C 37.5604,19.9238 36.727,18.5904 35.5,17.5C 35.7093,16.914 36.0426,16.414 36.5,16C 32.7998,14.0642 31.7998,11.2309 33.5,7.5C 34.9187,6.54885 36.5853,6.21552 38.5,6.5 Z"/></g>
<g><path style="opacity:1" fill="#ccb7e0" d="M 24.5,13.5 C 25.4861,17.97 25.8195,22.6367 25.5,27.5C 23.7499,24.6446 22.9165,21.3113 23,17.5C 22.5814,18.6721 21.9147,19.6721 21,20.5C 20.79,18.9419 20.29,17.6085 19.5,16.5C 19.5,15.5 19.5,14.5 19.5,13.5C 21.1667,13.5 22.8333,13.5 24.5,13.5 Z"/></g>
<g><path style="opacity:1" fill="#a56bec" d="M 33.5,7.5 C 31.7998,11.2309 32.7998,14.0642 36.5,16C 36.0426,16.414 35.7093,16.914 35.5,17.5C 36.727,18.5904 37.5604,19.9238 38,21.5C 39.4823,19.2189 41.149,19.2189 43,21.5C 42.4433,19.1594 42.6099,16.8261 43.5,14.5C 44.4168,13.8728 45.4168,13.5394 46.5,13.5C 44.975,17.2522 43.975,21.2522 43.5,25.5C 40.7501,24.5116 38.0834,24.8449 35.5,26.5C 35.8627,27.1835 36.1961,27.8501 36.5,28.5C 35.8333,28.5 35.5,28.8333 35.5,29.5C 35.1667,29.5 34.8333,29.5 34.5,29.5C 31.8333,28.8333 29.1667,28.1667 26.5,27.5C 27.1667,27.5 27.8333,27.5 28.5,27.5C 29.9778,27.762 31.3112,27.4287 32.5,26.5C 30.2473,22.0409 29.914,17.3743 31.5,12.5C 29.8669,10.497 27.8669,9.16369 25.5,8.5C 28.0644,7.11846 30.7311,6.78512 33.5,7.5 Z"/></g>
<g><path style="opacity:0.999" fill="#9852e8" d="M 3.5,9.5 C 7.03308,11.9551 11.0331,13.1217 15.5,13C 17.4386,13.9078 18.4386,15.4078 18.5,17.5C 16.5727,20.7673 14.2394,23.7673 11.5,26.5C 9.79864,31.2184 11.2986,34.5517 16,36.5C 16.49,37.7932 16.6567,39.1266 16.5,40.5C 15.8485,39.9094 15.1818,39.2427 14.5,38.5C 10.9586,42.1538 7.12524,42.4871 3,39.5C 2.61742,40.056 2.11742,40.3893 1.5,40.5C 1.08005,35.4884 0.913386,30.4884 1,25.5C 2.00836,25.0183 3.17503,24.8516 4.5,25C 1.72359,23.2213 2.05692,22.2213 5.5,22C 2.79741,21.1347 1.46407,19.3013 1.5,16.5C 1.88645,14.0678 2.55311,11.7345 3.5,9.5 Z"/></g>
<g><path style="opacity:0.98" fill="#9982d2" d="M 59.5,4.5 C 61.371,4.85883 62.871,5.85883 64,7.5C 65.2126,9.92521 66.3793,12.2585 67.5,14.5C 67.1936,17.3854 67.5269,20.0521 68.5,22.5C 68.5,28.1667 68.5,33.8333 68.5,39.5C 67.5834,32.2338 66.2501,24.9004 64.5,17.5C 65.8767,14.5859 65.21,12.2525 62.5,10.5C 62.5,9.83333 62.1667,9.5 61.5,9.5C 60.8333,7.83333 60.1667,6.16667 59.5,4.5 Z"/></g>
<g><path style="opacity:1" fill="#5d20d1" d="M 28.5,27.5 C 27.8333,27.5 27.1667,27.5 26.5,27.5C 26.3343,23.1539 26.501,18.8206 27,14.5C 28.4308,18.6346 28.9308,22.968 28.5,27.5 Z"/></g>
<g><path style="opacity:1" fill="#e3d4ed" d="M 19.5,16.5 C 20.29,17.6085 20.79,18.9419 21,20.5C 21.9147,19.6721 22.5814,18.6721 23,17.5C 22.9165,21.3113 23.7499,24.6446 25.5,27.5C 25.8333,27.5 26.1667,27.5 26.5,27.5C 29.1667,28.1667 31.8333,28.8333 34.5,29.5C 34.5,29.8333 34.5,30.1667 34.5,30.5C 30.5874,31.5958 26.5874,31.7625 22.5,31C 19.6229,29.8732 16.6229,29.2065 13.5,29C 12.9341,28.0053 12.2674,27.172 11.5,26.5C 14.2394,23.7673 16.5727,20.7673 18.5,17.5C 19.1667,17.5 19.5,17.1667 19.5,16.5 Z"/></g>
<g><path style="opacity:0.937" fill="#9e4eed" d="M 3.5,6.5 C 3.5,6.83333 3.5,7.16667 3.5,7.5C 3.5,8.16667 3.5,8.83333 3.5,9.5C 2.55311,11.7345 1.88645,14.0678 1.5,16.5C 1.46407,19.3013 2.79741,21.1347 5.5,22C 2.05692,22.2213 1.72359,23.2213 4.5,25C 3.17503,24.8516 2.00836,25.0183 1,25.5C 0.913386,30.4884 1.08005,35.4884 1.5,40.5C 1.5,42.1667 1.5,43.8333 1.5,45.5C 1.51816,50.7631 2.85149,55.5964 5.5,60C 3.45559,60.4983 2.12225,61.665 1.5,63.5C 1.16667,63.5 0.833333,63.5 0.5,63.5C 0.784479,61.5853 0.451145,59.9187 -0.5,58.5C -0.5,43.8333 -0.5,29.1667 -0.5,14.5C 0.434475,13.4324 0.767809,12.099 0.5,10.5C 1.5,9.16667 2.5,7.83333 3.5,6.5 Z"/></g>
<g><path style="opacity:1" fill="#9758e5" d="M 54.5,7.5 C 52.8304,10.0016 50.6637,12.0016 48,13.5C 47.4816,17.5753 47.4816,21.5753 48,25.5C 44.4519,27.5122 40.6186,28.5122 36.5,28.5C 36.1961,27.8501 35.8627,27.1835 35.5,26.5C 38.0834,24.8449 40.7501,24.5116 43.5,25.5C 43.975,21.2522 44.975,17.2522 46.5,13.5C 46.5,13.1667 46.5,12.8333 46.5,12.5C 47.9335,11.1667 49.2668,9.66668 50.5,8C 51.7932,7.50999 53.1266,7.34332 54.5,7.5 Z"/></g>
<g><path style="opacity:1" fill="#8240d7" d="M 54.5,7.5 C 55.609,7.55688 56.609,7.89022 57.5,8.5C 57.5,9.16667 57.1667,9.5 56.5,9.5C 55.5041,9.41423 54.6708,9.74756 54,10.5C 54,15.1667 54,19.8333 54,24.5C 53.0882,27.3193 51.9216,29.9859 50.5,32.5C 51.0276,35.8607 52.8609,38.1941 56,39.5C 56.6667,42.1667 56.6667,44.8333 56,47.5C 55.7216,48.4158 55.2216,49.0825 54.5,49.5C 55.7112,41.3742 52.7112,39.3742 45.5,43.5C 42.7617,43.1125 40.4283,42.1125 38.5,40.5C 40.4241,41.9596 42.0908,41.6263 43.5,39.5C 45.396,38.5344 47.396,38.2011 49.5,38.5C 49.3215,35.7835 48.8215,33.1168 48,30.5C 46.6914,32.8912 45.6914,32.8912 45,30.5C 43.8668,32.2112 42.3668,32.7112 40.5,32C 40.8333,31.6667 41.1667,31.3333 41.5,31C 39.8988,30.7266 38.3988,30.2266 37,29.5C 36.6012,29.7284 36.4346,30.0618 36.5,30.5C 35.8333,30.5 35.5,30.1667 35.5,29.5C 35.5,28.8333 35.8333,28.5 36.5,28.5C 40.6186,28.5122 44.4519,27.5122 48,25.5C 47.4816,21.5753 47.4816,17.5753 48,13.5C 50.6637,12.0016 52.8304,10.0016 54.5,7.5 Z"/></g>
<g><path style="opacity:1" fill="#7536d1" d="M 38.5,40.5 C 38.3893,39.8826 38.056,39.3826 37.5,39C 36,38.8333 34.5,38.6667 33,38.5C 31.0145,38.5687 29.5145,39.2353 28.5,40.5C 28.8214,46.0262 28.4881,51.3595 27.5,56.5C 26.3467,50.3471 26.18,44.0137 27,37.5C 27.6708,36.7476 28.5041,36.4142 29.5,36.5C 29.8333,36.5 30.1667,36.5 30.5,36.5C 32.2646,37.4614 34.2646,37.7947 36.5,37.5C 36.5,35.1667 36.5,32.8333 36.5,30.5C 36.4346,30.0618 36.6012,29.7284 37,29.5C 38.3988,30.2266 39.8988,30.7266 41.5,31C 41.1667,31.3333 40.8333,31.6667 40.5,32C 42.3668,32.7112 43.8668,32.2112 45,30.5C 45.6914,32.8912 46.6914,32.8912 48,30.5C 48.8215,33.1168 49.3215,35.7835 49.5,38.5C 47.396,38.2011 45.396,38.5344 43.5,39.5C 42.0908,41.6263 40.4241,41.9596 38.5,40.5 Z"/></g>
<g><path style="opacity:1" fill="#d7c6e4" d="M 11.5,26.5 C 12.2674,27.172 12.9341,28.0053 13.5,29C 16.6229,29.2065 19.6229,29.8732 22.5,31C 26.5874,31.7625 30.5874,31.5958 34.5,30.5C 34.5,32.5 34.5,34.5 34.5,36.5C 33.1667,36.5 31.8333,36.5 30.5,36.5C 30.1667,36.5 29.8333,36.5 29.5,36.5C 27.3926,35.5318 25.0593,35.1984 22.5,35.5C 23.2727,39.804 23.9394,44.1374 24.5,48.5C 24.4324,51.4381 23.7658,54.1048 22.5,56.5C 22.7329,50.3937 22.0662,44.3937 20.5,38.5C 19.1166,41.0756 18.2833,40.7423 18,37.5C 17.8247,42.0195 17.3247,46.3528 16.5,50.5C 16.5,47.1667 16.5,43.8333 16.5,40.5C 16.6567,39.1266 16.49,37.7932 16,36.5C 11.2986,34.5517 9.79864,31.2184 11.5,26.5 Z"/></g>
<g><path style="opacity:0.996" fill="#7e5ec3" d="M 62.5,10.5 C 65.21,12.2525 65.8767,14.5859 64.5,17.5C 66.2501,24.9004 67.5834,32.2338 68.5,39.5C 68.5,44.8333 68.5,50.1667 68.5,55.5C 67.5233,58.2869 67.19,61.2869 67.5,64.5C 66.6697,54.3415 66.1697,44.0081 66,33.5C 64.9887,32.6634 63.8221,32.33 62.5,32.5C 62.5,31.8333 62.1667,31.5 61.5,31.5C 60.906,29.5896 60.5726,27.5896 60.5,25.5C 60.7208,21.7785 61.7208,18.2785 63.5,15C 63.2272,13.4672 62.8938,11.9672 62.5,10.5 Z"/></g>
<g><path style="opacity:1" fill="#a086c6" d="M 34.5,29.5 C 34.8333,29.5 35.1667,29.5 35.5,29.5C 35.5,30.1667 35.8333,30.5 36.5,30.5C 36.5,32.8333 36.5,35.1667 36.5,37.5C 34.2646,37.7947 32.2646,37.4614 30.5,36.5C 31.8333,36.5 33.1667,36.5 34.5,36.5C 34.5,34.5 34.5,32.5 34.5,30.5C 34.5,30.1667 34.5,29.8333 34.5,29.5 Z"/></g>
<g><path style="opacity:1" fill="#dfd0e9" d="M 22.5,56.5 C 20.8583,58.0808 18.8583,58.7475 16.5,58.5C 16.5,55.8333 16.5,53.1667 16.5,50.5C 17.3247,46.3528 17.8247,42.0195 18,37.5C 18.2833,40.7423 19.1166,41.0756 20.5,38.5C 22.0662,44.3937 22.7329,50.3937 22.5,56.5 Z"/></g>
<g><path style="opacity:1" fill="#8a48df" d="M 50.5,51.5 C 49.8561,54.144 48.1894,55.8106 45.5,56.5C 44.9246,50.8789 42.258,49.5456 37.5,52.5C 36.1468,53.5237 35.4802,54.857 35.5,56.5C 32.6926,57.6567 30.0259,57.6567 27.5,56.5C 28.4881,51.3595 28.8214,46.0262 28.5,40.5C 30.7345,39.9514 33.0678,40.2848 35.5,41.5C 36.4287,42.6888 36.762,44.0222 36.5,45.5C 39.5279,45.3389 42.3612,46.0056 45,47.5C 47.3816,45.2261 50.2149,43.8927 53.5,43.5C 53.6061,46.6145 52.6061,49.2812 50.5,51.5 Z"/></g>
<g><path style="opacity:1" fill="#8543db" d="M 38.5,40.5 C 40.4283,42.1125 42.7617,43.1125 45.5,43.5C 52.7112,39.3742 55.7112,41.3742 54.5,49.5C 54.5,49.8333 54.5,50.1667 54.5,50.5C 54.1667,50.5 53.8333,50.5 53.5,50.5C 52.609,51.1098 51.609,51.4431 50.5,51.5C 52.6061,49.2812 53.6061,46.6145 53.5,43.5C 50.2149,43.8927 47.3816,45.2261 45,47.5C 42.3612,46.0056 39.5279,45.3389 36.5,45.5C 36.762,44.0222 36.4287,42.6888 35.5,41.5C 33.0678,40.2848 30.7345,39.9514 28.5,40.5C 29.5145,39.2353 31.0145,38.5687 33,38.5C 34.5,38.6667 36,38.8333 37.5,39C 38.056,39.3826 38.3893,39.8826 38.5,40.5 Z"/></g>
<g><path style="opacity:1" fill="#5d2ab5" d="M 57.5,8.5 C 58.9587,8.43255 60.2921,8.76589 61.5,9.5C 62.1667,9.5 62.5,9.83333 62.5,10.5C 62.8938,11.9672 63.2272,13.4672 63.5,15C 61.7208,18.2785 60.7208,21.7785 60.5,25.5C 60.5726,27.5896 60.906,29.5896 61.5,31.5C 61.9801,36.8221 62.3135,42.1554 62.5,47.5C 61.5,47.5 60.5,47.5 59.5,47.5C 60.2416,54.7078 60.0749,62.0411 59,69.5C 57.9609,70.7101 56.7942,71.7101 55.5,72.5C 55.5569,71.391 55.8902,70.391 56.5,69.5C 57.9095,66.8223 57.7428,64.1557 56,61.5C 55.3333,57.8333 55.3333,54.1667 56,50.5C 60.1204,45.0118 60.4538,39.3452 57,33.5C 56.7146,26.8132 56.2146,20.1466 55.5,13.5C 55.6233,12.0755 55.9566,10.7421 56.5,9.5C 57.1667,9.5 57.5,9.16667 57.5,8.5 Z"/></g>
<g><path style="opacity:0.999" fill="#a466ed" d="M 16.5,40.5 C 16.5,43.8333 16.5,47.1667 16.5,50.5C 16.5,53.1667 16.5,55.8333 16.5,58.5C 15.5269,56.0521 15.1936,53.3854 15.5,50.5C 15.719,49.325 15.3857,48.325 14.5,47.5C 13.1076,48.6053 11.941,49.9386 11,51.5C 9.31963,50.3966 7.81963,50.7299 6.5,52.5C 4.29193,50.5118 2.62526,48.1785 1.5,45.5C 1.5,43.8333 1.5,42.1667 1.5,40.5C 2.11742,40.3893 2.61742,40.056 3,39.5C 7.12524,42.4871 10.9586,42.1538 14.5,38.5C 15.1818,39.2427 15.8485,39.9094 16.5,40.5 Z"/></g>
<g><path style="opacity:0.998" fill="#663cb8" d="M 62.5,32.5 C 63.8221,32.33 64.9887,32.6634 66,33.5C 66.1697,44.0081 66.6697,54.3415 67.5,64.5C 67.5,65.5 67.5,66.5 67.5,67.5C 66.596,68.209 66.2627,69.209 66.5,70.5C 66.1667,70.5 65.8333,70.5 65.5,70.5C 62.9996,72.167 60.3329,73.5004 57.5,74.5C 60.0727,72.0903 62.0727,69.2569 63.5,66C 63.321,62.0139 62.9877,58.0139 62.5,54C 63.9172,51.4057 64.5839,48.5723 64.5,45.5C 63.9906,41.1327 63.3239,36.7993 62.5,32.5 Z"/></g>
<g><path style="opacity:1" fill="#6d32c6" d="M 56.5,9.5 C 55.9566,10.7421 55.6233,12.0755 55.5,13.5C 56.2146,20.1466 56.7146,26.8132 57,33.5C 60.4538,39.3452 60.1204,45.0118 56,50.5C 55.3333,54.1667 55.3333,57.8333 56,61.5C 57.7428,64.1557 57.9095,66.8223 56.5,69.5C 56.6602,67.8008 56.4935,66.1341 56,64.5C 53.9743,62.8047 52.8077,60.6381 52.5,58C 52.9448,55.4098 53.6114,52.9098 54.5,50.5C 54.5,50.1667 54.5,49.8333 54.5,49.5C 55.2216,49.0825 55.7216,48.4158 56,47.5C 56.6667,44.8333 56.6667,42.1667 56,39.5C 52.8609,38.1941 51.0276,35.8607 50.5,32.5C 51.9216,29.9859 53.0882,27.3193 54,24.5C 54,19.8333 54,15.1667 54,10.5C 54.6708,9.74756 55.5041,9.41423 56.5,9.5 Z"/></g>
<g><path style="opacity:0.999" fill="#9853e7" d="M 1.5,45.5 C 2.62526,48.1785 4.29193,50.5118 6.5,52.5C 7.81963,50.7299 9.31963,50.3966 11,51.5C 11.941,49.9386 13.1076,48.6053 14.5,47.5C 15.3857,48.325 15.719,49.325 15.5,50.5C 14.5206,53.6248 14.1872,56.9581 14.5,60.5C 9.39069,59.6194 6.05735,61.6194 4.5,66.5C 4.86273,67.1835 5.19607,67.8501 5.5,68.5C 4.83333,68.5 4.16667,68.5 3.5,68.5C 3.5,67.8333 3.16667,67.5 2.5,67.5C 1.76589,66.2921 1.43255,64.9587 1.5,63.5C 2.12225,61.665 3.45559,60.4983 5.5,60C 2.85149,55.5964 1.51816,50.7631 1.5,45.5 Z"/></g>
<g><path style="opacity:1" fill="#cfbdde" d="M 29.5,36.5 C 28.5041,36.4142 27.6708,36.7476 27,37.5C 26.18,44.0137 26.3467,50.3471 27.5,56.5C 30.0259,57.6567 32.6926,57.6567 35.5,56.5C 37.0481,56.8212 37.7148,57.8212 37.5,59.5C 37.8991,64.0557 35.8991,66.7224 31.5,67.5C 27.2076,67.9651 23.2076,67.1318 19.5,65C 17.5494,63.2658 16.5494,61.0991 16.5,58.5C 18.8583,58.7475 20.8583,58.0808 22.5,56.5C 23.7658,54.1048 24.4324,51.4381 24.5,48.5C 23.9394,44.1374 23.2727,39.804 22.5,35.5C 25.0593,35.1984 27.3926,35.5318 29.5,36.5 Z"/></g>
<g><path style="opacity:1" fill="#7436cd" d="M 53.5,50.5 C 53.8333,50.5 54.1667,50.5 54.5,50.5C 53.6114,52.9098 52.9448,55.4098 52.5,58C 52.8077,60.6381 53.9743,62.8047 56,64.5C 56.4935,66.1341 56.6602,67.8008 56.5,69.5C 55.8902,70.391 55.5569,71.391 55.5,72.5C 54.8333,72.5 54.5,72.8333 54.5,73.5C 53.7417,71.0185 53.7417,68.3519 54.5,65.5C 52.1667,65.5 49.8333,65.5 47.5,65.5C 47.3512,62.3926 47.8512,59.3926 49,56.5C 50.7615,54.6193 52.2615,52.6193 53.5,50.5 Z"/></g>
<g><path style="opacity:1" fill="#8d4edf" d="M 45.5,56.5 C 45.0578,60.1545 44.7244,63.8212 44.5,67.5C 42.8333,67.5 41.1667,67.5 39.5,67.5C 39.665,64.1501 39.4983,60.8168 39,57.5C 38.7216,58.4158 38.2216,59.0825 37.5,59.5C 37.7148,57.8212 37.0481,56.8212 35.5,56.5C 35.4802,54.857 36.1468,53.5237 37.5,52.5C 42.258,49.5456 44.9246,50.8789 45.5,56.5 Z"/></g>
<g><path style="opacity:0.008" fill="#9a52e8" d="M -0.5,63.5 C -0.166667,63.5 0.166667,63.5 0.5,63.5C 0.67158,64.4916 0.338246,65.1583 -0.5,65.5C -0.5,64.8333 -0.5,64.1667 -0.5,63.5 Z"/></g>
<g><path style="opacity:0.998" fill="#8646da" d="M 15.5,50.5 C 15.1936,53.3854 15.5269,56.0521 16.5,58.5C 16.5494,61.0991 17.5494,63.2658 19.5,65C 23.2076,67.1318 27.2076,67.9651 31.5,67.5C 29.7078,68.3091 27.7078,68.8091 25.5,69C 28.146,69.4974 30.8127,69.6641 33.5,69.5C 33.5,70.8333 33.5,72.1667 33.5,73.5C 36.5318,73.505 39.5318,73.8384 42.5,74.5C 44.0296,74.6399 45.0296,75.3065 45.5,76.5C 34.1845,75.5802 22.8511,74.0802 11.5,72C 8.97457,71.5762 6.97457,70.4095 5.5,68.5C 5.19607,67.8501 4.86273,67.1835 4.5,66.5C 6.05735,61.6194 9.39069,59.6194 14.5,60.5C 14.1872,56.9581 14.5206,53.6248 15.5,50.5 Z"/></g>
<g><path style="opacity:0.004" fill="#9255e1" d="M 2.5,67.5 C 2.63101,68.2389 2.46434,68.9056 2,69.5C 1.30831,68.5632 1.47498,67.8966 2.5,67.5 Z"/></g>
<g><path style="opacity:1" fill="#7e3ed5" d="M 53.5,50.5 C 52.2615,52.6193 50.7615,54.6193 49,56.5C 47.8512,59.3926 47.3512,62.3926 47.5,65.5C 49.8333,65.5 52.1667,65.5 54.5,65.5C 53.7417,68.3519 53.7417,71.0185 54.5,73.5C 55.209,74.404 56.209,74.7373 57.5,74.5C 56.9423,75.7899 55.9423,76.6232 54.5,77C 51.408,77.7358 48.408,77.5691 45.5,76.5C 45.0296,75.3065 44.0296,74.6399 42.5,74.5C 39.5318,73.8384 36.5318,73.505 33.5,73.5C 33.5,72.1667 33.5,70.8333 33.5,69.5C 30.8127,69.6641 28.146,69.4974 25.5,69C 27.7078,68.8091 29.7078,68.3091 31.5,67.5C 35.8991,66.7224 37.8991,64.0557 37.5,59.5C 38.2216,59.0825 38.7216,58.4158 39,57.5C 39.4983,60.8168 39.665,64.1501 39.5,67.5C 41.1667,67.5 42.8333,67.5 44.5,67.5C 44.7244,63.8212 45.0578,60.1545 45.5,56.5C 48.1894,55.8106 49.8561,54.144 50.5,51.5C 51.609,51.4431 52.609,51.1098 53.5,50.5 Z"/></g>
<g><path style="opacity:0.012" fill="#7146c2" d="M 67.5,67.5 C 67.8333,67.5 68.1667,67.5 68.5,67.5C 68.5,68.5 68.5,69.5 68.5,70.5C 68.1667,70.5 67.8333,70.5 67.5,70.5C 67.5,69.5 67.5,68.5 67.5,67.5 Z"/></g>
<g><path style="opacity:0.996" fill="#582aaf" d="M 61.5,31.5 C 62.1667,31.5 62.5,31.8333 62.5,32.5C 63.3239,36.7993 63.9906,41.1327 64.5,45.5C 64.5839,48.5723 63.9172,51.4057 62.5,54C 62.9877,58.0139 63.321,62.0139 63.5,66C 62.0727,69.2569 60.0727,72.0903 57.5,74.5C 56.209,74.7373 55.209,74.404 54.5,73.5C 54.5,72.8333 54.8333,72.5 55.5,72.5C 56.7942,71.7101 57.9609,70.7101 59,69.5C 60.0749,62.0411 60.2416,54.7078 59.5,47.5C 60.5,47.5 61.5,47.5 62.5,47.5C 62.3135,42.1554 61.9801,36.8221 61.5,31.5 Z"/></g>
<g><path style="opacity:0.008" fill="#9161dd" d="M 5.5,71.5 C 4.83333,72.1667 4.83333,72.1667 5.5,71.5 Z"/></g>
<g><path style="opacity:0.004" fill="#754ec3" d="M 66.5,70.5 C 66.8333,70.5 67.1667,70.5 67.5,70.5C 67.6716,71.4916 67.3382,72.1583 66.5,72.5C 66.5,71.8333 66.5,71.1667 66.5,70.5 Z"/></g>
<g><path style="opacity:0.012" fill="#734cc2" d="M 65.5,72.5 C 65.8333,72.5 66.1667,72.5 66.5,72.5C 66.3147,73.1701 65.9813,73.1701 65.5,72.5 Z"/></g>
<g><path style="opacity:0.012" fill="#8452d3" d="M 9.5,73.5 C 9.10343,74.525 8.43677,74.6917 7.5,74C 8.09442,73.5357 8.76109,73.369 9.5,73.5 Z"/></g>
<g><path style="opacity:0.012" fill="#7b46d0" d="M 13.5,74.5 C 12.7494,75.5735 11.7494,75.7401 10.5,75C 11.448,74.5172 12.448,74.3505 13.5,74.5 Z"/></g>
<g><path style="opacity:0.004" fill="#7c5ac7" d="M 64.5,74.5 C 65.8333,75.1667 65.8333,75.1667 64.5,74.5 Z"/></g>
<g><path style="opacity:0.008" fill="#7d51ce" d="M 14.5,76.5 C 16.2884,75.3775 18.2884,75.2109 20.5,76C 18.5273,76.4955 16.5273,76.6621 14.5,76.5 Z"/></g>
<g><path style="opacity:0.936" fill="#7e54cc" d="M 3.5,68.5 C 4.16667,68.5 4.83333,68.5 5.5,68.5C 6.97457,70.4095 8.97457,71.5762 11.5,72C 22.8511,74.0802 34.1845,75.5802 45.5,76.5C 48.408,77.5691 51.408,77.7358 54.5,77C 55.9423,76.6232 56.9423,75.7899 57.5,74.5C 60.3329,73.5004 62.9996,72.167 65.5,70.5C 65.5,71.1667 65.5,71.8333 65.5,72.5C 64.0937,72.9731 63.427,73.9731 63.5,75.5C 61.9731,75.427 60.9731,76.0937 60.5,77.5C 59.209,77.2627 58.209,77.596 57.5,78.5C 52.1667,78.5 46.8333,78.5 41.5,78.5C 39.7354,77.5386 37.7354,77.2053 35.5,77.5C 33.3926,76.5318 31.0593,76.1984 28.5,76.5C 23.7312,75.111 18.7312,74.4443 13.5,74.5C 12.4324,73.5655 11.099,73.2322 9.5,73.5C 8.48631,72.3263 7.15298,71.6596 5.5,71.5C 4.83333,70.5 4.16667,69.5 3.5,68.5 Z"/></g>
<g><path style="opacity:0.008" fill="#7c5bc6" d="M 63.5,75.5 C 63.8333,75.5 64.1667,75.5 64.5,75.5C 64.3147,76.1701 63.9813,76.1701 63.5,75.5 Z"/></g>
<g><path style="opacity:0.007" fill="#7f55cd" d="M 28.5,76.5 C 26.7116,77.6225 24.7116,77.7891 22.5,77C 24.4727,76.5045 26.4727,76.3379 28.5,76.5 Z"/></g>
<g><path style="opacity:0.004" fill="#7f61c6" d="M 63.5,76.5 C 62.8333,77.1667 62.8333,77.1667 63.5,76.5 Z"/></g>
<g><path style="opacity:0.008" fill="#7d4ece" d="M 29.5,78.5 C 31.2646,77.5386 33.2646,77.2053 35.5,77.5C 35.5,77.8333 35.5,78.1667 35.5,78.5C 33.5,78.5 31.5,78.5 29.5,78.5 Z"/></g>
<g><path style="opacity:0.012" fill="#754ec5" d="M 60.5,77.5 C 61.1667,77.5 61.5,77.8333 61.5,78.5C 61.1667,78.1667 60.8333,77.8333 60.5,77.5 Z"/></g>
</svg>
