<?xml version="1.0" encoding="UTF-8"?>
<!DOCTYPE svg PUBLIC "-//W3C//DTD SVG 1.1//EN" "http://www.w3.org/Graphics/SVG/1.1/DTD/svg11.dtd">
<svg xmlns="http://www.w3.org/2000/svg" version="1.1" width="69px" height="78px"
     style="shape-rendering:geometricPrecision; text-rendering:geometricPrecision; image-rendering:optimizeQuality; fill-rule:evenodd; clip-rule:evenodd"
>
    <g>
        <path style="opacity:0.012" fill="#f89fbd"
              d="M 18.5,-0.5 C 18.8333,-0.5 19.1667,-0.5 19.5,-0.5C 19.5,-0.166667 19.5,0.166667 19.5,0.5C 19.1667,0.166667 18.8333,-0.166667 18.5,-0.5 Z"/>
    </g>
    <g>
        <path style="opacity:0.012" fill="#ee9fb5"
              d="M 46.5,-0.5 C 46.8333,-0.5 47.1667,-0.5 47.5,-0.5C 47.3147,0.170143 46.9813,0.170143 46.5,-0.5 Z"/>
    </g>
    <g>
        <path style="opacity:0.764" fill="#f59eba"
              d="M 22.5,-0.5 C 29.1667,-0.5 35.8333,-0.5 42.5,-0.5C 40.9236,0.142944 39.5903,1.14294 38.5,2.5C 32.9839,2.68769 27.6506,3.68769 22.5,5.5C 20.5914,4.65178 18.5914,4.31845 16.5,4.5C 15.8333,4.5 15.1667,4.5 14.5,4.5C 15.9842,2.92635 17.6508,1.59302 19.5,0.5C 20.791,0.737305 21.791,0.403972 22.5,-0.5 Z"/>
    </g>
    <g>
        <path style="opacity:0.997" fill="#ef9bb4"
              d="M 42.5,-0.5 C 42.8333,-0.5 43.1667,-0.5 43.5,-0.5C 44.209,0.403972 45.209,0.737305 46.5,0.5C 47.795,1.48837 49.1283,2.48837 50.5,3.5C 50.5,4.16667 50.5,4.83333 50.5,5.5C 49.1932,4.84661 47.8599,4.17994 46.5,3.5C 46.5504,4.84757 46.217,6.34757 45.5,8C 43.8425,8.72516 42.8425,8.22516 42.5,6.5C 41.1667,5.16667 39.8333,3.83333 38.5,2.5C 39.5903,1.14294 40.9236,0.142944 42.5,-0.5 Z"/>
    </g>
    <g>
        <path style="opacity:0.997" fill="#eb93ac"
              d="M 38.5,2.5 C 39.8333,3.83333 41.1667,5.16667 42.5,6.5C 41.8333,6.5 41.1667,6.5 40.5,6.5C 40.0825,5.77842 39.4158,5.27842 38.5,5C 33.7767,4.37621 29.11,4.70954 24.5,6C 23.7894,7.25471 22.956,8.42138 22,9.5C 21.1482,8.42925 20.3149,7.42925 19.5,6.5C 18.1667,6.5 16.8333,6.5 15.5,6.5C 15.8333,5.83333 16.1667,5.16667 16.5,4.5C 18.5914,4.31845 20.5914,4.65178 22.5,5.5C 27.6506,3.68769 32.9839,2.68769 38.5,2.5 Z"/>
    </g>
    <g>
        <path style="opacity:0.999" fill="#eb93ac"
              d="M 50.5,5.5 C 51.5,5.83333 52.1667,6.5 52.5,7.5C 51.2438,7.46141 50.2438,7.96141 49.5,9C 49.8333,10.6667 50.1667,12.3333 50.5,14C 49.9558,14.7172 49.2891,15.2172 48.5,15.5C 46.6159,15.2882 45.2826,14.2882 44.5,12.5C 43.6143,13.325 43.281,14.325 43.5,15.5C 40.9327,15.7215 38.5994,16.3882 36.5,17.5C 35.2905,17.0679 34.2905,16.4013 33.5,15.5C 34.7383,15.19 34.7383,14.69 33.5,14C 38.1125,13.5561 40.4458,11.0561 40.5,6.5C 41.1667,6.5 41.8333,6.5 42.5,6.5C 42.8425,8.22516 43.8425,8.72516 45.5,8C 46.217,6.34757 46.5504,4.84757 46.5,3.5C 47.8599,4.17994 49.1932,4.84661 50.5,5.5 Z"/>
    </g>
    <g>
        <path style="opacity:0.937" fill="#f39ab7"
              d="M 14.5,4.5 C 15.1667,4.5 15.8333,4.5 16.5,4.5C 16.1667,5.16667 15.8333,5.83333 15.5,6.5C 13.9731,6.42702 12.9731,7.09368 12.5,8.5C 11.8333,8.5 11.5,8.83333 11.5,9.5C 5.94897,13.4161 2.61564,18.7494 1.5,25.5C 1.16667,25.5 0.833333,25.5 0.5,25.5C 0.833333,23.5 1.16667,21.5 1.5,19.5C 2.40397,18.791 2.73731,17.791 2.5,16.5C 5.49385,11.5061 9.49385,7.50614 14.5,4.5 Z"/>
    </g>
    <g>
        <path style="opacity:0.999" fill="#e988a4"
              d="M 15.5,6.5 C 16.8333,6.5 18.1667,6.5 19.5,6.5C 19.67,7.82207 19.3366,8.98873 18.5,10C 19.7932,10.49 21.1266,10.6567 22.5,10.5C 22.6068,12.3786 22.1068,12.7119 21,11.5C 20.5,12 20,12.5 19.5,13C 19.8836,13.9506 20.2169,14.7839 20.5,15.5C 19.205,16.4884 17.8717,17.4884 16.5,18.5C 14.283,17.6314 11.9496,17.298 9.5,17.5C 11.7966,15.7059 13.9633,13.7059 16,11.5C 16.4828,10.552 16.6495,9.55198 16.5,8.5C 15.1667,8.5 13.8333,8.5 12.5,8.5C 12.9731,7.09368 13.9731,6.42702 15.5,6.5 Z"/>
    </g>
    <g>
        <path style="opacity:1" fill="#e689a3"
              d="M 40.5,6.5 C 40.4458,11.0561 38.1125,13.5561 33.5,14C 34.7383,14.69 34.7383,15.19 33.5,15.5C 32.5084,15.6716 31.8417,15.3382 31.5,14.5C 31.0825,13.7784 30.4158,13.2784 29.5,13C 33.8261,12.6775 37.1594,10.6775 39.5,7C 37.6354,5.69862 35.6354,5.36528 33.5,6C 29.5394,6.95737 25.8728,8.45737 22.5,10.5C 21.1266,10.6567 19.7932,10.49 18.5,10C 19.3366,8.98873 19.67,7.82207 19.5,6.5C 20.3149,7.42925 21.1482,8.42925 22,9.5C 22.956,8.42138 23.7894,7.25471 24.5,6C 29.11,4.70954 33.7767,4.37621 38.5,5C 39.4158,5.27842 40.0825,5.77842 40.5,6.5 Z"/>
    </g>
    <g>
        <path style="opacity:1" fill="#e37d9a"
              d="M 31.5,14.5 C 27.7657,14.3227 24.0991,14.6561 20.5,15.5C 20.2169,14.7839 19.8836,13.9506 19.5,13C 20,12.5 20.5,12 21,11.5C 22.1068,12.7119 22.6068,12.3786 22.5,10.5C 25.8728,8.45737 29.5394,6.95737 33.5,6C 35.6354,5.36528 37.6354,5.69862 39.5,7C 37.1594,10.6775 33.8261,12.6775 29.5,13C 30.4158,13.2784 31.0825,13.7784 31.5,14.5 Z"/>
    </g>
    <g>
        <path style="opacity:0.994" fill="#e58ca4"
              d="M 52.5,7.5 C 54.5475,9.54964 56.2141,11.883 57.5,14.5C 56.2794,13.9717 55.1127,13.305 54,12.5C 53.6012,12.7284 53.4346,13.0618 53.5,13.5C 51.9519,13.8212 51.2852,14.8212 51.5,16.5C 50.209,16.7373 49.209,16.404 48.5,15.5C 49.2891,15.2172 49.9558,14.7172 50.5,14C 50.1667,12.3333 49.8333,10.6667 49.5,9C 50.2438,7.96141 51.2438,7.46141 52.5,7.5 Z"/>
    </g>
    <g>
        <path style="opacity:0.012" fill="#e6a3b2" d="M 58.5,9.5 C 59.8333,10.1667 59.8333,10.1667 58.5,9.5 Z"/>
    </g>
    <g>
        <path style="opacity:0.997" fill="#e37d9a"
              d="M 12.5,8.5 C 13.8333,8.5 15.1667,8.5 16.5,8.5C 16.6495,9.55198 16.4828,10.552 16,11.5C 13.9633,13.7059 11.7966,15.7059 9.5,17.5C 8.32496,17.719 7.32496,17.3857 6.5,16.5C 8.60491,14.4084 10.2716,12.0751 11.5,9.5C 11.5,8.83333 11.8333,8.5 12.5,8.5 Z"/>
    </g>
    <g>
        <path style="opacity:1" fill="#e586a1"
              d="M 48.5,15.5 C 49.209,16.404 50.209,16.7373 51.5,16.5C 51.2852,14.8212 51.9519,13.8212 53.5,13.5C 52.4586,18.7617 49.7919,19.7617 45.5,16.5C 43.0808,16.9137 41.0808,17.9137 39.5,19.5C 38.5,18.8333 37.5,18.1667 36.5,17.5C 38.5994,16.3882 40.9327,15.7215 43.5,15.5C 43.281,14.325 43.6143,13.325 44.5,12.5C 45.2826,14.2882 46.6159,15.2882 48.5,15.5 Z"/>
    </g>
    <g>
        <path style="opacity:0.012" fill="#e3a1b0" d="M 61.5,14.5 C 62.8333,15.1667 62.8333,15.1667 61.5,14.5 Z"/>
    </g>
    <g>
        <path style="opacity:0.012" fill="#f195b2" d="M 2.5,16.5 C 1.83333,15.1667 1.83333,15.1667 2.5,16.5 Z"/>
    </g>
    <g>
        <path style="opacity:1" fill="#e5d0d6"
              d="M 39.5,20.5 C 41.4044,20.7376 42.7377,21.7376 43.5,23.5C 42.1196,24.7065 40.9529,24.3731 40,22.5C 39.5357,23.0944 39.369,23.7611 39.5,24.5C 36.1833,23.6946 33.5166,21.8612 31.5,19C 25.7754,17.6765 20.7754,18.8432 16.5,22.5C 15.2876,23.2299 14.2876,24.2299 13.5,25.5C 12.513,28.7683 12.1796,32.1016 12.5,35.5C 12.5,35.8333 12.5,36.1667 12.5,36.5C 12.1667,36.5 11.8333,36.5 11.5,36.5C 11.0578,32.8455 10.7244,29.1788 10.5,25.5C 18.8542,16.7695 28.5208,15.1028 39.5,20.5 Z"/>
    </g>
    <g>
        <path style="opacity:0.008" fill="#ed93af"
              d="M 1.5,19.5 C 1.16667,19.5 0.833333,19.5 0.5,19.5C 0.833333,16.8333 1.16667,16.8333 1.5,19.5 Z"/>
    </g>
    <g>
        <path style="opacity:0.998" fill="#e88ba5"
              d="M 11.5,9.5 C 10.2716,12.0751 8.60491,14.4084 6.5,16.5C 7.32496,17.3857 8.32496,17.719 9.5,17.5C 11.9496,17.298 14.283,17.6314 16.5,18.5C 14.1939,20.1394 12.1939,22.1394 10.5,24.5C 9.20278,26.3713 8.20278,28.3713 7.5,30.5C 6.85048,28.5648 6.51715,26.5648 6.5,24.5C 4.70848,24.366 3.04181,24.6993 1.5,25.5C 2.61564,18.7494 5.94897,13.4161 11.5,9.5 Z"/>
    </g>
    <g>
        <path style="opacity:1" fill="#efdbe0"
              d="M 31.5,14.5 C 31.8417,15.3382 32.5084,15.6716 33.5,15.5C 34.2905,16.4013 35.2905,17.0679 36.5,17.5C 37.5,18.1667 38.5,18.8333 39.5,19.5C 39.5,19.8333 39.5,20.1667 39.5,20.5C 28.5208,15.1028 18.8542,16.7695 10.5,25.5C 10.5,25.1667 10.5,24.8333 10.5,24.5C 12.1939,22.1394 14.1939,20.1394 16.5,18.5C 17.8717,17.4884 19.205,16.4884 20.5,15.5C 24.0991,14.6561 27.7657,14.3227 31.5,14.5 Z"/>
    </g>
    <g>
        <path style="opacity:1" fill="#e2819b"
              d="M 57.5,14.5 C 60.5811,17.6554 62.9144,21.322 64.5,25.5C 61.0185,24.3575 59.0185,22.0241 58.5,18.5C 55.2752,13.0791 53.4419,13.7458 53,20.5C 52.1072,19.2888 51.2739,19.2888 50.5,20.5C 55.0866,25.3227 54.0866,27.9894 47.5,28.5C 47.0679,27.2905 46.4013,26.2905 45.5,25.5C 44.5,25.1667 43.8333,24.5 43.5,23.5C 42.7377,21.7376 41.4044,20.7376 39.5,20.5C 39.5,20.1667 39.5,19.8333 39.5,19.5C 41.0808,17.9137 43.0808,16.9137 45.5,16.5C 49.7919,19.7617 52.4586,18.7617 53.5,13.5C 53.4346,13.0618 53.6012,12.7284 54,12.5C 55.1127,13.305 56.2794,13.9717 57.5,14.5 Z"/>
    </g>
    <g>
        <path style="opacity:0.682" fill="#dd99a9"
              d="M 50.5,3.5 C 53.1667,5.83333 55.8333,8.16667 58.5,10.5C 58.7497,12.674 59.7497,14.3406 61.5,15.5C 61.7497,17.674 62.7497,19.3406 64.5,20.5C 64.9925,22.8185 65.9925,24.8185 67.5,26.5C 67.2627,27.791 67.596,28.791 68.5,29.5C 68.5,32.5 68.5,35.5 68.5,38.5C 67.6554,37.3285 66.9887,35.9952 66.5,34.5C 66.7931,31.2457 66.1264,28.2457 64.5,25.5C 62.9144,21.322 60.5811,17.6554 57.5,14.5C 56.2141,11.883 54.5475,9.54964 52.5,7.5C 52.1667,6.5 51.5,5.83333 50.5,5.5C 50.5,4.83333 50.5,4.16667 50.5,3.5 Z"/>
    </g>
    <g>
        <path style="opacity:0.01" fill="#f193b1"
              d="M -0.5,19.5 C -0.166667,19.5 0.166667,19.5 0.5,19.5C 0.67158,20.4916 0.338246,21.1583 -0.5,21.5C -0.5,20.8333 -0.5,20.1667 -0.5,19.5 Z"/>
    </g>
    <g>
        <path style="opacity:0.012" fill="#e19aaa" d="M 64.5,19.5 C 65.8333,20.1667 65.8333,20.1667 64.5,19.5 Z"/>
    </g>
    <g>
        <path style="opacity:1" fill="#dc7793"
              d="M 58.5,18.5 C 57.3509,18.7911 56.6842,19.6244 56.5,21C 56.9434,22.825 57.2767,24.6583 57.5,26.5C 57.6602,28.1992 57.4935,29.8659 57,31.5C 56.3292,30.7476 55.4959,30.4142 54.5,30.5C 52.1667,29.8333 49.8333,29.1667 47.5,28.5C 54.0866,27.9894 55.0866,25.3227 50.5,20.5C 51.2739,19.2888 52.1072,19.2888 53,20.5C 53.4419,13.7458 55.2752,13.0791 58.5,18.5 Z"/>
    </g>
    <g>
        <path style="opacity:1" fill="#cf6b84"
              d="M 58.5,18.5 C 59.0185,22.0241 61.0185,24.3575 64.5,25.5C 66.1264,28.2457 66.7931,31.2457 66.5,34.5C 66.1667,34.5 65.8333,34.5 65.5,34.5C 64.6207,31.0758 62.954,28.0758 60.5,25.5C 59.6143,26.325 59.281,27.325 59.5,28.5C 58.8333,27.8333 58.1667,27.1667 57.5,26.5C 57.2767,24.6583 56.9434,22.825 56.5,21C 56.6842,19.6244 57.3509,18.7911 58.5,18.5 Z"/>
    </g>
    <g>
        <path style="opacity:1" fill="#d5b8bf"
              d="M 28.5,21.5 C 26.5853,21.2155 24.9187,21.5489 23.5,22.5C 17.9735,25.3521 14.3069,29.6854 12.5,35.5C 12.1796,32.1016 12.513,28.7683 13.5,25.5C 14.2876,24.2299 15.2876,23.2299 16.5,22.5C 17.4959,22.4142 18.3292,22.7476 19,23.5C 21.7333,19.4624 24.9,18.7957 28.5,21.5 Z"/>
    </g>
    <g>
        <path style="opacity:1" fill="#df7a95"
              d="M 23.5,22.5 C 24.9187,21.5489 26.5853,21.2155 28.5,21.5C 31.7012,22.3786 34.3678,24.0453 36.5,26.5C 36.0623,27.5063 35.3957,27.5063 34.5,26.5C 32.0799,26.2924 29.7466,26.6258 27.5,27.5C 26.6143,26.675 26.281,25.675 26.5,24.5C 25.1667,24.5 23.8333,24.5 22.5,24.5C 22.9175,23.7784 23.5842,23.2784 24.5,23C 24.2716,22.6012 23.9382,22.4346 23.5,22.5 Z"/>
    </g>
    <g>
        <path style="opacity:1" fill="#e37f9b"
              d="M 22.5,24.5 C 23.8333,24.5 25.1667,24.5 26.5,24.5C 26.281,25.675 26.6143,26.675 27.5,27.5C 29.7466,26.6258 32.0799,26.2924 34.5,26.5C 31.9908,27.6824 30.6574,29.6824 30.5,32.5C 30.1667,32.5 29.8333,32.5 29.5,32.5C 28.8333,32.1667 28.1667,31.8333 27.5,31.5C 25.7768,30.193 23.9435,30.193 22,31.5C 19.9937,34.5358 19.1604,37.8691 19.5,41.5C 18.0069,40.6879 17.3402,39.3545 17.5,37.5C 18.3016,33.7644 19.3016,30.0977 20.5,26.5C 20.8333,25.5 21.5,24.8333 22.5,24.5 Z"/>
    </g>
    <g>
        <path style="opacity:1" fill="#e0cad0"
              d="M 39.5,24.5 C 39.5674,25.9587 39.2341,27.2921 38.5,28.5C 37.8333,27.8333 37.1667,27.1667 36.5,26.5C 34.3678,24.0453 31.7012,22.3786 28.5,21.5C 24.9,18.7957 21.7333,19.4624 19,23.5C 18.3292,22.7476 17.4959,22.4142 16.5,22.5C 20.7754,18.8432 25.7754,17.6765 31.5,19C 33.5166,21.8612 36.1833,23.6946 39.5,24.5 Z"/>
    </g>
    <g>
        <path style="opacity:0.012" fill="#dc98a7"
              d="M 68.5,24.5 C 68.5,25.1667 68.5,25.8333 68.5,26.5C 68.1667,26.5 67.8333,26.5 67.5,26.5C 67.3284,25.5084 67.6618,24.8417 68.5,24.5 Z"/>
    </g>
    <g>
        <path style="opacity:1" fill="#ebd8dd"
              d="M 10.5,24.5 C 10.5,24.8333 10.5,25.1667 10.5,25.5C 10.7244,29.1788 11.0578,32.8455 11.5,36.5C 11.106,38.7099 9.77271,40.0432 7.5,40.5C 7.5,40.1667 7.5,39.8333 7.5,39.5C 7.5,37.5 7.5,35.5 7.5,33.5C 7.5,32.5 7.5,31.5 7.5,30.5C 8.20278,28.3713 9.20278,26.3713 10.5,24.5 Z"/>
    </g>
    <g>
        <path style="opacity:0.957" fill="#e783a1"
              d="M 7.5,30.5 C 7.5,31.5 7.5,32.5 7.5,33.5C 5.00521,34.1989 2.67187,35.1989 0.5,36.5C 0.737305,35.209 0.403972,34.209 -0.5,33.5C -0.5,30.8333 -0.5,28.1667 -0.5,25.5C -0.166667,25.5 0.166667,25.5 0.5,25.5C 0.833333,25.5 1.16667,25.5 1.5,25.5C 3.04181,24.6993 4.70848,24.366 6.5,24.5C 6.51715,26.5648 6.85048,28.5648 7.5,30.5 Z"/>
    </g>
    <g>
        <path style="opacity:1" fill="#c1485f"
              d="M 23.5,22.5 C 23.9382,22.4346 24.2716,22.6012 24.5,23C 23.5842,23.2784 22.9175,23.7784 22.5,24.5C 21.5,24.8333 20.8333,25.5 20.5,26.5C 18.4959,27.6728 16.9959,29.3395 16,31.5C 15.2832,36.2196 15.4498,40.8862 16.5,45.5C 13.2942,43.4157 11.9609,40.4157 12.5,36.5C 12.5,36.1667 12.5,35.8333 12.5,35.5C 14.3069,29.6854 17.9735,25.3521 23.5,22.5 Z"/>
    </g>
    <g>
        <path style="opacity:1" fill="#e789a4"
              d="M 34.5,26.5 C 35.3957,27.5063 36.0623,27.5063 36.5,26.5C 37.1667,27.1667 37.8333,27.8333 38.5,28.5C 39.3686,30.717 39.702,33.0504 39.5,35.5C 37.2471,35.0726 35.0805,34.4059 33,33.5C 32.7679,34.7375 32.2679,35.7375 31.5,36.5C 31.5674,35.0413 31.2341,33.7079 30.5,32.5C 30.6574,29.6824 31.9908,27.6824 34.5,26.5 Z"/>
    </g>
    <g>
        <path style="opacity:1" fill="#d86d89"
              d="M 45.5,25.5 C 46.4013,26.2905 47.0679,27.2905 47.5,28.5C 49.8333,29.1667 52.1667,29.8333 54.5,30.5C 53.9807,33.9386 52.9807,37.272 51.5,40.5C 51.6716,41.4916 51.3382,42.1583 50.5,42.5C 51.1346,39.5071 51.3013,36.5071 51,33.5C 49.9609,32.2899 48.7942,31.2899 47.5,30.5C 47.1667,30.5 46.8333,30.5 46.5,30.5C 45.962,28.8828 45.6287,27.2161 45.5,25.5 Z"/>
    </g>
    <g>
        <path style="opacity:1" fill="#da7490"
              d="M 57.5,26.5 C 58.1667,27.1667 58.8333,27.8333 59.5,28.5C 59.5,28.8333 59.5,29.1667 59.5,29.5C 60.0508,32.8067 60.3841,36.1401 60.5,39.5C 58.2827,30.5959 56.2827,30.5959 54.5,39.5C 53.609,40.1098 52.609,40.4431 51.5,40.5C 52.9807,37.272 53.9807,33.9386 54.5,30.5C 55.4959,30.4142 56.3292,30.7476 57,31.5C 57.4935,29.8659 57.6602,28.1992 57.5,26.5 Z"/>
    </g>
    <g>
        <path style="opacity:1" fill="#dc748f"
              d="M 20.5,26.5 C 19.3016,30.0977 18.3016,33.7644 17.5,37.5C 17.3402,39.3545 18.0069,40.6879 19.5,41.5C 20.4025,44.3915 20.7359,47.3915 20.5,50.5C 20.1667,50.5 19.8333,50.5 19.5,50.5C 18.4754,46.5822 17.4754,46.5822 16.5,50.5C 16.5,48.8333 16.5,47.1667 16.5,45.5C 15.4498,40.8862 15.2832,36.2196 16,31.5C 16.9959,29.3395 18.4959,27.6728 20.5,26.5 Z"/>
    </g>
    <g>
        <path style="opacity:1" fill="#e2ccd1"
              d="M 27.5,31.5 C 28.1667,31.8333 28.8333,32.1667 29.5,32.5C 29.6633,34.8568 29.4966,37.1902 29,39.5C 27.2406,43.0087 26.074,46.6754 25.5,50.5C 25.1667,50.5 24.8333,50.5 24.5,50.5C 24.6633,48.1432 24.4966,45.8098 24,43.5C 22.8438,44.9928 22.0104,44.8261 21.5,43C 22.3822,39.5592 22.7155,36.0592 22.5,32.5C 24.4147,32.7845 26.0813,32.4511 27.5,31.5 Z"/>
    </g>
    <g>
        <path style="opacity:1" fill="#e9d6db"
              d="M 43.5,23.5 C 43.8333,24.5 44.5,25.1667 45.5,25.5C 45.6287,27.2161 45.962,28.8828 46.5,30.5C 47.024,34.3103 45.3574,36.3103 41.5,36.5C 40.8333,36.5 40.1667,36.5 39.5,36.5C 39.5,36.1667 39.5,35.8333 39.5,35.5C 39.702,33.0504 39.3686,30.717 38.5,28.5C 39.2341,27.2921 39.5674,25.9587 39.5,24.5C 39.369,23.7611 39.5357,23.0944 40,22.5C 40.9529,24.3731 42.1196,24.7065 43.5,23.5 Z"/>
    </g>
    <g>
        <path style="opacity:0.998" fill="#b95069"
              d="M 65.5,34.5 C 65.5,35.5 65.5,36.5 65.5,37.5C 64.8826,37.3893 64.3826,37.056 64,36.5C 64.0704,39.992 63.2371,42.992 61.5,45.5C 61.6658,40.8215 61.4992,36.1548 61,31.5C 60.7216,30.5842 60.2216,29.9175 59.5,29.5C 59.5,29.1667 59.5,28.8333 59.5,28.5C 59.281,27.325 59.6143,26.325 60.5,25.5C 62.954,28.0758 64.6207,31.0758 65.5,34.5 Z"/>
    </g>
    <g>
        <path style="opacity:0.997" fill="#eb90ab"
              d="M -0.5,33.5 C 0.403972,34.209 0.737305,35.209 0.5,36.5C 2.67187,35.1989 5.00521,34.1989 7.5,33.5C 7.5,35.5 7.5,37.5 7.5,39.5C 6.71003,38.3915 6.21003,37.0581 6,35.5C 4.91373,37.798 3.41373,39.798 1.5,41.5C 0.816537,41.1373 0.14987,40.8039 -0.5,40.5C -0.5,38.1667 -0.5,35.8333 -0.5,33.5 Z"/>
    </g>
    <g>
        <path style="opacity:1" fill="#c4495e"
              d="M 29.5,32.5 C 29.8333,32.5 30.1667,32.5 30.5,32.5C 31.2341,33.7079 31.5674,35.0413 31.5,36.5C 31.5,36.8333 31.5,37.1667 31.5,37.5C 28.9319,42.3977 27.9319,47.731 28.5,53.5C 27.1667,52.8333 26.1667,51.8333 25.5,50.5C 26.074,46.6754 27.2406,43.0087 29,39.5C 29.4966,37.1902 29.6633,34.8568 29.5,32.5 Z"/>
    </g>
    <g>
        <path style="opacity:1" fill="#e47e9b"
              d="M 40.5,46.5 C 33.3871,46.4944 31.0537,49.4944 33.5,55.5C 32.5,55.5 31.5,55.5 30.5,55.5C 31.1342,49.8552 31.4676,44.1886 31.5,38.5C 33.6681,38.6649 36.0015,38.3316 38.5,37.5C 38.6495,38.552 38.4828,39.552 38,40.5C 36.6329,39.4757 35.7995,39.9757 35.5,42C 36.7216,44.9654 38.2216,45.1321 40,42.5C 40.49,43.7932 40.6567,45.1266 40.5,46.5 Z"/>
    </g>
    <g>
        <path style="opacity:0.932" fill="#e785a2"
              d="M 7.5,39.5 C 7.5,39.8333 7.5,40.1667 7.5,40.5C 8.90936,44.3163 10.576,47.9829 12.5,51.5C 10.3285,52.2449 7.99522,52.4115 5.5,52C 4.61983,53.3561 4.28649,54.8561 4.5,56.5C 3.83333,55.8333 3.16667,55.1667 2.5,54.5C 2.40505,52.2143 1.73838,50.2143 0.5,48.5C 0.737305,47.209 0.403972,46.209 -0.5,45.5C -0.5,43.8333 -0.5,42.1667 -0.5,40.5C 0.14987,40.8039 0.816537,41.1373 1.5,41.5C 3.41373,39.798 4.91373,37.798 6,35.5C 6.21003,37.0581 6.71003,38.3915 7.5,39.5 Z"/>
    </g>
    <g>
        <path style="opacity:1" fill="#ead4d9"
              d="M 27.5,31.5 C 26.0813,32.4511 24.4147,32.7845 22.5,32.5C 22.7155,36.0592 22.3822,39.5592 21.5,43C 22.0104,44.8261 22.8438,44.9928 24,43.5C 24.4966,45.8098 24.6633,48.1432 24.5,50.5C 23.469,51.2485 22.3024,51.9152 21,52.5C 20.5357,51.9056 20.369,51.2389 20.5,50.5C 20.7359,47.3915 20.4025,44.3915 19.5,41.5C 19.1604,37.8691 19.9937,34.5358 22,31.5C 23.9435,30.193 25.7768,30.193 27.5,31.5 Z"/>
    </g>
    <g>
        <path style="opacity:1" fill="#cfb5bb"
              d="M 46.5,30.5 C 46.8333,30.5 47.1667,30.5 47.5,30.5C 47.5,35.8333 47.5,41.1667 47.5,46.5C 47.7678,48.099 47.4345,49.4324 46.5,50.5C 46.5,47.1667 46.5,43.8333 46.5,40.5C 44.8333,40.5 43.1667,40.5 41.5,40.5C 41.5,39.1667 41.5,37.8333 41.5,36.5C 45.3574,36.3103 47.024,34.3103 46.5,30.5 Z"/>
    </g>
    <g>
        <path style="opacity:1" fill="#e5829e"
              d="M 39.5,35.5 C 39.5,35.8333 39.5,36.1667 39.5,36.5C 39.6036,38.7028 40.2702,40.7028 41.5,42.5C 41.7678,44.099 41.4345,45.4324 40.5,46.5C 40.6567,45.1266 40.49,43.7932 40,42.5C 38.2216,45.1321 36.7216,44.9654 35.5,42C 35.7995,39.9757 36.6329,39.4757 38,40.5C 38.4828,39.552 38.6495,38.552 38.5,37.5C 36.0015,38.3316 33.6681,38.6649 31.5,38.5C 31.5,38.1667 31.5,37.8333 31.5,37.5C 31.5,37.1667 31.5,36.8333 31.5,36.5C 32.2679,35.7375 32.7679,34.7375 33,33.5C 35.0805,34.4059 37.2471,35.0726 39.5,35.5 Z"/>
    </g>
    <g>
        <path style="opacity:1" fill="#dabfc6"
              d="M 11.5,36.5 C 11.8333,36.5 12.1667,36.5 12.5,36.5C 11.9609,40.4157 13.2942,43.4157 16.5,45.5C 16.5,47.1667 16.5,48.8333 16.5,50.5C 16.6716,51.4916 16.3382,52.1583 15.5,52.5C 14.391,52.4431 13.391,52.1098 12.5,51.5C 10.576,47.9829 8.90936,44.3163 7.5,40.5C 9.77271,40.0432 11.106,38.7099 11.5,36.5 Z"/>
    </g>
    <g>
        <path style="opacity:1" fill="#e17e9a"
              d="M 54.5,39.5 C 58.1757,40.2321 59.1757,42.2321 57.5,45.5C 55.1421,47.0243 53.3088,49.0243 52,51.5C 51.4954,49.4817 50.9954,47.4817 50.5,45.5C 50.5,44.5 50.5,43.5 50.5,42.5C 51.3382,42.1583 51.6716,41.4916 51.5,40.5C 52.609,40.4431 53.609,40.1098 54.5,39.5 Z"/>
    </g>
    <g>
        <path style="opacity:1" fill="#e0cad0"
              d="M 39.5,36.5 C 40.1667,36.5 40.8333,36.5 41.5,36.5C 41.5,37.8333 41.5,39.1667 41.5,40.5C 43.1667,40.5 44.8333,40.5 46.5,40.5C 46.5,43.8333 46.5,47.1667 46.5,50.5C 46.3404,52.153 45.6737,53.4863 44.5,54.5C 44.4032,50.1529 43.4032,46.1529 41.5,42.5C 40.2702,40.7028 39.6036,38.7028 39.5,36.5 Z"/>
    </g>
    <g>
        <path style="opacity:1" fill="#b84e62"
              d="M 47.5,30.5 C 48.7942,31.2899 49.9609,32.2899 51,33.5C 51.3013,36.5071 51.1346,39.5071 50.5,42.5C 50.5,43.5 50.5,44.5 50.5,45.5C 50.1667,45.5 49.8333,45.5 49.5,45.5C 49.6655,41.4862 49.4988,37.4862 49,33.5C 48.8247,38.0195 48.3247,42.3528 47.5,46.5C 47.5,41.1667 47.5,35.8333 47.5,30.5 Z"/>
    </g>
    <g>
        <path style="opacity:1" fill="#dd6f8c"
              d="M 31.5,37.5 C 31.5,37.8333 31.5,38.1667 31.5,38.5C 31.4676,44.1886 31.1342,49.8552 30.5,55.5C 30.1667,55.5 29.8333,55.5 29.5,55.5C 29.1667,54.8333 28.8333,54.1667 28.5,53.5C 27.9319,47.731 28.9319,42.3977 31.5,37.5 Z"/>
    </g>
    <g>
        <path style="opacity:1" fill="#e0ccd1"
              d="M 41.5,42.5 C 43.4032,46.1529 44.4032,50.1529 44.5,54.5C 43.4884,55.8717 42.4884,57.205 41.5,58.5C 38.6261,60.9355 35.2927,62.2688 31.5,62.5C 30.5084,62.6716 29.8417,62.3382 29.5,61.5C 35.3701,59.541 39.7034,55.7077 42.5,50C 41.9341,49.0053 41.2674,48.172 40.5,47.5C 40.5,47.1667 40.5,46.8333 40.5,46.5C 41.4345,45.4324 41.7678,44.099 41.5,42.5 Z"/>
    </g>
    <g>
        <path style="opacity:1" fill="#b3394e"
              d="M 49.5,45.5 C 48.8413,48.4552 48.5079,51.4552 48.5,54.5C 46.5,55.8333 44.8333,57.5 43.5,59.5C 42.5084,59.6716 41.8417,59.3382 41.5,58.5C 42.4884,57.205 43.4884,55.8717 44.5,54.5C 45.6737,53.4863 46.3404,52.153 46.5,50.5C 47.4345,49.4324 47.7678,48.099 47.5,46.5C 48.3247,42.3528 48.8247,38.0195 49,33.5C 49.4988,37.4862 49.6655,41.4862 49.5,45.5 Z"/>
    </g>
    <g>
        <path style="opacity:1" fill="#de7894"
              d="M 60.5,39.5 C 60.4358,43.2198 59.9358,46.8865 59,50.5C 56.4531,52.9727 54.9531,55.9727 54.5,59.5C 54.1667,59.5 53.8333,59.5 53.5,59.5C 53.5,57.8333 53.5,56.1667 53.5,54.5C 51.8333,54.5 50.1667,54.5 48.5,54.5C 48.5079,51.4552 48.8413,48.4552 49.5,45.5C 49.8333,45.5 50.1667,45.5 50.5,45.5C 50.9954,47.4817 51.4954,49.4817 52,51.5C 53.3088,49.0243 55.1421,47.0243 57.5,45.5C 59.1757,42.2321 58.1757,40.2321 54.5,39.5C 56.2827,30.5959 58.2827,30.5959 60.5,39.5 Z"/>
    </g>
    <g>
        <path style="opacity:0.01" fill="#e886a4"
              d="M -0.5,48.5 C -0.166667,48.5 0.166667,48.5 0.5,48.5C 0.737305,49.791 0.403972,50.791 -0.5,51.5C -0.5,50.5 -0.5,49.5 -0.5,48.5 Z"/>
    </g>
    <g>
        <path style="opacity:0.997" fill="#ac475d"
              d="M 65.5,37.5 C 67.0069,45.4473 64.8402,52.114 59,57.5C 58.6012,57.2716 58.4346,56.9382 58.5,56.5C 60.3724,53.0834 61.3724,49.4168 61.5,45.5C 63.2371,42.992 64.0704,39.992 64,36.5C 64.3826,37.056 64.8826,37.3893 65.5,37.5 Z"/>
    </g>
    <g>
        <path style="opacity:1" fill="#cf516e"
              d="M 19.5,50.5 C 19.5,51.5 19.5,52.5 19.5,53.5C 17.901,53.7678 16.5676,53.4345 15.5,52.5C 16.3382,52.1583 16.6716,51.4916 16.5,50.5C 17.4754,46.5822 18.4754,46.5822 19.5,50.5 Z"/>
    </g>
    <g>
        <path style="opacity:1" fill="#e3cdd3"
              d="M 19.5,50.5 C 19.8333,50.5 20.1667,50.5 20.5,50.5C 20.369,51.2389 20.5357,51.9056 21,52.5C 22.3024,51.9152 23.469,51.2485 24.5,50.5C 24.8333,50.5 25.1667,50.5 25.5,50.5C 26.1667,51.8333 27.1667,52.8333 28.5,53.5C 28.8333,54.1667 29.1667,54.8333 29.5,55.5C 28.6554,56.6715 27.9887,58.0048 27.5,59.5C 27.1667,59.5 26.8333,59.5 26.5,59.5C 24.6682,58.2819 23.6682,58.9486 23.5,61.5C 21.8267,62.343 20.66,63.6763 20,65.5C 19.8195,68.6946 19.3195,71.6946 18.5,74.5C 17.3263,73.4863 16.6596,72.153 16.5,70.5C 16.2924,65.3646 16.9591,60.3646 18.5,55.5C 18.8333,54.8333 19.1667,54.1667 19.5,53.5C 19.5,52.5 19.5,51.5 19.5,50.5 Z"/>
    </g>
    <g>
        <path style="opacity:0.008" fill="#b95b70"
              d="M 67.5,50.5 C 67.8333,50.5 68.1667,50.5 68.5,50.5C 68.5,51.1667 68.5,51.8333 68.5,52.5C 67.6618,52.1583 67.3284,51.4916 67.5,50.5 Z"/>
    </g>
    <g>
        <path style="opacity:1" fill="#ec8da7"
              d="M 40.5,46.5 C 40.5,46.8333 40.5,47.1667 40.5,47.5C 38.883,50.7843 36.5497,53.4509 33.5,55.5C 31.0537,49.4944 33.3871,46.4944 40.5,46.5 Z"/>
    </g>
    <g>
        <path style="opacity:1" fill="#eedce1"
              d="M 40.5,47.5 C 41.2674,48.172 41.9341,49.0053 42.5,50C 39.7034,55.7077 35.3701,59.541 29.5,61.5C 28.8333,61.1667 28.1667,60.8333 27.5,60.5C 27.5,60.1667 27.5,59.8333 27.5,59.5C 27.9887,58.0048 28.6554,56.6715 29.5,55.5C 29.8333,55.5 30.1667,55.5 30.5,55.5C 31.5,55.5 32.5,55.5 33.5,55.5C 36.5497,53.4509 38.883,50.7843 40.5,47.5 Z"/>
    </g>
    <g>
        <path style="opacity:1" fill="#d16883"
              d="M 59.5,29.5 C 60.2216,29.9175 60.7216,30.5842 61,31.5C 61.4992,36.1548 61.6658,40.8215 61.5,45.5C 61.3724,49.4168 60.3724,53.0834 58.5,56.5C 56.8564,56.8102 55.8564,57.8102 55.5,59.5C 55.1667,59.5 54.8333,59.5 54.5,59.5C 54.9531,55.9727 56.4531,52.9727 59,50.5C 59.9358,46.8865 60.4358,43.2198 60.5,39.5C 60.3841,36.1401 60.0508,32.8067 59.5,29.5 Z"/>
    </g>
    <g>
        <path style="opacity:0.004" fill="#e683a0"
              d="M 1.5,54.5 C 0.474981,54.1034 0.308314,53.4368 1,52.5C 1.46434,53.0944 1.63101,53.7611 1.5,54.5 Z"/>
    </g>
    <g>
        <path style="opacity:1" fill="#e17b98"
              d="M 12.5,51.5 C 13.391,52.1098 14.391,52.4431 15.5,52.5C 16.5676,53.4345 17.901,53.7678 19.5,53.5C 19.1667,54.1667 18.8333,54.8333 18.5,55.5C 17.8826,55.3893 17.3826,55.056 17,54.5C 15.3333,57.5 13,59.8333 10,61.5C 9.18405,60.1772 8.01739,59.5106 6.5,59.5C 6.16667,58.5 5.5,57.8333 4.5,57.5C 4.5,57.1667 4.5,56.8333 4.5,56.5C 4.28649,54.8561 4.61983,53.3561 5.5,52C 7.99522,52.4115 10.3285,52.2449 12.5,51.5 Z"/>
    </g>
    <g>
        <path style="opacity:0.012" fill="#e27f9b"
              d="M 1.5,54.5 C 1.83333,54.5 2.16667,54.5 2.5,54.5C 2.31468,55.1701 1.98135,55.1701 1.5,54.5 Z"/>
    </g>
    <g>
        <path style="opacity:0.992" fill="#b45569"
              d="M 65.5,34.5 C 65.8333,34.5 66.1667,34.5 66.5,34.5C 66.9887,35.9952 67.6554,37.3285 68.5,38.5C 68.5,41.1667 68.5,43.8333 68.5,46.5C 67.5655,47.5676 67.2322,48.901 67.5,50.5C 67.1667,50.5 66.8333,50.5 66.5,50.5C 63.6736,54.8144 60.8403,59.1478 58,63.5C 56.6487,65.019 55.1487,66.3523 53.5,67.5C 52.913,66.7666 52.913,65.7666 53.5,64.5C 54.4408,62.9505 55.1075,61.2838 55.5,59.5C 55.8564,57.8102 56.8564,56.8102 58.5,56.5C 58.4346,56.9382 58.6012,57.2716 59,57.5C 64.8402,52.114 67.0069,45.4473 65.5,37.5C 65.5,36.5 65.5,35.5 65.5,34.5 Z"/>
    </g>
    <g>
        <path style="opacity:0.004" fill="#bd6075"
              d="M 66.5,53.5 C 67.8333,54.1667 67.8333,54.8333 66.5,55.5C 66.5,54.8333 66.5,54.1667 66.5,53.5 Z"/>
    </g>
    <g>
        <path style="opacity:0.995" fill="#e584a0"
              d="M 18.5,55.5 C 16.9591,60.3646 16.2924,65.3646 16.5,70.5C 13.5468,69.2128 11.2135,67.2128 9.5,64.5C 9.06795,63.2905 8.40128,62.2905 7.5,61.5C 7.16667,60.8333 6.83333,60.1667 6.5,59.5C 8.01739,59.5106 9.18405,60.1772 10,61.5C 13,59.8333 15.3333,57.5 17,54.5C 17.3826,55.056 17.8826,55.3893 18.5,55.5 Z"/>
    </g>
    <g>
        <path style="opacity:1" fill="#e485a0"
              d="M 48.5,54.5 C 50.1667,54.5 51.8333,54.5 53.5,54.5C 53.5,56.1667 53.5,57.8333 53.5,59.5C 52.8333,59.5 52.5,59.8333 52.5,60.5C 49.6703,60.6941 47.0037,61.3608 44.5,62.5C 45.3822,59.615 46.7155,56.9483 48.5,54.5 Z"/>
    </g>
    <g>
        <path style="opacity:0.008" fill="#bc5f74"
              d="M 65.5,55.5 C 65.8333,55.5 66.1667,55.5 66.5,55.5C 66.1667,58.1667 65.8333,58.1667 65.5,55.5 Z"/>
    </g>
    <g>
        <path style="opacity:0.012" fill="#e07b98" d="M 4.5,57.5 C 3.83333,58.1667 3.83333,58.1667 4.5,57.5 Z"/>
    </g>
    <g>
        <path style="opacity:0.008" fill="#e1839d" d="M 4.5,59.5 C 5.83333,60.1667 5.83333,60.1667 4.5,59.5 Z"/>
    </g>
    <g>
        <path style="opacity:0.004" fill="#bf6378"
              d="M 64.5,60.5 C 64.369,59.7611 64.5357,59.0944 65,58.5C 65.6917,59.4368 65.525,60.1034 64.5,60.5 Z"/>
    </g>
    <g>
        <path style="opacity:0.986" fill="#ba5c71"
              d="M 66.5,50.5 C 66.5,51.5 66.5,52.5 66.5,53.5C 65.6618,53.8417 65.3284,54.5084 65.5,55.5C 64.0687,56.7804 63.4021,58.4471 63.5,60.5C 62.5987,61.2905 61.9321,62.2905 61.5,63.5C 60.7611,63.369 60.0944,63.5357 59.5,64C 56.9726,69.0433 52.9726,71.8766 47.5,72.5C 47.0618,72.5654 46.7284,72.3988 46.5,72C 49.4117,69.9853 51.745,67.4853 53.5,64.5C 52.913,65.7666 52.913,66.7666 53.5,67.5C 55.1487,66.3523 56.6487,65.019 58,63.5C 60.8403,59.1478 63.6736,54.8144 66.5,50.5 Z"/>
    </g>
    <g>
        <path style="opacity:1" fill="#df7b97"
              d="M 48.5,54.5 C 46.7155,56.9483 45.3822,59.615 44.5,62.5C 47.0037,61.3608 49.6703,60.6941 52.5,60.5C 50.9255,62.9406 48.5921,64.1072 45.5,64C 43.8848,66.342 42.5515,68.842 41.5,71.5C 40.5,71.5 39.5,71.5 38.5,71.5C 38.3433,70.1266 38.51,68.7932 39,67.5C 41.3364,65.3446 42.8364,62.6779 43.5,59.5C 44.8333,57.5 46.5,55.8333 48.5,54.5 Z"/>
    </g>
    <g>
        <path style="opacity:1" fill="#ca637d"
              d="M 54.5,59.5 C 54.8333,59.5 55.1667,59.5 55.5,59.5C 55.1075,61.2838 54.4408,62.9505 53.5,64.5C 51.745,67.4853 49.4117,69.9853 46.5,72C 46.7284,72.3988 47.0618,72.5654 47.5,72.5C 46.3646,74.2132 44.698,74.8799 42.5,74.5C 42.5,74.1667 42.5,73.8333 42.5,73.5C 46.0989,68.5618 50.0989,63.8951 54.5,59.5 Z"/>
    </g>
    <g>
        <path style="opacity:0.008" fill="#bd6277"
              d="M 63.5,60.5 C 63.8333,60.5 64.1667,60.5 64.5,60.5C 64.1667,63.1667 63.8333,63.1667 63.5,60.5 Z"/>
    </g>
    <g>
        <path style="opacity:0.008" fill="#e4829d"
              d="M 7.5,61.5 C 7.63101,62.2389 7.46434,62.9056 7,63.5C 6.30831,62.5632 6.47498,61.8966 7.5,61.5 Z"/>
    </g>
    <g>
        <path style="opacity:0.012" fill="#be697b" d="M 62.5,63.5 C 63.8333,64.1667 63.8333,64.1667 62.5,63.5 Z"/>
    </g>
    <g>
        <path style="opacity:0.004" fill="#e4819d"
              d="M 9.5,64.5 C 9.63101,65.2389 9.46434,65.9056 9,66.5C 8.30831,65.5632 8.47498,64.8966 9.5,64.5 Z"/>
    </g>
    <g>
        <path style="opacity:1" fill="#db7591"
              d="M 41.5,58.5 C 41.8417,59.3382 42.5084,59.6716 43.5,59.5C 42.8364,62.6779 41.3364,65.3446 39,67.5C 38.51,68.7932 38.3433,70.1266 38.5,71.5C 39.5,71.5 40.5,71.5 41.5,71.5C 39.4402,72.8112 37.2735,72.8112 35,71.5C 34.7645,73.1193 33.9311,74.1193 32.5,74.5C 34.494,71.4904 35.494,68.157 35.5,64.5C 33.5168,64.8432 32.1834,64.1765 31.5,62.5C 35.2927,62.2688 38.6261,60.9355 41.5,58.5 Z"/>
    </g>
    <g>
        <path style="opacity:0.008" fill="#bd667a"
              d="M 61.5,64.5 C 61.8333,64.5 62.1667,64.5 62.5,64.5C 62.6716,65.4916 62.3382,66.1583 61.5,66.5C 61.5,65.8333 61.5,65.1667 61.5,64.5 Z"/>
    </g>
    <g>
        <path style="opacity:1" fill="#bd4b61"
              d="M 26.5,59.5 C 25.7332,63.4155 25.2332,67.4155 25,71.5C 24.2904,72.9733 23.1238,73.6399 21.5,73.5C 22.0746,69.4767 22.7412,65.4767 23.5,61.5C 23.6682,58.9486 24.6682,58.2819 26.5,59.5 Z"/>
    </g>
    <g>
        <path style="opacity:0.999" fill="#d16b85"
              d="M 26.5,59.5 C 26.8333,59.5 27.1667,59.5 27.5,59.5C 27.5,59.8333 27.5,60.1667 27.5,60.5C 27.5,61.8333 27.5,63.1667 27.5,64.5C 27.2065,68.4367 27.5399,72.27 28.5,76C 33.2608,75.919 37.9275,75.0857 42.5,73.5C 42.5,73.8333 42.5,74.1667 42.5,74.5C 40.2677,75.8689 37.9344,76.8689 35.5,77.5C 32.5,77.5 29.5,77.5 26.5,77.5C 25.791,76.596 24.791,76.2627 23.5,76.5C 23.1583,75.6618 22.4916,75.3284 21.5,75.5C 21.5,74.8333 21.5,74.1667 21.5,73.5C 23.1238,73.6399 24.2904,72.9733 25,71.5C 25.2332,67.4155 25.7332,63.4155 26.5,59.5 Z"/>
    </g>
    <g>
        <path style="opacity:0.012" fill="#bf6a7c"
              d="M 60.5,66.5 C 60.8333,66.5 61.1667,66.5 61.5,66.5C 61.3147,67.1701 60.9813,67.1701 60.5,66.5 Z"/>
    </g>
    <g>
        <path style="opacity:0.012" fill="#bc6377"
              d="M 59.5,67.5 C 59.8333,67.5 60.1667,67.5 60.5,67.5C 60.3147,68.1701 59.9813,68.1701 59.5,67.5 Z"/>
    </g>
    <g>
        <path style="opacity:0.888" fill="#caadb4"
              d="M 23.5,61.5 C 22.7412,65.4767 22.0746,69.4767 21.5,73.5C 21.5,74.1667 21.5,74.8333 21.5,75.5C 20.5,75.5 19.5,75.5 18.5,75.5C 18.5,75.1667 18.5,74.8333 18.5,74.5C 19.3195,71.6946 19.8195,68.6946 20,65.5C 20.66,63.6763 21.8267,62.343 23.5,61.5 Z"/>
    </g>
    <g>
        <path style="opacity:0.998" fill="#e37e9b"
              d="M 27.5,60.5 C 28.1667,60.8333 28.8333,61.1667 29.5,61.5C 29.8417,62.3382 30.5084,62.6716 31.5,62.5C 32.1834,64.1765 33.5168,64.8432 35.5,64.5C 35.494,68.157 34.494,71.4904 32.5,74.5C 31.5,74.5 30.5,74.5 29.5,74.5C 29.6641,71.8127 29.4974,69.146 29,66.5C 28.7216,65.5842 28.2216,64.9175 27.5,64.5C 27.5,63.1667 27.5,61.8333 27.5,60.5 Z"/>
    </g>
    <g>
        <path style="opacity:0.004" fill="#c47585" d="M 58.5,69.5 C 59.8333,70.1667 59.8333,70.1667 58.5,69.5 Z"/>
    </g>
    <g>
        <path style="opacity:0.008" fill="#c47485" d="M 58.5,70.5 C 57.8333,71.1667 57.8333,71.1667 58.5,70.5 Z"/>
    </g>
    <g>
        <path style="opacity:0.004" fill="#c57586" d="M 57.5,71.5 C 56.8333,72.1667 56.8333,72.1667 57.5,71.5 Z"/>
    </g>
    <g>
        <path style="opacity:0.997" fill="#db7591"
              d="M 53.5,59.5 C 53.8333,59.5 54.1667,59.5 54.5,59.5C 50.0989,63.8951 46.0989,68.5618 42.5,73.5C 37.9275,75.0857 33.2608,75.919 28.5,76C 27.5399,72.27 27.2065,68.4367 27.5,64.5C 28.2216,64.9175 28.7216,65.5842 29,66.5C 29.4974,69.146 29.6641,71.8127 29.5,74.5C 30.5,74.5 31.5,74.5 32.5,74.5C 33.9311,74.1193 34.7645,73.1193 35,71.5C 37.2735,72.8112 39.4402,72.8112 41.5,71.5C 42.5515,68.842 43.8848,66.342 45.5,64C 48.5921,64.1072 50.9255,62.9406 52.5,60.5C 52.5,59.8333 52.8333,59.5 53.5,59.5 Z"/>
    </g>
    <g>
        <path style="opacity:0.008" fill="#c1687a" d="M 54.5,72.5 C 55.8333,73.1667 55.8333,73.1667 54.5,72.5 Z"/>
    </g>
    <g>
        <path style="opacity:0.012" fill="#c57183"
              d="M 53.5,73.5 C 53.8333,73.5 54.1667,73.5 54.5,73.5C 54.3147,74.1701 53.9813,74.1701 53.5,73.5 Z"/>
    </g>
    <g>
        <path style="opacity:0.004" fill="#c67587"
              d="M 51.5,75.5 C 51.5,75.1667 51.5,74.8333 51.5,74.5C 52.1667,74.5 52.8333,74.5 53.5,74.5C 53.1583,75.3382 52.4916,75.6716 51.5,75.5 Z"/>
    </g>
    <g>
        <path style="opacity:0.004" fill="#d8c4c9" d="M 18.5,75.5 C 17.8333,76.1667 17.8333,76.1667 18.5,75.5 Z"/>
    </g>
    <g>
        <path style="opacity:0.004" fill="#c77989"
              d="M 49.5,76.5 C 49.5,76.1667 49.5,75.8333 49.5,75.5C 50.1667,75.5 50.8333,75.5 51.5,75.5C 51.1583,76.3382 50.4916,76.6716 49.5,76.5 Z"/>
    </g>
    <g>
        <path style="opacity:0.008" fill="#c9b0b6" d="M 20.5,77.5 C 19.8333,76.1667 19.8333,76.1667 20.5,77.5 Z"/>
    </g>
    <g>
        <path style="opacity:0.012" fill="#ca6c81"
              d="M 21.5,77.5 C 21.8417,76.6618 22.5084,76.3284 23.5,76.5C 23.5,76.8333 23.5,77.1667 23.5,77.5C 22.8333,77.5 22.1667,77.5 21.5,77.5 Z"/>
    </g>
    <g>
        <path style="opacity:0.543" fill="#c76f83"
              d="M 61.5,63.5 C 61.5,63.8333 61.5,64.1667 61.5,64.5C 60.6618,64.8417 60.3284,65.5084 60.5,66.5C 59.8333,66.5 59.5,66.8333 59.5,67.5C 57.5,68.8333 55.8333,70.5 54.5,72.5C 53.8333,72.5 53.5,72.8333 53.5,73.5C 52.5084,73.3284 51.8417,73.6618 51.5,74.5C 50.5084,74.3284 49.8417,74.6618 49.5,75.5C 48.5084,75.3284 47.8417,75.6618 47.5,76.5C 46.209,76.2627 45.209,76.596 44.5,77.5C 41.5,77.5 38.5,77.5 35.5,77.5C 37.9344,76.8689 40.2677,75.8689 42.5,74.5C 44.698,74.8799 46.3646,74.2132 47.5,72.5C 52.9726,71.8766 56.9726,69.0433 59.5,64C 60.0944,63.5357 60.7611,63.369 61.5,63.5 Z"/>
    </g>
    <g>
        <path style="opacity:0.008" fill="#c87a8b"
              d="M 47.5,77.5 C 47.5,77.1667 47.5,76.8333 47.5,76.5C 48.1667,76.5 48.8333,76.5 49.5,76.5C 49.5,76.8333 49.5,77.1667 49.5,77.5C 48.8333,77.5 48.1667,77.5 47.5,77.5 Z"/>
    </g>
</svg>
