<?xml version="1.0" encoding="UTF-8"?>
<!DOCTYPE svg PUBLIC "-//W3C//DTD SVG 1.1//EN" "http://www.w3.org/Graphics/SVG/1.1/DTD/svg11.dtd">
<svg xmlns="http://www.w3.org/2000/svg" version="1.1" width="64px" height="64px" style="shape-rendering:geometricPrecision; text-rendering:geometricPrecision; image-rendering:optimizeQuality; fill-rule:evenodd; clip-rule:evenodd" xmlns:xlink="http://www.w3.org/1999/xlink">
<g><path style="opacity:0.844" fill="#916f9e" d="M 63.5,22.5 C 63.5,26.8333 63.5,31.1667 63.5,35.5C 55.6391,50.6813 43.1391,57.0146 26,54.5C 22.0673,60.0111 16.9007,62.3444 10.5,61.5C 12.8836,58.0533 13.5502,54.3866 12.5,50.5C 6.73053,47.0676 2.3972,42.4009 -0.5,36.5C -0.5,31.8333 -0.5,27.1667 -0.5,22.5C 5.99912,9.56885 16.6658,3.23551 31.5,3.5C 46.2991,3.22062 56.9657,9.55396 63.5,22.5 Z"/></g>
<g><path style="opacity:1" fill="#f2dbac" d="M 60.5,34.5 C 61.2436,31.0504 59.9103,29.3838 56.5,29.5C 57.0391,25.5843 55.7058,22.5843 52.5,20.5C 52.1667,19.8333 51.8333,19.1667 51.5,18.5C 50.4613,16.4689 48.7946,15.1355 46.5,14.5C 45.8333,14.1667 45.1667,13.8333 44.5,13.5C 30.9752,6.39398 19.1418,8.72731 9,20.5C 7.09237,23.2065 6.25903,26.2065 6.5,29.5C 3.5,29.1667 2.16667,30.5 2.5,33.5C 1.05226,21.5996 6.05226,13.0996 17.5,8C 29.8112,3.80745 41.4778,5.14078 52.5,12C 60.0905,17.9464 62.7572,25.4464 60.5,34.5 Z"/></g>
<g><path style="opacity:1" fill="#9475a1" d="M 44.5,13.5 C 37.9498,11.7013 31.2831,11.2013 24.5,12C 12.895,15.0441 7.5617,22.5441 8.5,34.5C 6.78679,33.3646 6.12012,31.698 6.5,29.5C 6.25903,26.2065 7.09237,23.2065 9,20.5C 19.1418,8.72731 30.9752,6.39398 44.5,13.5 Z"/></g>
<g><path style="opacity:1" fill="#88c5f2" d="M 44.5,13.5 C 45.1667,13.8333 45.8333,14.1667 46.5,14.5C 47.1293,16.9971 48.796,18.3304 51.5,18.5C 51.8333,19.1667 52.1667,19.8333 52.5,20.5C 56.6838,30.2938 54.3505,38.1271 45.5,44C 42.0618,45.0519 39.0618,46.5519 36.5,48.5C 26.2028,49.8468 17.5362,46.8468 10.5,39.5C 9.43795,37.9783 8.77128,36.3117 8.5,34.5C 7.5617,22.5441 12.895,15.0441 24.5,12C 31.2831,11.2013 37.9498,11.7013 44.5,13.5 Z"/></g>
<g><path style="opacity:1" fill="#957fa9" d="M 46.5,14.5 C 48.7946,15.1355 50.4613,16.4689 51.5,18.5C 48.796,18.3304 47.1293,16.9971 46.5,14.5 Z"/></g>
<g><path style="opacity:1" fill="#9578a6" d="M 23.5,19.5 C 32.7683,20.5687 34.935,25.2354 30,33.5C 27.8587,36.3208 25.0254,37.6541 21.5,37.5C 21.3433,36.1266 21.51,34.7932 22,33.5C 25.8691,31.434 26.0357,29.6006 22.5,28C 19.8146,24.8833 20.148,22.05 23.5,19.5 Z"/></g>
<g><path style="opacity:1" fill="#ede0d7" d="M 23.5,21.5 C 30.2392,21.9715 32.0726,25.3049 29,31.5C 27.5784,33.6381 25.745,34.8047 23.5,35C 26.3974,33.2845 27.7307,30.7845 27.5,27.5C 23.2615,27.2804 21.9282,25.2804 23.5,21.5 Z"/></g>
<g><path style="opacity:1" fill="#f1ce97" d="M 6.5,29.5 C 6.12012,31.698 6.78679,33.3646 8.5,34.5C 8.77128,36.3117 9.43795,37.9783 10.5,39.5C 17.5362,46.8468 26.2028,49.8468 36.5,48.5C 47.7495,46.9157 54.4162,40.5824 56.5,29.5C 59.9103,29.3838 61.2436,31.0504 60.5,34.5C 56.8444,43.6488 50.1777,49.4822 40.5,52C 34.8333,52.3333 29.1667,52.6667 23.5,53C 21.2681,55.7349 18.6014,57.9016 15.5,59.5C 15.1667,59.1667 14.8333,58.8333 14.5,58.5C 15.8129,55.5947 16.3129,52.5947 16,49.5C 9.09174,46.1 4.59174,40.7667 2.5,33.5C 2.16667,30.5 3.5,29.1667 6.5,29.5 Z"/></g>
<g><path style="opacity:1" fill="#9779a6" d="M 36.5,19.5 C 45.47,19.8119 47.97,24.1452 44,32.5C 42.2349,34.7744 40.0682,36.4411 37.5,37.5C 35.7336,37.5658 34.7336,36.7324 34.5,35C 35.9958,33.6693 37.3291,32.1693 38.5,30.5C 34.0644,27.5553 33.3977,23.8886 36.5,19.5 Z"/></g>
<g><path style="opacity:1" fill="#f1e4d9" d="M 37.5,21.5 C 42.9885,21.504 44.8219,24.1707 43,29.5C 42.3272,32.8083 40.4939,34.6416 37.5,35C 40.2072,33.1363 41.0405,30.6363 40,27.5C 38.9887,26.6634 37.8221,26.33 36.5,26.5C 36.366,24.7085 36.6993,23.0418 37.5,21.5 Z"/></g>
<g><path style="opacity:1" fill="#9276a3" d="M 52.5,20.5 C 55.7058,22.5843 57.0391,25.5843 56.5,29.5C 54.4162,40.5824 47.7495,46.9157 36.5,48.5C 39.0618,46.5519 42.0618,45.0519 45.5,44C 54.3505,38.1271 56.6838,30.2938 52.5,20.5 Z"/></g>
</svg>
