<?xml version="1.0" encoding="UTF-8"?>
<!DOCTYPE svg PUBLIC "-//W3C//DTD SVG 1.1//EN" "http://www.w3.org/Graphics/SVG/1.1/DTD/svg11.dtd">
<svg xmlns="http://www.w3.org/2000/svg" version="1.1" width="96px" height="96px" style="shape-rendering:geometricPrecision; text-rendering:geometricPrecision; image-rendering:optimizeQuality; fill-rule:evenodd; clip-rule:evenodd" xmlns:xlink="http://www.w3.org/1999/xlink">
<g><path style="opacity:0.938" fill="#3a4a52" d="M 83.5,87.5 C 83.3893,86.8826 83.056,86.3826 82.5,86C 75.7498,85.6145 69.0831,84.7812 62.5,83.5C 62.5,82.1667 62.5,80.8333 62.5,79.5C 58.4557,80.0421 54.789,79.2088 51.5,77C 46.3333,71.8333 41.1667,66.6667 36,61.5C 34.6409,57.5948 33.8076,53.5948 33.5,49.5C 34.8333,49.5 36.1667,49.5 37.5,49.5C 37.605,53.3189 38.4383,56.9855 40,60.5C 44.5323,65.3671 49.3656,69.8671 54.5,74C 64.6601,77.1713 71.1601,73.6713 74,63.5C 78.7437,59.0296 80.2437,53.6963 78.5,47.5C 75.667,46.0668 72.667,45.4001 69.5,45.5C 69.2865,43.8561 69.6198,42.3561 70.5,41C 73.1873,39.8049 75.854,39.6382 78.5,40.5C 80.3624,36.9322 79.3624,34.7655 75.5,34C 72.6529,33.0561 70.1529,33.5561 68,35.5C 65.9851,33.5217 66.1517,31.6884 68.5,30C 71.146,29.5026 73.8127,29.3359 76.5,29.5C 76.2465,22.4014 72.9132,17.2347 66.5,14C 54.2645,7.90341 42.2645,8.23675 30.5,15C 24.6596,22.8733 22.493,31.7067 24,41.5C 29.5664,52.3173 30.8998,63.6506 28,75.5C 25.1668,81.5067 20.6668,85.5067 14.5,87.5C 12.1667,87.5 9.83333,87.5 7.5,87.5C 7.5,86.1667 7.5,84.8333 7.5,83.5C 19.4327,82.3607 25.4327,75.694 25.5,63.5C 23.9752,56.7574 22.1418,50.0907 20,43.5C 17.6303,31.4493 20.1303,20.616 27.5,11C 39.7292,4.88784 52.3959,3.88784 65.5,8C 77.1913,14.1925 83.1913,24.0259 83.5,37.5C 83.2934,44.0863 83.1268,50.7529 83,57.5C 80.253,62.8792 77.5864,68.2125 75,73.5C 72.5925,75.9561 69.7591,77.7894 66.5,79C 72.3232,80.895 78.3232,81.895 84.5,82C 87.0352,82.9282 88.0352,84.7615 87.5,87.5C 86.1667,87.5 84.8333,87.5 83.5,87.5 Z"/></g>
<g><path style="opacity:1" fill="#fafbfb" d="M 83.5,87.5 C 75.5,87.5 67.5,87.5 59.5,87.5C 59.5,86.1667 59.5,84.8333 59.5,83.5C 56.5683,83.2843 53.9017,83.951 51.5,85.5C 48.4291,83.82 45.0958,83.1533 41.5,83.5C 41.5,84.8333 41.5,86.1667 41.5,87.5C 32.5,87.5 23.5,87.5 14.5,87.5C 20.6668,85.5067 25.1668,81.5067 28,75.5C 30.8998,63.6506 29.5664,52.3173 24,41.5C 22.493,31.7067 24.6596,22.8733 30.5,15C 42.2645,8.23675 54.2645,7.90341 66.5,14C 72.9132,17.2347 76.2465,22.4014 76.5,29.5C 73.8127,29.3359 71.146,29.5026 68.5,30C 66.1517,31.6884 65.9851,33.5217 68,35.5C 70.1529,33.5561 72.6529,33.0561 75.5,34C 79.3624,34.7655 80.3624,36.9322 78.5,40.5C 75.854,39.6382 73.1873,39.8049 70.5,41C 69.6198,42.3561 69.2865,43.8561 69.5,45.5C 72.667,45.4001 75.667,46.0668 78.5,47.5C 80.2437,53.6963 78.7437,59.0296 74,63.5C 71.1601,73.6713 64.6601,77.1713 54.5,74C 49.3656,69.8671 44.5323,65.3671 40,60.5C 38.4383,56.9855 37.605,53.3189 37.5,49.5C 36.1667,49.5 34.8333,49.5 33.5,49.5C 33.8076,53.5948 34.6409,57.5948 36,61.5C 41.1667,66.6667 46.3333,71.8333 51.5,77C 54.789,79.2088 58.4557,80.0421 62.5,79.5C 62.5,80.8333 62.5,82.1667 62.5,83.5C 69.0831,84.7812 75.7498,85.6145 82.5,86C 83.056,86.3826 83.3893,86.8826 83.5,87.5 Z"/></g>
<g><path style="opacity:1" fill="#3e4d55" d="M 49.5,21.5 C 56.734,22.7655 64.0673,23.4322 71.5,23.5C 71.5,24.8333 71.5,26.1667 71.5,27.5C 65.3559,27.8223 59.3559,27.1556 53.5,25.5C 48.2759,26.9695 42.9426,27.6361 37.5,27.5C 37.5,26.1667 37.5,24.8333 37.5,23.5C 41.7643,23.6558 45.7643,22.9891 49.5,21.5 Z"/></g>
<g><path style="opacity:1" fill="#3c4b53" d="M 48.5,29.5 C 51.5,29.5 54.5,29.5 57.5,29.5C 57.5,30.8333 57.5,32.1667 57.5,33.5C 52.6632,33.1162 47.9966,33.7829 43.5,35.5C 42.3861,34.277 42.2195,32.9437 43,31.5C 44.9483,30.8906 46.7816,30.224 48.5,29.5 Z"/></g>
<g><path style="opacity:1" fill="#405057" d="M 45.5,37.5 C 49.3913,37.6085 53.058,38.6085 56.5,40.5C 57.4519,42.0453 57.7852,43.712 57.5,45.5C 53.8183,45.6653 50.1516,45.4986 46.5,45C 42.9719,43.0157 42.6386,40.5157 45.5,37.5 Z"/></g>
<g><path style="opacity:1" fill="#f1f2f3" d="M 46.5,39.5 C 47.5,39.5 48.5,39.5 49.5,39.5C 49.762,40.9778 49.4287,42.3112 48.5,43.5C 46.8888,42.6798 46.2222,41.3464 46.5,39.5 Z"/></g>
<g><path style="opacity:1" fill="#e6e8e9" d="M 71.5,43.5 C 72.7082,42.218 74.0416,42.218 75.5,43.5C 74.4425,43.9059 73.1092,43.9059 71.5,43.5 Z"/></g>
<g><path style="opacity:1" fill="#3e4e56" d="M 63.5,45.5 C 64.8333,45.5 66.1667,45.5 67.5,45.5C 66.9454,49.3872 68.2787,52.3872 71.5,54.5C 70.0541,56.6179 69.3874,58.9512 69.5,61.5C 67.5,61.5 65.5,61.5 63.5,61.5C 63.5,60.1667 63.5,58.8333 63.5,57.5C 64.5,57.5 65.5,57.5 66.5,57.5C 64.3574,53.8518 63.3574,49.8518 63.5,45.5 Z"/></g>
<g><path style="opacity:1" fill="#3c4b53" d="M 55.5,52.5 C 56.5,52.5 57.5,52.5 58.5,52.5C 58.5792,53.9305 58.2458,55.2638 57.5,56.5C 59.0049,57.8415 59.6715,59.5082 59.5,61.5C 53.564,60.625 52.2307,57.625 55.5,52.5 Z"/></g>
<g><path style="opacity:1" fill="#394951" d="M 53.5,64.5 C 58.8049,65.1942 64.1383,65.5276 69.5,65.5C 69.5,66.8333 69.5,68.1667 69.5,69.5C 64.0873,69.7712 58.7539,69.2712 53.5,68C 52.3157,66.8545 52.3157,65.6879 53.5,64.5 Z"/></g>
<g><path style="opacity:0.969" fill="#384850" d="M 59.5,87.5 C 57.0023,88.627 54.3356,89.2937 51.5,89.5C 48.1581,88.8262 44.8248,88.1595 41.5,87.5C 41.5,86.1667 41.5,84.8333 41.5,83.5C 45.0958,83.1533 48.4291,83.82 51.5,85.5C 53.9017,83.951 56.5683,83.2843 59.5,83.5C 59.5,84.8333 59.5,86.1667 59.5,87.5 Z"/></g>
</svg>
